<?xml version="1.0" encoding="UTF-8"?>
<svg xmlns="http://www.w3.org/2000/svg" xmlns:xlink="http://www.w3.org/1999/xlink" width="29.472136pt" height="808.133752pt" viewBox="0 0 29.472136 808.133752" version="1.1">
<g id="surface166325">
<path style="fill-rule:evenodd;fill:rgb(100%,100%,100%);fill-opacity:1;stroke-width:1;stroke-linecap:butt;stroke-linejoin:bevel;stroke:rgb(50.048876%,50.048876%,50.048876%);stroke-opacity:1;stroke-miterlimit:10;" d="M -5 0.000479924 C -5 -2.74952 -2.75 -4.99952 0 -4.99952 C 2.75 -4.99952 5 -2.74952 5 0.000479924 C 5 2.75048 2.75 5.00048 0 5.00048 C -2.75 5.00048 -5 2.75048 -5 0.000479924 " transform="matrix(1,0,0,1,8,373.163583)"/>
<path style="fill-rule:evenodd;fill:rgb(100%,100%,100%);fill-opacity:1;stroke-width:1;stroke-linecap:butt;stroke-linejoin:bevel;stroke:rgb(50.048876%,50.048876%,50.048876%);stroke-opacity:1;stroke-miterlimit:10;" d="M -5 0.000369344 C -5 -2.749631 -2.75 -4.999631 0 -4.999631 C 2.75 -4.999631 5 -2.749631 5 0.000369344 C 5 2.750369 2.75 5.000369 0 5.000369 C -2.75 5.000369 -5 2.750369 -5 0.000369344 " transform="matrix(1,0,0,1,8,642.394162)"/>
<path style="fill-rule:evenodd;fill:rgb(100%,100%,100%);fill-opacity:1;stroke-width:1;stroke-linecap:butt;stroke-linejoin:bevel;stroke:rgb(50.048876%,50.048876%,50.048876%);stroke-opacity:1;stroke-miterlimit:10;" d="M -5 0.000241938 C -5 -2.749758 -2.75 -4.999758 0 -4.999758 C 2.75 -4.999758 5 -2.749758 5 0.000241938 C 5 2.750242 2.75 5.000242 0 5.000242 C -2.75 5.000242 -5 2.750242 -5 0.000241938 " transform="matrix(1,0,0,1,21,228.206789)"/>
<path style="fill-rule:evenodd;fill:rgb(100%,100%,100%);fill-opacity:1;stroke-width:1;stroke-linecap:butt;stroke-linejoin:bevel;stroke:rgb(50.048876%,50.048876%,50.048876%);stroke-opacity:1;stroke-miterlimit:10;" d="M -5 0.00196614 C -5 -2.748034 -2.75 -4.998034 0 -4.998034 C 2.75 -4.998034 5 -2.748034 5 0.00196614 C 5 2.751966 2.75 5.001966 0 5.001966 C -2.75 5.001966 -5 2.751966 -5 0.00196614 " transform="matrix(1,0,0,1,14.5,170.490221)"/>
<path style="fill-rule:evenodd;fill:rgb(100%,100%,100%);fill-opacity:1;stroke-width:1;stroke-linecap:butt;stroke-linejoin:bevel;stroke:rgb(50.048876%,50.048876%,50.048876%);stroke-opacity:1;stroke-miterlimit:10;" d="M -5 0.0012232 C -5 -2.748777 -2.75 -4.998777 0 -4.998777 C 2.75 -4.998777 5 -2.748777 5 0.0012232 C 5 2.751223 2.75 5.001223 0 5.001223 C -2.75 5.001223 -5 2.751223 -5 0.0012232 " transform="matrix(1,0,0,1,8,799.830808)"/>
<path style="fill-rule:evenodd;fill:rgb(100%,100%,100%);fill-opacity:1;stroke-width:1;stroke-linecap:butt;stroke-linejoin:bevel;stroke:rgb(50.048876%,50.048876%,50.048876%);stroke-opacity:1;stroke-miterlimit:10;" d="M -5 0.00141122 C -5 -2.748589 -2.75 -4.998589 0 -4.998589 C 2.75 -4.998589 5 -2.748589 5 0.00141122 C 5 2.751411 2.75 5.001411 0 5.001411 C -2.75 5.001411 -5 2.751411 -5 0.00141122 " transform="matrix(1,0,0,1,8,607.479058)"/>
<path style="fill-rule:evenodd;fill:rgb(100%,100%,100%);fill-opacity:1;stroke-width:1;stroke-linecap:butt;stroke-linejoin:bevel;stroke:rgb(50.048876%,50.048876%,50.048876%);stroke-opacity:1;stroke-miterlimit:10;" d="M -5 -0.000196964 C -5 -2.750197 -2.75 -5.000197 0 -5.000197 C 2.75 -5.000197 5 -2.750197 5 -0.000196964 C 5 2.749803 2.75 4.999803 0 4.999803 C -2.75 4.999803 -5 2.749803 -5 -0.000196964 " transform="matrix(1,0,0,1,8,766.172072)"/>
<path style="fill-rule:evenodd;fill:rgb(100%,100%,100%);fill-opacity:1;stroke-width:1;stroke-linecap:butt;stroke-linejoin:bevel;stroke:rgb(50.048876%,50.048876%,50.048876%);stroke-opacity:1;stroke-miterlimit:10;" d="M -5 0.00135282 C -5 -2.748647 -2.75 -4.998647 0 -4.998647 C 2.75 -4.998647 5 -2.748647 5 0.00135282 C 5 2.751353 2.75 5.001353 0 5.001353 C -2.75 5.001353 -5 2.751353 -5 0.00135282 " transform="matrix(1,0,0,1,8,467.904897)"/>
<path style="fill-rule:evenodd;fill:rgb(100%,100%,100%);fill-opacity:1;stroke-width:1;stroke-linecap:butt;stroke-linejoin:bevel;stroke:rgb(50.048876%,50.048876%,50.048876%);stroke-opacity:1;stroke-miterlimit:10;" d="M -5 0.000871263 C -5 -2.749129 -2.75 -4.999129 0 -4.999129 C 2.75 -4.999129 5 -2.749129 5 0.000871263 C 5 2.750871 2.75 5.000871 0 5.000871 C -2.75 5.000871 -5 2.750871 -5 0.000871263 " transform="matrix(1,0,0,1,8,787.702254)"/>
<path style="fill-rule:evenodd;fill:rgb(100%,100%,100%);fill-opacity:1;stroke-width:1;stroke-linecap:butt;stroke-linejoin:bevel;stroke:rgb(50.048876%,50.048876%,50.048876%);stroke-opacity:1;stroke-miterlimit:10;" d="M -5 0.00268305 C -5 -2.747317 -2.75 -4.997317 0 -4.997317 C 2.75 -4.997317 5 -2.747317 5 0.00268305 C 5 2.752683 2.75 5.002683 0 5.002683 C -2.75 5.002683 -5 2.752683 -5 0.00268305 " transform="matrix(1,0,0,1,14.5,8.169192)"/>
<path style="fill-rule:evenodd;fill:rgb(100%,100%,100%);fill-opacity:1;stroke-width:1;stroke-linecap:butt;stroke-linejoin:bevel;stroke:rgb(50.048876%,50.048876%,50.048876%);stroke-opacity:1;stroke-miterlimit:10;" d="M -5 0.000131052 C -5 -2.749869 -2.75 -4.999869 0 -4.999869 C 2.75 -4.999869 5 -2.749869 5 0.000131052 C 5 2.750131 2.75 5.000131 0 5.000131 C -2.75 5.000131 -5 2.750131 -5 0.000131052 " transform="matrix(1,0,0,1,8,706.636588)"/>
<path style="fill-rule:evenodd;fill:rgb(100%,100%,100%);fill-opacity:1;stroke-width:1;stroke-linecap:butt;stroke-linejoin:bevel;stroke:rgb(50.048876%,50.048876%,50.048876%);stroke-opacity:1;stroke-miterlimit:10;" d="M -5 -0.000415035 C -5 -2.750415 -2.75 -5.000415 0 -5.000415 C 2.75 -5.000415 5 -2.750415 5 -0.000415035 C 5 2.749585 2.75 4.999585 0 4.999585 C -2.75 4.999585 -5 2.749585 -5 -0.000415035 " transform="matrix(1,0,0,1,14.5,129.488696)"/>
<path style="fill-rule:evenodd;fill:rgb(100%,100%,100%);fill-opacity:1;stroke-width:1;stroke-linecap:butt;stroke-linejoin:bevel;stroke:rgb(50.048876%,50.048876%,50.048876%);stroke-opacity:1;stroke-miterlimit:10;" d="M -5 0.000979593 C -5 -2.74902 -2.75 -4.99902 0 -4.99902 C 2.75 -4.99902 5 -2.74902 5 0.000979593 C 5 2.75098 2.75 5.00098 0 5.00098 C -2.75 5.00098 -5 2.75098 -5 0.000979593 " transform="matrix(1,0,0,1,14.5,55.834958)"/>
<path style="fill-rule:evenodd;fill:rgb(100%,100%,100%);fill-opacity:1;stroke-width:1;stroke-linecap:butt;stroke-linejoin:bevel;stroke:rgb(50.048876%,50.048876%,50.048876%);stroke-opacity:1;stroke-miterlimit:10;" d="M -5 0.000575775 C -5 -2.749424 -2.75 -4.999424 0 -4.999424 C 2.75 -4.999424 5 -2.749424 5 0.000575775 C 5 2.750576 2.75 5.000576 0 5.000576 C -2.75 5.000576 -5 2.750576 -5 0.000575775 " transform="matrix(1,0,0,1,21,268.011143)"/>
<path style="fill-rule:evenodd;fill:rgb(100%,100%,100%);fill-opacity:1;stroke-width:1;stroke-linecap:butt;stroke-linejoin:bevel;stroke:rgb(50.048876%,50.048876%,50.048876%);stroke-opacity:1;stroke-miterlimit:10;" d="M -5 0.000273167 C -5 -2.749727 -2.75 -4.999727 0 -4.999727 C 2.75 -4.999727 5 -2.749727 5 0.000273167 C 5 2.750273 2.75 5.000273 0 5.000273 C -2.75 5.000273 -5 2.750273 -5 0.000273167 " transform="matrix(1,0,0,1,8,193.726289)"/>
<path style="fill-rule:evenodd;fill:rgb(100%,100%,100%);fill-opacity:1;stroke-width:1;stroke-linecap:butt;stroke-linejoin:bevel;stroke:rgb(50.048876%,50.048876%,50.048876%);stroke-opacity:1;stroke-miterlimit:10;" d="M -5 0.000376764 C -5 -2.749623 -2.75 -4.999623 0 -4.999623 C 2.75 -4.999623 5 -2.749623 5 0.000376764 C 5 2.750377 2.75 5.000377 0 5.000377 C -2.75 5.000377 -5 2.750377 -5 0.000376764 " transform="matrix(1,0,0,1,8,506.585561)"/>
<path style="fill-rule:evenodd;fill:rgb(100%,100%,100%);fill-opacity:1;stroke-width:1;stroke-linecap:butt;stroke-linejoin:bevel;stroke:rgb(50.048876%,50.048876%,50.048876%);stroke-opacity:1;stroke-miterlimit:10;" d="M -5 0.00131753 C -5 -2.748682 -2.75 -4.998682 0 -4.998682 C 2.75 -4.998682 5 -2.748682 5 0.00131753 C 5 2.751318 2.75 5.001318 0 5.001318 C -2.75 5.001318 -5 2.751318 -5 0.00131753 " transform="matrix(1,0,0,1,8,397.377589)"/>
<path style="fill-rule:evenodd;fill:rgb(100%,100%,100%);fill-opacity:1;stroke-width:1;stroke-linecap:butt;stroke-linejoin:bevel;stroke:rgb(50.048876%,50.048876%,50.048876%);stroke-opacity:1;stroke-miterlimit:10;" d="M -5 0.00105636 C -5 -2.748944 -2.75 -4.998944 0 -4.998944 C 2.75 -4.998944 5 -2.748944 5 0.00105636 C 5 2.751056 2.75 5.001056 0 5.001056 C -2.75 5.001056 -5 2.751056 -5 0.00105636 " transform="matrix(1,0,0,1,8,537.100506)"/>
<path style="fill-rule:evenodd;fill:rgb(100%,100%,100%);fill-opacity:1;stroke-width:1;stroke-linecap:butt;stroke-linejoin:bevel;stroke:rgb(50.048876%,50.048876%,50.048876%);stroke-opacity:1;stroke-miterlimit:10;" d="M -5 0.0017597 C -5 -2.74824 -2.75 -4.99824 0 -4.99824 C 2.75 -4.99824 5 -2.74824 5 0.0017597 C 5 2.75176 2.75 5.00176 0 5.00176 C -2.75 5.00176 -5 2.75176 -5 0.0017597 " transform="matrix(1,0,0,1,21,294.59199)"/>
<path style="fill-rule:evenodd;fill:rgb(100%,100%,100%);fill-opacity:1;stroke-width:1;stroke-linecap:butt;stroke-linejoin:bevel;stroke:rgb(50.048876%,50.048876%,50.048876%);stroke-opacity:1;stroke-miterlimit:10;" d="M -5 -0.000982375 C -5 -2.750982 -2.75 -5.000982 0 -5.000982 C 2.75 -5.000982 5 -2.750982 5 -0.000982375 C 5 2.749018 2.75 4.999018 0 4.999018 C -2.75 4.999018 -5 2.749018 -5 -0.000982375 " transform="matrix(1,0,0,1,8,426.989264)"/>
<path style="fill-rule:evenodd;fill:rgb(100%,100%,100%);fill-opacity:1;stroke-width:1;stroke-linecap:butt;stroke-linejoin:bevel;stroke:rgb(50.048876%,50.048876%,50.048876%);stroke-opacity:1;stroke-miterlimit:10;" d="M -5 -0.000400625 C -5 -2.750401 -2.75 -5.000401 0 -5.000401 C 2.75 -5.000401 5 -2.750401 5 -0.000400625 C 5 2.749599 2.75 4.999599 0 4.999599 C -2.75 4.999599 -5 2.749599 -5 -0.000400625 " transform="matrix(1,0,0,1,8,668.547276)"/>
<path style="fill-rule:evenodd;fill:rgb(100%,100%,100%);fill-opacity:1;stroke-width:1;stroke-linecap:butt;stroke-linejoin:bevel;stroke:rgb(50.048876%,50.048876%,50.048876%);stroke-opacity:1;stroke-miterlimit:10;" d="M -5 0.00174396 C -5 -2.748256 -2.75 -4.998256 0 -4.998256 C 2.75 -4.998256 5 -2.748256 5 0.00174396 C 5 2.751744 2.75 5.001744 0 5.001744 C -2.75 5.001744 -5 2.751744 -5 0.00174396 " transform="matrix(1,0,0,1,8,570.361537)"/>
<path style="fill-rule:evenodd;fill:rgb(50.048876%,50.048876%,50.048876%);fill-opacity:1;stroke-width:1;stroke-linecap:butt;stroke-linejoin:bevel;stroke:rgb(50.048876%,50.048876%,50.048876%);stroke-opacity:1;stroke-miterlimit:10;" d="M -5 0.00111966 C -5 -2.74888 -2.75 -4.99888 0 -4.99888 C 2.75 -4.99888 5 -2.74888 5 0.00111966 C 5 2.75112 2.75 5.00112 0 5.00112 C -2.75 5.00112 -5 2.75112 -5 0.00111966 " transform="matrix(1,0,0,1,14.5,182.108255)"/>
<path style="fill-rule:evenodd;fill:rgb(100%,100%,100%);fill-opacity:1;stroke-width:1;stroke-linecap:butt;stroke-linejoin:bevel;stroke:rgb(50.048876%,50.048876%,50.048876%);stroke-opacity:1;stroke-miterlimit:10;" d="M -5 0.00143437 C -5 -2.748566 -2.75 -4.998566 0 -4.998566 C 2.75 -4.998566 5 -2.748566 5 0.00143437 C 5 2.751434 2.75 5.001434 0 5.001434 C -2.75 5.001434 -5 2.751434 -5 0.00143437 " transform="matrix(1,0,0,1,8,733.299347)"/>
<path style="fill-rule:evenodd;fill:rgb(100%,100%,100%);fill-opacity:1;stroke-width:1;stroke-linecap:butt;stroke-linejoin:bevel;stroke:rgb(50.048876%,50.048876%,50.048876%);stroke-opacity:1;stroke-miterlimit:10;" d="M -5 -0.000252899 C -5 -2.750253 -2.75 -5.000253 0 -5.000253 C 2.75 -5.000253 5 -2.750253 5 -0.000252899 C 5 2.749747 2.75 4.999747 0 4.999747 C -2.75 4.999747 -5 2.749747 -5 -0.000252899 " transform="matrix(1,0,0,1,8,447.359628)"/>
<path style="fill-rule:evenodd;fill:rgb(100%,100%,100%);fill-opacity:1;stroke-width:1;stroke-linecap:butt;stroke-linejoin:bevel;stroke:rgb(50.048876%,50.048876%,50.048876%);stroke-opacity:1;stroke-miterlimit:10;" d="M -5 0.00287207 C -5 -2.747128 -2.75 -4.997128 0 -4.997128 C 2.75 -4.997128 5 -2.747128 5 0.00287207 C 5 2.752872 2.75 5.002872 0 5.002872 C -2.75 5.002872 -5 2.752872 -5 0.00287207 " transform="matrix(1,0,0,1,14.5,95.075253)"/>
<path style="fill-rule:evenodd;fill:rgb(100%,100%,100%);fill-opacity:1;stroke-width:1;stroke-linecap:butt;stroke-linejoin:bevel;stroke:rgb(50.048876%,50.048876%,50.048876%);stroke-opacity:1;stroke-miterlimit:10;" d="M -5 -0.000655716 C -5 -2.750656 -2.75 -5.000656 0 -5.000656 C 2.75 -5.000656 5 -2.750656 5 -0.000655716 C 5 2.749344 2.75 4.999344 0 4.999344 C -2.75 4.999344 -5 2.749344 -5 -0.000655716 " transform="matrix(1,0,0,1,21,328.473312)"/>
<path style="fill:none;stroke-width:1;stroke-linecap:butt;stroke-linejoin:bevel;stroke:rgb(50.048876%,50.048876%,50.048876%);stroke-opacity:1;stroke-miterlimit:10;" d="M 0 -390.832031 C 0 -371.996094 0 -371.996094 0 -353.164062 " transform="matrix(1,0,0,1,14.5,404)"/>
<path style="fill:none;stroke-width:1;stroke-linecap:butt;stroke-linejoin:bevel;stroke:rgb(50.048876%,50.048876%,50.048876%);stroke-opacity:1;stroke-miterlimit:10;" d="M 0 -343.164062 C 0 -328.542969 0 -328.542969 0 -313.925781 " transform="matrix(1,0,0,1,14.5,404)"/>
<path style="fill:none;stroke-width:1;stroke-linecap:butt;stroke-linejoin:bevel;stroke:rgb(50.048876%,50.048876%,50.048876%);stroke-opacity:1;stroke-miterlimit:10;" d="M 0 -303.925781 C 0 -291.71875 0 -291.71875 0 -279.511719 " transform="matrix(1,0,0,1,14.5,404)"/>
<path style="fill:none;stroke-width:1;stroke-linecap:butt;stroke-linejoin:bevel;stroke:rgb(50.048876%,50.048876%,50.048876%);stroke-opacity:1;stroke-miterlimit:10;" d="M 0 -269.511719 C 0 -254.011719 0 -254.011719 0 -238.511719 " transform="matrix(1,0,0,1,14.5,404)"/>
<path style="fill:none;stroke-width:1;stroke-linecap:butt;stroke-linejoin:bevel;stroke:rgb(50.048876%,50.048876%,50.048876%);stroke-opacity:1;stroke-miterlimit:10;" d="M 0 -228.511719 C 0 -227.699219 0 -227.699219 0 -226.890625 " transform="matrix(1,0,0,1,14.5,404)"/>
<path style="fill:none;stroke-width:1;stroke-linecap:butt;stroke-linejoin:bevel;stroke:rgb(50.048876%,50.048876%,50.048876%);stroke-opacity:1;stroke-miterlimit:10;" d="M 0 -216.894531 C 0 -216.082031 -7 -216.082031 -7 -215.273438 " transform="matrix(1,0,0,1,14.5,404)"/>
<path style="fill:none;stroke-width:1;stroke-linecap:butt;stroke-linejoin:bevel;stroke:rgb(50.048876%,50.048876%,50.048876%);stroke-opacity:1;stroke-miterlimit:10;" d="M 0 -216.890625 C 0 -198.84375 6 -198.84375 6 -180.792969 " transform="matrix(1,0,0,1,14.5,404)"/>
<path style="fill:none;stroke-width:1;stroke-linecap:butt;stroke-linejoin:bevel;stroke:rgb(50.048876%,50.048876%,50.048876%);stroke-opacity:1;stroke-miterlimit:10;" d="M 6 -170.792969 C 6 -155.890625 6 -155.890625 6 -140.988281 " transform="matrix(1,0,0,1,14.5,404)"/>
<path style="fill:none;stroke-width:1;stroke-linecap:butt;stroke-linejoin:bevel;stroke:rgb(50.048876%,50.048876%,50.048876%);stroke-opacity:1;stroke-miterlimit:10;" d="M 6 -130.988281 C 6 -122.699219 6 -122.699219 6 -114.40625 " transform="matrix(1,0,0,1,14.5,404)"/>
<path style="fill:none;stroke-width:1;stroke-linecap:butt;stroke-linejoin:bevel;stroke:rgb(50.048876%,50.048876%,50.048876%);stroke-opacity:1;stroke-miterlimit:10;" d="M 6 -104.40625 C 6 -92.46875 6 -92.46875 6 -80.527344 " transform="matrix(1,0,0,1,14.5,404)"/>
<path style="fill:none;stroke-width:1;stroke-linecap:butt;stroke-linejoin:bevel;stroke:rgb(50.048876%,50.048876%,50.048876%);stroke-opacity:0.4;stroke-dasharray:4;stroke-miterlimit:10;" d="M -7 -205.273438 C -7 -120.554688 -7 -120.554688 -7 -35.835938 " transform="matrix(1,0,0,1,14.5,404)"/>
<path style="fill:none;stroke-width:1;stroke-linecap:butt;stroke-linejoin:bevel;stroke:rgb(50.048876%,50.048876%,50.048876%);stroke-opacity:1;stroke-miterlimit:10;" d="M 6 -70.527344 C 6 -53.183594 -7 -53.183594 -7 -35.835938 " transform="matrix(1,0,0,1,14.5,404)"/>
<path style="fill:none;stroke-width:1;stroke-linecap:butt;stroke-linejoin:bevel;stroke:rgb(50.048876%,50.048876%,50.048876%);stroke-opacity:1;stroke-miterlimit:10;" d="M -7 -25.835938 C -7 -18.730469 -7 -18.730469 -7 -11.625 " transform="matrix(1,0,0,1,14.5,404)"/>
<path style="fill:none;stroke-width:1;stroke-linecap:butt;stroke-linejoin:bevel;stroke:rgb(50.048876%,50.048876%,50.048876%);stroke-opacity:1;stroke-miterlimit:10;" d="M -7 -1.621094 C -7 8.183594 -7 8.183594 -7 17.988281 " transform="matrix(1,0,0,1,14.5,404)"/>
<path style="fill:none;stroke-width:1;stroke-linecap:butt;stroke-linejoin:bevel;stroke:rgb(50.048876%,50.048876%,50.048876%);stroke-opacity:1;stroke-miterlimit:10;" d="M -7 27.988281 C -7 33.175781 -7 33.175781 -7 38.359375 " transform="matrix(1,0,0,1,14.5,404)"/>
<path style="fill:none;stroke-width:1;stroke-linecap:butt;stroke-linejoin:bevel;stroke:rgb(50.048876%,50.048876%,50.048876%);stroke-opacity:1;stroke-miterlimit:10;" d="M -7 48.359375 C -7 53.632812 -7 53.632812 -7 58.90625 " transform="matrix(1,0,0,1,14.5,404)"/>
<path style="fill:none;stroke-width:1;stroke-linecap:butt;stroke-linejoin:bevel;stroke:rgb(50.048876%,50.048876%,50.048876%);stroke-opacity:1;stroke-miterlimit:10;" d="M -7 68.90625 C -7 83.246094 -7 83.246094 -7 97.585938 " transform="matrix(1,0,0,1,14.5,404)"/>
<path style="fill:none;stroke-width:1;stroke-linecap:butt;stroke-linejoin:bevel;stroke:rgb(50.048876%,50.048876%,50.048876%);stroke-opacity:1;stroke-miterlimit:10;" d="M -7 107.585938 C -7 117.84375 -7 117.84375 -7 128.101562 " transform="matrix(1,0,0,1,14.5,404)"/>
<path style="fill:none;stroke-width:1;stroke-linecap:butt;stroke-linejoin:bevel;stroke:rgb(50.048876%,50.048876%,50.048876%);stroke-opacity:1;stroke-miterlimit:10;" d="M -7 138.101562 C -7 149.730469 -7 149.730469 -7 161.363281 " transform="matrix(1,0,0,1,14.5,404)"/>
<path style="fill:none;stroke-width:1;stroke-linecap:butt;stroke-linejoin:bevel;stroke:rgb(50.048876%,50.048876%,50.048876%);stroke-opacity:1;stroke-miterlimit:10;" d="M -7 171.363281 C -7 184.921875 -7 184.921875 -7 198.480469 " transform="matrix(1,0,0,1,14.5,404)"/>
<path style="fill:none;stroke-width:1;stroke-linecap:butt;stroke-linejoin:bevel;stroke:rgb(50.048876%,50.048876%,50.048876%);stroke-opacity:1;stroke-miterlimit:10;" d="M -7 208.480469 C -7 220.9375 -7 220.9375 -7 233.394531 " transform="matrix(1,0,0,1,14.5,404)"/>
<path style="fill:none;stroke-width:1;stroke-linecap:butt;stroke-linejoin:bevel;stroke:rgb(50.048876%,50.048876%,50.048876%);stroke-opacity:1;stroke-miterlimit:10;" d="M -7 243.394531 C -7 251.472656 -7 251.472656 -7 259.546875 " transform="matrix(1,0,0,1,14.5,404)"/>
<path style="fill:none;stroke-width:1;stroke-linecap:butt;stroke-linejoin:bevel;stroke:rgb(50.048876%,50.048876%,50.048876%);stroke-opacity:1;stroke-miterlimit:10;" d="M -7 269.546875 C -7 283.59375 -7 283.59375 -7 297.636719 " transform="matrix(1,0,0,1,14.5,404)"/>
<path style="fill:none;stroke-width:1;stroke-linecap:butt;stroke-linejoin:bevel;stroke:rgb(50.048876%,50.048876%,50.048876%);stroke-opacity:1;stroke-miterlimit:10;" d="M -7 307.636719 C -7 315.96875 -7 315.96875 -7 324.300781 " transform="matrix(1,0,0,1,14.5,404)"/>
<path style="fill:none;stroke-width:1;stroke-linecap:butt;stroke-linejoin:bevel;stroke:rgb(50.048876%,50.048876%,50.048876%);stroke-opacity:1;stroke-miterlimit:10;" d="M -7 334.300781 C -7 345.734375 -7 345.734375 -7 357.171875 " transform="matrix(1,0,0,1,14.5,404)"/>
<path style="fill:none;stroke-width:1;stroke-linecap:butt;stroke-linejoin:bevel;stroke:rgb(50.048876%,50.048876%,50.048876%);stroke-opacity:1;stroke-miterlimit:10;" d="M -7 367.171875 C -7 372.9375 -7 372.9375 -7 378.703125 " transform="matrix(1,0,0,1,14.5,404)"/>
<path style="fill:none;stroke-width:1;stroke-linecap:butt;stroke-linejoin:bevel;stroke:rgb(50.048876%,50.048876%,50.048876%);stroke-opacity:1;stroke-miterlimit:10;" d="M -7 388.703125 C -7 389.765625 -7 389.765625 -7 390.832031 " transform="matrix(1,0,0,1,14.5,404)"/>
</g>
</svg>
