<?xml version="1.0" encoding="UTF-8"?>
<svg xmlns="http://www.w3.org/2000/svg" xmlns:xlink="http://www.w3.org/1999/xlink" width="170.275535pt" height="108.472136pt" viewBox="0 0 170.275535 108.472136" version="1.1">
<g id="surface128019">
<path style="fill-rule:evenodd;fill:rgb(100%,100%,100%);fill-opacity:1;stroke-width:1;stroke-linecap:butt;stroke-linejoin:bevel;stroke:rgb(50.048876%,50.048876%,50.048876%);stroke-opacity:1;stroke-miterlimit:10;" d="M -77.667969 -50 L 77.664062 -50 C 79.453125 -50 80.902344 -48.550781 80.902344 -46.765625 L 80.902344 46.761719 C 80.902344 48.550781 79.453125 50 77.664062 50 L -77.667969 50 C -79.453125 50 -80.902344 48.550781 -80.902344 46.761719 L -80.902344 -46.765625 C -80.902344 -48.550781 -79.453125 -50 -77.667969 -50 Z M -77.667969 -50 " transform="matrix(1,0,0,1,85,54)"/>
<path style="fill-rule:evenodd;fill:rgb(100%,100%,100%);fill-opacity:1;stroke-width:1;stroke-linecap:butt;stroke-linejoin:bevel;stroke:rgb(50.048876%,50.048876%,50.048876%);stroke-opacity:1;stroke-miterlimit:10;" d="M -46.765625 -30.902344 L 46.761719 -30.902344 C 48.550781 -30.902344 50 -29.453125 50 -27.667969 L 50 27.664062 C 50 29.453125 48.550781 30.902344 46.761719 30.902344 L -46.765625 30.902344 C -48.550781 30.902344 -50 29.453125 -50 27.664062 L -50 -27.667969 C -50 -29.453125 -48.550781 -30.902344 -46.765625 -30.902344 Z M -46.765625 -30.902344 " transform="matrix(0,-1,1,0,35,54)"/>
<path style="fill-rule:evenodd;fill:rgb(100%,100%,100%);fill-opacity:1;stroke-width:1;stroke-linecap:butt;stroke-linejoin:bevel;stroke:rgb(50.048876%,50.048876%,50.048876%);stroke-opacity:1;stroke-miterlimit:10;" d="M -27.667969 -19.098301 L 27.664062 -19.098301 C 29.449219 -19.098301 30.898438 -17.649082 30.898438 -15.860019 L 30.898438 15.862637 C 30.898438 17.651699 29.449219 19.097012 27.664062 19.097012 L -27.667969 19.097012 C -29.453125 19.097012 -30.902344 17.651699 -30.902344 15.862637 L -30.902344 -15.860019 C -30.902344 -17.649082 -29.453125 -19.098301 -27.667969 -19.098301 Z M -27.667969 -19.098301 " transform="matrix(-1,0,0,-1,35,84.901699)"/>
<path style="fill-rule:evenodd;fill:rgb(100%,100%,100%);fill-opacity:1;stroke-width:1;stroke-linecap:butt;stroke-linejoin:bevel;stroke:rgb(50.048876%,50.048876%,50.048876%);stroke-opacity:1;stroke-miterlimit:10;" d="M -15.862637 -11.804043 L 15.860019 -11.804043 C 17.649082 -11.804043 19.098301 -10.354824 19.098301 -8.569668 L 19.098301 8.567051 C 19.098301 10.352207 17.649082 11.801426 15.860019 11.801426 L -15.862637 11.801426 C -17.651699 11.801426 -19.100918 10.352207 -19.100918 8.567051 L -19.100918 -8.569668 C -19.100918 -10.354824 -17.651699 -11.804043 -15.862637 -11.804043 Z M -15.862637 -11.804043 " transform="matrix(0,1,-1,0,54.098301,84.901699)"/>
<path style="fill-rule:evenodd;fill:rgb(100%,100%,100%);fill-opacity:1;stroke-width:1;stroke-linecap:butt;stroke-linejoin:bevel;stroke:rgb(50.048876%,50.048876%,50.048876%);stroke-opacity:1;stroke-miterlimit:10;" d="M -8.567051 -7.293613 L 8.569668 -7.293613 C 10.354824 -7.293613 11.804043 -5.848301 11.804043 -4.059238 L 11.804043 4.057949 C 11.804043 5.847012 10.354824 7.292324 8.569668 7.292324 L -8.567051 7.292324 C -10.352207 7.292324 -11.801426 5.847012 -11.801426 4.057949 L -11.801426 -4.059238 C -11.801426 -5.848301 -10.352207 -7.293613 -8.567051 -7.293613 Z M -8.567051 -7.293613 " transform="matrix(1,0,0,1,54.098301,73.098301)"/>
<path style="fill-rule:evenodd;fill:rgb(100%,100%,100%);fill-opacity:1;stroke-width:1;stroke-linecap:butt;stroke-linejoin:bevel;stroke:rgb(50.048876%,50.048876%,50.048876%);stroke-opacity:1;stroke-miterlimit:10;" d="M -4.061856 -4.51043 L 4.059238 -4.51043 C 5.844394 -4.51043 7.293613 -3.061211 7.293613 -1.272149 L 7.293613 1.27082 C 7.293613 3.059882 5.844394 4.509101 4.059238 4.509101 L -4.061856 4.509101 C -5.847012 4.509101 -7.296231 3.059882 -7.296231 1.27082 L -7.296231 -1.272149 C -7.296231 -3.061211 -5.847012 -4.51043 -4.061856 -4.51043 Z M -4.061856 -4.51043 " transform="matrix(0,-1,1,0,46.803399,73.098301)"/>
<path style="fill-rule:evenodd;fill:rgb(100%,100%,100%);fill-opacity:1;stroke-width:1;stroke-linecap:butt;stroke-linejoin:bevel;stroke:rgb(50.048876%,50.048876%,50.048876%);stroke-opacity:1;stroke-miterlimit:10;" d="M -1.720039 -2.787734 L 1.721368 -2.787734 C 3.26043 -2.787734 4.51043 -1.54164 4.51043 -0.00257725 C 4.51043 1.536485 3.26043 2.786485 1.721368 2.786485 L -1.720039 2.786485 C -3.259101 2.786485 -4.509101 1.536485 -4.509101 -0.00257725 C -4.509101 -1.54164 -3.259101 -2.787734 -1.720039 -2.787734 Z M -1.720039 -2.787734 " transform="matrix(-1,0,0,-1,46.803399,77.606798)"/>
<path style="fill-rule:evenodd;fill:rgb(100%,100%,100%);fill-opacity:1;stroke-width:1;stroke-linecap:butt;stroke-linejoin:bevel;stroke:rgb(50.048876%,50.048876%,50.048876%);stroke-opacity:1;stroke-miterlimit:10;" d="M -1.063829 -1.722697 L 1.065077 -1.722697 C 2.014296 -1.722697 2.787734 -0.953165 2.787734 -0.000040375 C 2.787734 0.949178 2.014296 1.722616 1.065077 1.722616 L -1.063829 1.722616 C -2.013048 1.722616 -2.786485 0.949178 -2.786485 -0.000040375 C -2.786485 -0.953165 -2.013048 -1.722697 -1.063829 -1.722697 Z M -1.063829 -1.722697 " transform="matrix(0,1,-1,0,49.589803,77.606798)"/>
<path style="fill-rule:evenodd;fill:rgb(100%,100%,100%);fill-opacity:1;stroke-width:1;stroke-linecap:butt;stroke-linejoin:bevel;stroke:rgb(50.048876%,50.048876%,50.048876%);stroke-opacity:1;stroke-miterlimit:10;" d="M -0.660116 -1.065923 L 0.65629 -1.065923 C 1.242228 -1.065923 1.71879 -0.589361 1.71879 -0.00342344 C 1.71879 0.58642 1.242228 1.062983 0.65629 1.062983 L -0.660116 1.062983 C -1.246053 1.062983 -1.722616 0.58642 -1.722616 -0.00342344 C -1.722616 -0.589361 -1.246053 -1.065923 -0.660116 -1.065923 Z M -0.660116 -1.065923 " transform="matrix(1,0,0,1,49.589803,76.542486)"/>
</g>
</svg>
