<?xml version="1.0" encoding="UTF-8"?>
<svg xmlns="http://www.w3.org/2000/svg" xmlns:xlink="http://www.w3.org/1999/xlink" width="43.686918pt" height="27.506578pt" viewBox="0 0 43.686918 27.506578" version="1.1">
<g id="surface1298899">
<path style="fill-rule:evenodd;fill:rgb(50.048876%,50.048876%,50.048876%);fill-opacity:1;stroke-width:1;stroke-linecap:butt;stroke-linejoin:bevel;stroke:rgb(50.048876%,50.048876%,50.048876%);stroke-opacity:1;stroke-miterlimit:10;" d="M -3.232876 -0.00117268 C -3.232876 -1.782423 -1.779751 -3.235548 0.00149888 -3.235548 C 1.782749 -3.235548 3.235874 -1.782423 3.235874 -0.00117268 C 3.235874 1.780077 1.782749 3.233202 0.00149888 3.233202 C -1.779751 3.233202 -3.232876 1.780077 -3.232876 -0.00117268 " transform="matrix(1,0,0,1,4.201626,23.708204)"/>
<path style="fill-rule:evenodd;fill:rgb(100%,100%,100%);fill-opacity:1;stroke-width:1;stroke-linecap:butt;stroke-linejoin:bevel;stroke:rgb(50.048876%,50.048876%,50.048876%);stroke-opacity:1;stroke-miterlimit:10;" d="M -5.753016 0.000144078 C -5.753016 -3.163918 -3.163172 -5.753762 0.00089052 -5.753762 C 3.164953 -5.753762 5.754797 -3.163918 5.754797 0.000144078 C 5.754797 3.164207 3.164953 5.75405 0.00089052 5.75405 C -3.163172 5.75405 -5.753016 3.164207 -5.753016 0.000144078 " transform="matrix(1,0,0,1,12.831141,21.191262)"/>
<path style="fill-rule:evenodd;fill:rgb(100%,100%,100%);fill-opacity:1;stroke-width:1;stroke-linecap:butt;stroke-linejoin:bevel;stroke:rgb(50.048876%,50.048876%,50.048876%);stroke-opacity:1;stroke-miterlimit:10;" d="M -12.945639 0 C -12.945639 -7.121094 -7.12142 -12.945312 -0.000326194 -12.945312 C 7.120768 -12.945312 12.944986 -7.121094 12.944986 0 C 12.944986 7.121094 7.120768 12.945312 -0.000326194 12.945312 C -7.12142 12.945312 -12.945639 7.121094 -12.945639 0 " transform="matrix(1,0,0,1,30.09017,14)"/>
</g>
</svg>
