<?xml version="1.0" encoding="UTF-8"?>
<svg xmlns="http://www.w3.org/2000/svg" xmlns:xlink="http://www.w3.org/1999/xlink" width="48.54102pt" height="32.36068pt" viewBox="0 0 48.54102 32.36068" version="1.1">
<g id="surface2343143">
<path style="fill-rule:evenodd;fill:rgb(50.048876%,50.048876%,50.048876%);fill-opacity:1;stroke-width:1;stroke-linecap:butt;stroke-linejoin:bevel;stroke:rgb(50.048876%,50.048876%,50.048876%);stroke-opacity:1;stroke-miterlimit:10;" d="M -3.236782 -0.00117268 C -3.236782 -1.778516 -1.779751 -3.235548 0.00149888 -3.235548 C 1.778843 -3.235548 3.235874 -1.778516 3.235874 -0.00117268 C 3.235874 1.780077 1.778843 3.237109 0.00149888 3.237109 C -1.779751 3.237109 -3.236782 1.780077 -3.236782 -0.00117268 " transform="matrix(1,0,0,1,6.701626,25.708204)"/>
<path style="fill-rule:evenodd;fill:rgb(100%,100%,100%);fill-opacity:1;stroke-width:1;stroke-linecap:butt;stroke-linejoin:bevel;stroke:rgb(50.048876%,50.048876%,50.048876%);stroke-opacity:1;stroke-miterlimit:10;" d="M -5.753016 0.000144078 C -5.753016 -3.163918 -3.163172 -5.753762 0.00089052 -5.753762 C 3.164953 -5.753762 5.754797 -3.163918 5.754797 0.000144078 C 5.754797 3.164207 3.164953 5.75405 0.00089052 5.75405 C -3.163172 5.75405 -5.753016 3.164207 -5.753016 0.000144078 " transform="matrix(1,0,0,1,15.331141,23.191262)"/>
<path style="fill-rule:evenodd;fill:rgb(100%,100%,100%);fill-opacity:1;stroke-width:1;stroke-linecap:butt;stroke-linejoin:bevel;stroke:rgb(50.048876%,50.048876%,50.048876%);stroke-opacity:1;stroke-miterlimit:10;" d="M -12.945639 0 C -12.945639 -7.121094 -7.12142 -12.945312 -0.000326194 -12.945312 C 7.120768 -12.945312 12.944986 -7.121094 12.944986 0 C 12.944986 7.121094 7.120768 12.945312 -0.000326194 12.945312 C -7.12142 12.945312 -12.945639 7.121094 -12.945639 0 " transform="matrix(1,0,0,1,32.59017,16)"/>
</g>
</svg>
