<?xml version="1.0" encoding="UTF-8"?>
<svg xmlns="http://www.w3.org/2000/svg" xmlns:xlink="http://www.w3.org/1999/xlink" width="31.472136pt" height="903.056442pt" viewBox="0 0 31.472136 903.056442" version="1.1">
<g id="surface37044">
<path style="fill-rule:evenodd;fill:rgb(100%,100%,100%);fill-opacity:1;stroke-width:1;stroke-linecap:butt;stroke-linejoin:bevel;stroke:rgb(50.048876%,50.048876%,50.048876%);stroke-opacity:1;stroke-miterlimit:10;" d="M -5 0.000072375 C -5 -2.749928 -2.75 -4.999928 0 -4.999928 C 2.75 -4.999928 5 -2.749928 5 0.000072375 C 5 2.750072 2.75 5.000072 0 5.000072 C -2.75 5.000072 -5 2.750072 -5 0.000072375 " transform="matrix(1,0,0,1,9,467.124928)"/>
<path style="fill-rule:evenodd;fill:rgb(100%,100%,100%);fill-opacity:1;stroke-width:1;stroke-linecap:butt;stroke-linejoin:bevel;stroke:rgb(50.048876%,50.048876%,50.048876%);stroke-opacity:1;stroke-miterlimit:10;" d="M -5 -0.0000382052 C -5 -2.750038 -2.75 -5.000038 0 -5.000038 C 2.75 -5.000038 5 -2.750038 5 -0.0000382052 C 5 2.749962 2.75 4.999962 0 4.999962 C -2.75 4.999962 -5 2.749962 -5 -0.0000382052 " transform="matrix(1,0,0,1,9,736.355507)"/>
<path style="fill-rule:evenodd;fill:rgb(100%,100%,100%);fill-opacity:1;stroke-width:1;stroke-linecap:butt;stroke-linejoin:bevel;stroke:rgb(50.048876%,50.048876%,50.048876%);stroke-opacity:1;stroke-miterlimit:10;" d="M -5 -0.000165612 C -5 -2.750166 -2.75 -5.000166 0 -5.000166 C 2.75 -5.000166 5 -2.750166 5 -0.000165612 C 5 2.749834 2.75 4.999834 0 4.999834 C -2.75 4.999834 -5 2.749834 -5 -0.000165612 " transform="matrix(1,0,0,1,22,322.168134)"/>
<path style="fill-rule:evenodd;fill:rgb(100%,100%,100%);fill-opacity:1;stroke-width:1;stroke-linecap:butt;stroke-linejoin:bevel;stroke:rgb(50.048876%,50.048876%,50.048876%);stroke-opacity:1;stroke-miterlimit:10;" d="M -5 0.00155859 C -5 -2.748441 -2.75 -4.998441 0 -4.998441 C 2.75 -4.998441 5 -2.748441 5 0.00155859 C 5 2.751559 2.75 5.001559 0 5.001559 C -2.75 5.001559 -5 2.751559 -5 0.00155859 " transform="matrix(1,0,0,1,15.5,264.451566)"/>
<path style="fill-rule:evenodd;fill:rgb(100%,100%,100%);fill-opacity:1;stroke-width:1;stroke-linecap:butt;stroke-linejoin:bevel;stroke:rgb(50.048876%,50.048876%,50.048876%);stroke-opacity:1;stroke-miterlimit:10;" d="M -5 0.000815651 C -5 -2.749184 -2.75 -4.999184 0 -4.999184 C 2.75 -4.999184 5 -2.749184 5 0.000815651 C 5 2.750816 2.75 5.000816 0 5.000816 C -2.75 5.000816 -5 2.750816 -5 0.000815651 " transform="matrix(1,0,0,1,9,893.792153)"/>
<path style="fill-rule:evenodd;fill:rgb(100%,100%,100%);fill-opacity:1;stroke-width:1;stroke-linecap:butt;stroke-linejoin:bevel;stroke:rgb(50.048876%,50.048876%,50.048876%);stroke-opacity:1;stroke-miterlimit:10;" d="M -5 0.00100367 C -5 -2.748996 -2.75 -4.998996 0 -4.998996 C 2.75 -4.998996 5 -2.748996 5 0.00100367 C 5 2.751004 2.75 5.001004 0 5.001004 C -2.75 5.001004 -5 2.751004 -5 0.00100367 " transform="matrix(1,0,0,1,9,701.440403)"/>
<path style="fill-rule:evenodd;fill:rgb(100%,100%,100%);fill-opacity:1;stroke-width:1;stroke-linecap:butt;stroke-linejoin:bevel;stroke:rgb(50.048876%,50.048876%,50.048876%);stroke-opacity:1;stroke-miterlimit:10;" d="M -5 -0.000604514 C -5 -2.750605 -2.75 -5.000605 0 -5.000605 C 2.75 -5.000605 5 -2.750605 5 -0.000604514 C 5 2.749395 2.75 4.999395 0 4.999395 C -2.75 4.999395 -5 2.749395 -5 -0.000604514 " transform="matrix(1,0,0,1,9,860.133417)"/>
<path style="fill-rule:evenodd;fill:rgb(100%,100%,100%);fill-opacity:1;stroke-width:1;stroke-linecap:butt;stroke-linejoin:bevel;stroke:rgb(50.048876%,50.048876%,50.048876%);stroke-opacity:1;stroke-miterlimit:10;" d="M -5 0.00094527 C -5 -2.749055 -2.75 -4.999055 0 -4.999055 C 2.75 -4.999055 5 -2.749055 5 0.00094527 C 5 2.750945 2.75 5.000945 0 5.000945 C -2.75 5.000945 -5 2.750945 -5 0.00094527 " transform="matrix(1,0,0,1,9,561.866242)"/>
<path style="fill-rule:evenodd;fill:rgb(100%,100%,100%);fill-opacity:1;stroke-width:1;stroke-linecap:butt;stroke-linejoin:bevel;stroke:rgb(50.048876%,50.048876%,50.048876%);stroke-opacity:1;stroke-miterlimit:10;" d="M -5 0.000463713 C -5 -2.749536 -2.75 -4.999536 0 -4.999536 C 2.75 -4.999536 5 -2.749536 5 0.000463713 C 5 2.750464 2.75 5.000464 0 5.000464 C -2.75 5.000464 -5 2.750464 -5 0.000463713 " transform="matrix(1,0,0,1,9,881.663599)"/>
<path style="fill-rule:evenodd;fill:rgb(100%,100%,100%);fill-opacity:1;stroke-width:1;stroke-linecap:butt;stroke-linejoin:bevel;stroke:rgb(50.048876%,50.048876%,50.048876%);stroke-opacity:1;stroke-miterlimit:10;" d="M -5 0.0022755 C -5 -2.747724 -2.75 -4.997724 0 -4.997724 C 2.75 -4.997724 5 -2.747724 5 0.0022755 C 5 2.752276 2.75 5.002276 0 5.002276 C -2.75 5.002276 -5 2.752276 -5 0.0022755 " transform="matrix(1,0,0,1,15.5,102.130537)"/>
<path style="fill-rule:evenodd;fill:rgb(100%,100%,100%);fill-opacity:1;stroke-width:1;stroke-linecap:butt;stroke-linejoin:bevel;stroke:rgb(50.048876%,50.048876%,50.048876%);stroke-opacity:1;stroke-miterlimit:10;" d="M -5 -0.000276497 C -5 -2.750276 -2.75 -5.000276 0 -5.000276 C 2.75 -5.000276 5 -2.750276 5 -0.000276497 C 5 2.749724 2.75 4.999724 0 4.999724 C -2.75 4.999724 -5 2.749724 -5 -0.000276497 " transform="matrix(1,0,0,1,9,800.597933)"/>
<path style="fill-rule:evenodd;fill:rgb(100%,100%,100%);fill-opacity:1;stroke-width:1;stroke-linecap:butt;stroke-linejoin:bevel;stroke:rgb(50.048876%,50.048876%,50.048876%);stroke-opacity:1;stroke-miterlimit:10;" d="M -5 -0.000822585 C -5 -2.750823 -2.75 -5.000823 0 -5.000823 C 2.75 -5.000823 5 -2.750823 5 -0.000822585 C 5 2.749177 2.75 4.999177 0 4.999177 C -2.75 4.999177 -5 2.749177 -5 -0.000822585 " transform="matrix(1,0,0,1,15.5,223.450041)"/>
<path style="fill-rule:evenodd;fill:rgb(100%,100%,100%);fill-opacity:1;stroke-width:1;stroke-linecap:butt;stroke-linejoin:bevel;stroke:rgb(50.048876%,50.048876%,50.048876%);stroke-opacity:1;stroke-miterlimit:10;" d="M -5 0.000572044 C -5 -2.749428 -2.75 -4.999428 0 -4.999428 C 2.75 -4.999428 5 -2.749428 5 0.000572044 C 5 2.750572 2.75 5.000572 0 5.000572 C -2.75 5.000572 -5 2.750572 -5 0.000572044 " transform="matrix(1,0,0,1,15.5,149.796303)"/>
<path style="fill-rule:evenodd;fill:rgb(100%,100%,100%);fill-opacity:1;stroke-width:1;stroke-linecap:butt;stroke-linejoin:bevel;stroke:rgb(50.048876%,50.048876%,50.048876%);stroke-opacity:1;stroke-miterlimit:10;" d="M -5 0.000168226 C -5 -2.749832 -2.75 -4.999832 0 -4.999832 C 2.75 -4.999832 5 -2.749832 5 0.000168226 C 5 2.750168 2.75 5.000168 0 5.000168 C -2.75 5.000168 -5 2.750168 -5 0.000168226 " transform="matrix(1,0,0,1,22,361.972488)"/>
<path style="fill-rule:evenodd;fill:rgb(100%,100%,100%);fill-opacity:1;stroke-width:1;stroke-linecap:butt;stroke-linejoin:bevel;stroke:rgb(50.048876%,50.048876%,50.048876%);stroke-opacity:1;stroke-miterlimit:10;" d="M -5 -0.000134383 C -5 -2.750134 -2.75 -5.000134 0 -5.000134 C 2.75 -5.000134 5 -2.750134 5 -0.000134383 C 5 2.749866 2.75 4.999866 0 4.999866 C -2.75 4.999866 -5 2.749866 -5 -0.000134383 " transform="matrix(1,0,0,1,9,287.687634)"/>
<path style="fill-rule:evenodd;fill:rgb(100%,100%,100%);fill-opacity:1;stroke-width:1;stroke-linecap:butt;stroke-linejoin:bevel;stroke:rgb(50.048876%,50.048876%,50.048876%);stroke-opacity:1;stroke-miterlimit:10;" d="M -5 -0.0000307852 C -5 -2.750031 -2.75 -5.000031 0 -5.000031 C 2.75 -5.000031 5 -2.750031 5 -0.0000307852 C 5 2.749969 2.75 4.999969 0 4.999969 C -2.75 4.999969 -5 2.749969 -5 -0.0000307852 " transform="matrix(1,0,0,1,9,600.546906)"/>
<path style="fill-rule:evenodd;fill:rgb(100%,100%,100%);fill-opacity:1;stroke-width:1;stroke-linecap:butt;stroke-linejoin:bevel;stroke:rgb(50.048876%,50.048876%,50.048876%);stroke-opacity:1;stroke-miterlimit:10;" d="M -5 0.000909982 C -5 -2.74909 -2.75 -4.99909 0 -4.99909 C 2.75 -4.99909 5 -2.74909 5 0.000909982 C 5 2.75091 2.75 5.00091 0 5.00091 C -2.75 5.00091 -5 2.75091 -5 0.000909982 " transform="matrix(1,0,0,1,9,491.338934)"/>
<path style="fill-rule:evenodd;fill:rgb(100%,100%,100%);fill-opacity:1;stroke-width:1;stroke-linecap:butt;stroke-linejoin:bevel;stroke:rgb(50.048876%,50.048876%,50.048876%);stroke-opacity:1;stroke-miterlimit:10;" d="M -5 -0.000815651 C -5 -2.750816 -2.75 -5.000816 0 -5.000816 C 2.75 -5.000816 5 -2.750816 5 -0.000815651 C 5 2.749184 2.75 4.999184 0 4.999184 C -2.75 4.999184 -5 2.749184 -5 -0.000815651 " transform="matrix(1,0,0,1,15.5,9.207847)"/>
<path style="fill-rule:evenodd;fill:rgb(100%,100%,100%);fill-opacity:1;stroke-width:1;stroke-linecap:butt;stroke-linejoin:bevel;stroke:rgb(50.048876%,50.048876%,50.048876%);stroke-opacity:1;stroke-miterlimit:10;" d="M -5 0.00135215 C -5 -2.748648 -2.75 -4.998648 0 -4.998648 C 2.75 -4.998648 5 -2.748648 5 0.00135215 C 5 2.751352 2.75 5.001352 0 5.001352 C -2.75 5.001352 -5 2.751352 -5 0.00135215 " transform="matrix(1,0,0,1,22,388.553335)"/>
<path style="fill-rule:evenodd;fill:rgb(100%,100%,100%);fill-opacity:1;stroke-width:1;stroke-linecap:butt;stroke-linejoin:bevel;stroke:rgb(50.048876%,50.048876%,50.048876%);stroke-opacity:1;stroke-miterlimit:10;" d="M -5 -0.00138992 C -5 -2.75139 -2.75 -5.00139 0 -5.00139 C 2.75 -5.00139 5 -2.75139 5 -0.00138992 C 5 2.74861 2.75 4.99861 0 4.99861 C -2.75 4.99861 -5 2.74861 -5 -0.00138992 " transform="matrix(1,0,0,1,9,520.950609)"/>
<path style="fill-rule:evenodd;fill:rgb(100%,100%,100%);fill-opacity:1;stroke-width:1;stroke-linecap:butt;stroke-linejoin:bevel;stroke:rgb(50.048876%,50.048876%,50.048876%);stroke-opacity:1;stroke-miterlimit:10;" d="M -5 0.000648814 C -5 -2.749351 -2.75 -4.999351 0 -4.999351 C 2.75 -4.999351 5 -2.749351 5 0.000648814 C 5 2.750649 2.75 5.000649 0 5.000649 C -2.75 5.000649 -5 2.750649 -5 0.000648814 " transform="matrix(1,0,0,1,9,631.061851)"/>
<path style="fill-rule:evenodd;fill:rgb(100%,100%,100%);fill-opacity:1;stroke-width:1;stroke-linecap:butt;stroke-linejoin:bevel;stroke:rgb(50.048876%,50.048876%,50.048876%);stroke-opacity:1;stroke-miterlimit:10;" d="M -5 0.00149674 C -5 -2.748503 -2.75 -4.998503 0 -4.998503 C 2.75 -4.998503 5 -2.748503 5 0.00149674 C 5 2.751497 2.75 5.001497 0 5.001497 C -2.75 5.001497 -5 2.751497 -5 0.00149674 " transform="matrix(1,0,0,1,15.5,56.611785)"/>
<path style="fill-rule:evenodd;fill:rgb(100%,100%,100%);fill-opacity:1;stroke-width:1;stroke-linecap:butt;stroke-linejoin:bevel;stroke:rgb(50.048876%,50.048876%,50.048876%);stroke-opacity:1;stroke-miterlimit:10;" d="M -5 -0.000808174 C -5 -2.750808 -2.75 -5.000808 0 -5.000808 C 2.75 -5.000808 5 -2.750808 5 -0.000808174 C 5 2.749192 2.75 4.999192 0 4.999192 C -2.75 4.999192 -5 2.749192 -5 -0.000808174 " transform="matrix(1,0,0,1,9,762.508621)"/>
<path style="fill-rule:evenodd;fill:rgb(100%,100%,100%);fill-opacity:1;stroke-width:1;stroke-linecap:butt;stroke-linejoin:bevel;stroke:rgb(50.048876%,50.048876%,50.048876%);stroke-opacity:1;stroke-miterlimit:10;" d="M -5 0.00133641 C -5 -2.748664 -2.75 -4.998664 0 -4.998664 C 2.75 -4.998664 5 -2.748664 5 0.00133641 C 5 2.751336 2.75 5.001336 0 5.001336 C -2.75 5.001336 -5 2.751336 -5 0.00133641 " transform="matrix(1,0,0,1,9,664.322882)"/>
<path style="fill-rule:evenodd;fill:rgb(50.048876%,50.048876%,50.048876%);fill-opacity:1;stroke-width:1;stroke-linecap:butt;stroke-linejoin:bevel;stroke:rgb(50.048876%,50.048876%,50.048876%);stroke-opacity:1;stroke-miterlimit:10;" d="M -5 0.000712106 C -5 -2.749288 -2.75 -4.999288 0 -4.999288 C 2.75 -4.999288 5 -2.749288 5 0.000712106 C 5 2.750712 2.75 5.000712 0 5.000712 C -2.75 5.000712 -5 2.750712 -5 0.000712106 " transform="matrix(1,0,0,1,15.5,276.0696)"/>
<path style="fill-rule:evenodd;fill:rgb(100%,100%,100%);fill-opacity:1;stroke-width:1;stroke-linecap:butt;stroke-linejoin:bevel;stroke:rgb(50.048876%,50.048876%,50.048876%);stroke-opacity:1;stroke-miterlimit:10;" d="M -5 0.00102682 C -5 -2.748973 -2.75 -4.998973 0 -4.998973 C 2.75 -4.998973 5 -2.748973 5 0.00102682 C 5 2.751027 2.75 5.001027 0 5.001027 C -2.75 5.001027 -5 2.751027 -5 0.00102682 " transform="matrix(1,0,0,1,9,827.260692)"/>
<path style="fill-rule:evenodd;fill:rgb(100%,100%,100%);fill-opacity:1;stroke-width:1;stroke-linecap:butt;stroke-linejoin:bevel;stroke:rgb(50.048876%,50.048876%,50.048876%);stroke-opacity:1;stroke-miterlimit:10;" d="M -5 -0.00106327 C -5 -2.751063 -2.75 -5.001063 0 -5.001063 C 2.75 -5.001063 5 -2.751063 5 -0.00106327 C 5 2.748937 2.75 4.998937 0 4.998937 C -2.75 4.998937 -5 2.748937 -5 -0.00106327 " transform="matrix(1,0,0,1,22,422.434657)"/>
<path style="fill-rule:evenodd;fill:rgb(100%,100%,100%);fill-opacity:1;stroke-width:1;stroke-linecap:butt;stroke-linejoin:bevel;stroke:rgb(50.048876%,50.048876%,50.048876%);stroke-opacity:1;stroke-miterlimit:10;" d="M -5 -0.000660449 C -5 -2.75066 -2.75 -5.00066 0 -5.00066 C 2.75 -5.00066 5 -2.75066 5 -0.000660449 C 5 2.74934 2.75 4.99934 0 4.99934 C -2.75 4.99934 -5 2.74934 -5 -0.000660449 " transform="matrix(1,0,0,1,9,541.320973)"/>
<path style="fill-rule:evenodd;fill:rgb(100%,100%,100%);fill-opacity:1;stroke-width:1;stroke-linecap:butt;stroke-linejoin:bevel;stroke:rgb(50.048876%,50.048876%,50.048876%);stroke-opacity:1;stroke-miterlimit:10;" d="M -5 0.00246452 C -5 -2.747535 -2.75 -4.997535 0 -4.997535 C 2.75 -4.997535 5 -2.747535 5 0.00246452 C 5 2.752465 2.75 5.002465 0 5.002465 C -2.75 5.002465 -5 2.752465 -5 0.00246452 " transform="matrix(1,0,0,1,15.5,189.036598)"/>
<path style="fill:none;stroke-width:1;stroke-linecap:butt;stroke-linejoin:bevel;stroke:rgb(50.048876%,50.048876%,50.048876%);stroke-opacity:1;stroke-miterlimit:10;" d="M 0 -437.292969 C 0 -418.589844 0 -418.589844 0 -399.886719 " transform="matrix(1,0,0,1,15.5,451.5)"/>
<path style="fill:none;stroke-width:1;stroke-linecap:butt;stroke-linejoin:bevel;stroke:rgb(50.048876%,50.048876%,50.048876%);stroke-opacity:1;stroke-miterlimit:10;" d="M 0 -389.886719 C 0 -372.128906 0 -372.128906 0 -354.371094 " transform="matrix(1,0,0,1,15.5,451.5)"/>
<path style="fill:none;stroke-width:1;stroke-linecap:butt;stroke-linejoin:bevel;stroke:rgb(50.048876%,50.048876%,50.048876%);stroke-opacity:1;stroke-miterlimit:10;" d="M 0 -344.371094 C 0 -325.535156 0 -325.535156 0 -306.703125 " transform="matrix(1,0,0,1,15.5,451.5)"/>
<path style="fill:none;stroke-width:1;stroke-linecap:butt;stroke-linejoin:bevel;stroke:rgb(50.048876%,50.048876%,50.048876%);stroke-opacity:1;stroke-miterlimit:10;" d="M 0 -296.703125 C 0 -282.082031 0 -282.082031 0 -267.464844 " transform="matrix(1,0,0,1,15.5,451.5)"/>
<path style="fill:none;stroke-width:1;stroke-linecap:butt;stroke-linejoin:bevel;stroke:rgb(50.048876%,50.048876%,50.048876%);stroke-opacity:1;stroke-miterlimit:10;" d="M 0 -257.464844 C 0 -245.257812 0 -245.257812 0 -233.050781 " transform="matrix(1,0,0,1,15.5,451.5)"/>
<path style="fill:none;stroke-width:1;stroke-linecap:butt;stroke-linejoin:bevel;stroke:rgb(50.048876%,50.048876%,50.048876%);stroke-opacity:1;stroke-miterlimit:10;" d="M 0 -223.050781 C 0 -207.550781 0 -207.550781 0 -192.046875 " transform="matrix(1,0,0,1,15.5,451.5)"/>
<path style="fill:none;stroke-width:1;stroke-linecap:butt;stroke-linejoin:bevel;stroke:rgb(50.048876%,50.048876%,50.048876%);stroke-opacity:1;stroke-miterlimit:10;" d="M 0 -182.046875 C 0 -181.238281 0 -181.238281 0 -180.429688 " transform="matrix(1,0,0,1,15.5,451.5)"/>
<path style="fill:none;stroke-width:1;stroke-linecap:butt;stroke-linejoin:bevel;stroke:rgb(50.048876%,50.048876%,50.048876%);stroke-opacity:1;stroke-miterlimit:10;" d="M 0 -170.429688 C 0 -169.621094 -7 -169.621094 -7 -168.8125 " transform="matrix(1,0,0,1,15.5,451.5)"/>
<path style="fill:none;stroke-width:1;stroke-linecap:butt;stroke-linejoin:bevel;stroke:rgb(50.048876%,50.048876%,50.048876%);stroke-opacity:1;stroke-miterlimit:10;" d="M 0 -170.429688 C 0 -152.382812 6 -152.382812 6 -134.332031 " transform="matrix(1,0,0,1,15.5,451.5)"/>
<path style="fill:none;stroke-width:1;stroke-linecap:butt;stroke-linejoin:bevel;stroke:rgb(50.048876%,50.048876%,50.048876%);stroke-opacity:1;stroke-miterlimit:10;" d="M 6 -124.332031 C 6 -109.429688 6 -109.429688 6 -94.527344 " transform="matrix(1,0,0,1,15.5,451.5)"/>
<path style="fill:none;stroke-width:1;stroke-linecap:butt;stroke-linejoin:bevel;stroke:rgb(50.048876%,50.048876%,50.048876%);stroke-opacity:1;stroke-miterlimit:10;" d="M 6 -84.527344 C 6 -76.238281 6 -76.238281 6 -67.945312 " transform="matrix(1,0,0,1,15.5,451.5)"/>
<path style="fill:none;stroke-width:1;stroke-linecap:butt;stroke-linejoin:bevel;stroke:rgb(50.048876%,50.048876%,50.048876%);stroke-opacity:1;stroke-miterlimit:10;" d="M 6 -57.945312 C 6 -46.007812 6 -46.007812 6 -34.066406 " transform="matrix(1,0,0,1,15.5,451.5)"/>
<path style="fill:none;stroke-width:1;stroke-linecap:butt;stroke-linejoin:bevel;stroke:rgb(50.048876%,50.048876%,50.048876%);stroke-opacity:0.4;stroke-dasharray:4;stroke-miterlimit:10;" d="M -7 -158.8125 C -7 -74.09375 -7 -74.09375 -7 10.625 " transform="matrix(1,0,0,1,15.5,451.5)"/>
<path style="fill:none;stroke-width:1;stroke-linecap:butt;stroke-linejoin:bevel;stroke:rgb(50.048876%,50.048876%,50.048876%);stroke-opacity:1;stroke-miterlimit:10;" d="M 6 -24.066406 C 6 -6.722656 -7 -6.722656 -7 10.625 " transform="matrix(1,0,0,1,15.5,451.5)"/>
<path style="fill:none;stroke-width:1;stroke-linecap:butt;stroke-linejoin:bevel;stroke:rgb(50.048876%,50.048876%,50.048876%);stroke-opacity:1;stroke-miterlimit:10;" d="M -7 20.625 C -7 27.730469 -7 27.730469 -7 34.839844 " transform="matrix(1,0,0,1,15.5,451.5)"/>
<path style="fill:none;stroke-width:1;stroke-linecap:butt;stroke-linejoin:bevel;stroke:rgb(50.048876%,50.048876%,50.048876%);stroke-opacity:1;stroke-miterlimit:10;" d="M -7 44.839844 C -7 54.644531 -7 54.644531 -7 64.449219 " transform="matrix(1,0,0,1,15.5,451.5)"/>
<path style="fill:none;stroke-width:1;stroke-linecap:butt;stroke-linejoin:bevel;stroke:rgb(50.048876%,50.048876%,50.048876%);stroke-opacity:1;stroke-miterlimit:10;" d="M -7 74.449219 C -7 79.636719 -7 79.636719 -7 84.820312 " transform="matrix(1,0,0,1,15.5,451.5)"/>
<path style="fill:none;stroke-width:1;stroke-linecap:butt;stroke-linejoin:bevel;stroke:rgb(50.048876%,50.048876%,50.048876%);stroke-opacity:1;stroke-miterlimit:10;" d="M -7 94.820312 C -7 100.09375 -7 100.09375 -7 105.367188 " transform="matrix(1,0,0,1,15.5,451.5)"/>
<path style="fill:none;stroke-width:1;stroke-linecap:butt;stroke-linejoin:bevel;stroke:rgb(50.048876%,50.048876%,50.048876%);stroke-opacity:1;stroke-miterlimit:10;" d="M -7 115.367188 C -7 129.707031 -7 129.707031 -7 144.046875 " transform="matrix(1,0,0,1,15.5,451.5)"/>
<path style="fill:none;stroke-width:1;stroke-linecap:butt;stroke-linejoin:bevel;stroke:rgb(50.048876%,50.048876%,50.048876%);stroke-opacity:1;stroke-miterlimit:10;" d="M -7 154.046875 C -7 164.304688 -7 164.304688 -7 174.5625 " transform="matrix(1,0,0,1,15.5,451.5)"/>
<path style="fill:none;stroke-width:1;stroke-linecap:butt;stroke-linejoin:bevel;stroke:rgb(50.048876%,50.048876%,50.048876%);stroke-opacity:1;stroke-miterlimit:10;" d="M -7 184.5625 C -7 196.191406 -7 196.191406 -7 207.824219 " transform="matrix(1,0,0,1,15.5,451.5)"/>
<path style="fill:none;stroke-width:1;stroke-linecap:butt;stroke-linejoin:bevel;stroke:rgb(50.048876%,50.048876%,50.048876%);stroke-opacity:1;stroke-miterlimit:10;" d="M -7 217.824219 C -7 231.382812 -7 231.382812 -7 244.941406 " transform="matrix(1,0,0,1,15.5,451.5)"/>
<path style="fill:none;stroke-width:1;stroke-linecap:butt;stroke-linejoin:bevel;stroke:rgb(50.048876%,50.048876%,50.048876%);stroke-opacity:1;stroke-miterlimit:10;" d="M -7 254.941406 C -7 267.398438 -7 267.398438 -7 279.855469 " transform="matrix(1,0,0,1,15.5,451.5)"/>
<path style="fill:none;stroke-width:1;stroke-linecap:butt;stroke-linejoin:bevel;stroke:rgb(50.048876%,50.048876%,50.048876%);stroke-opacity:1;stroke-miterlimit:10;" d="M -7 289.855469 C -7 297.933594 -7 297.933594 -7 306.007812 " transform="matrix(1,0,0,1,15.5,451.5)"/>
<path style="fill:none;stroke-width:1;stroke-linecap:butt;stroke-linejoin:bevel;stroke:rgb(50.048876%,50.048876%,50.048876%);stroke-opacity:1;stroke-miterlimit:10;" d="M -7 316.007812 C -7 330.054688 -7 330.054688 -7 344.097656 " transform="matrix(1,0,0,1,15.5,451.5)"/>
<path style="fill:none;stroke-width:1;stroke-linecap:butt;stroke-linejoin:bevel;stroke:rgb(50.048876%,50.048876%,50.048876%);stroke-opacity:1;stroke-miterlimit:10;" d="M -7 354.097656 C -7 362.429688 -7 362.429688 -7 370.761719 " transform="matrix(1,0,0,1,15.5,451.5)"/>
<path style="fill:none;stroke-width:1;stroke-linecap:butt;stroke-linejoin:bevel;stroke:rgb(50.048876%,50.048876%,50.048876%);stroke-opacity:1;stroke-miterlimit:10;" d="M -7 380.761719 C -7 392.195312 -7 392.195312 -7 403.632812 " transform="matrix(1,0,0,1,15.5,451.5)"/>
<path style="fill:none;stroke-width:1;stroke-linecap:butt;stroke-linejoin:bevel;stroke:rgb(50.048876%,50.048876%,50.048876%);stroke-opacity:1;stroke-miterlimit:10;" d="M -7 413.632812 C -7 419.398438 -7 419.398438 -7 425.164062 " transform="matrix(1,0,0,1,15.5,451.5)"/>
<path style="fill:none;stroke-width:1;stroke-linecap:butt;stroke-linejoin:bevel;stroke:rgb(50.048876%,50.048876%,50.048876%);stroke-opacity:1;stroke-miterlimit:10;" d="M -7 435.164062 C -7 436.226562 -7 436.226562 -7 437.292969 " transform="matrix(1,0,0,1,15.5,451.5)"/>
</g>
</svg>
