<?xml version="1.0" encoding="UTF-8"?>
<svg xmlns="http://www.w3.org/2000/svg" xmlns:xlink="http://www.w3.org/1999/xlink" width="31.472136pt" height="950.742591pt" viewBox="0 0 31.472136 950.742591" version="1.1">
<g id="surface7099">
<path style="fill-rule:evenodd;fill:rgb(100%,100%,100%);fill-opacity:1;stroke-width:1;stroke-linecap:butt;stroke-linejoin:bevel;stroke:rgb(50.048876%,50.048876%,50.048876%);stroke-opacity:1;stroke-miterlimit:10;" d="M -5 0.000747963 C -5 -2.749252 -2.75 -4.999252 0 -4.999252 C 2.75 -4.999252 5 -2.749252 5 0.000747963 C 5 2.750748 2.75 5.000748 0 5.000748 C -2.75 5.000748 -5 2.750748 -5 0.000747963 " transform="matrix(1,0,0,1,9,514.968002)"/>
<path style="fill-rule:evenodd;fill:rgb(100%,100%,100%);fill-opacity:1;stroke-width:1;stroke-linecap:butt;stroke-linejoin:bevel;stroke:rgb(50.048876%,50.048876%,50.048876%);stroke-opacity:1;stroke-miterlimit:10;" d="M -5 0.000637383 C -5 -2.749363 -2.75 -4.999363 0 -4.999363 C 2.75 -4.999363 5 -2.749363 5 0.000637383 C 5 2.750637 2.75 5.000637 0 5.000637 C -2.75 5.000637 -5 2.750637 -5 0.000637383 " transform="matrix(1,0,0,1,9,784.198581)"/>
<path style="fill-rule:evenodd;fill:rgb(100%,100%,100%);fill-opacity:1;stroke-width:1;stroke-linecap:butt;stroke-linejoin:bevel;stroke:rgb(50.048876%,50.048876%,50.048876%);stroke-opacity:1;stroke-miterlimit:10;" d="M -5 0.000509976 C -5 -2.74949 -2.75 -4.99949 0 -4.99949 C 2.75 -4.99949 5 -2.74949 5 0.000509976 C 5 2.75051 2.75 5.00051 0 5.00051 C -2.75 5.00051 -5 2.75051 -5 0.000509976 " transform="matrix(1,0,0,1,22,370.011209)"/>
<path style="fill-rule:evenodd;fill:rgb(100%,100%,100%);fill-opacity:1;stroke-width:1;stroke-linecap:butt;stroke-linejoin:bevel;stroke:rgb(50.048876%,50.048876%,50.048876%);stroke-opacity:1;stroke-miterlimit:10;" d="M -5 0.00223418 C -5 -2.747766 -2.75 -4.997766 0 -4.997766 C 2.75 -4.997766 5 -2.747766 5 0.00223418 C 5 2.752234 2.75 5.002234 0 5.002234 C -2.75 5.002234 -5 2.752234 -5 0.00223418 " transform="matrix(1,0,0,1,15.5,312.294641)"/>
<path style="fill-rule:evenodd;fill:rgb(100%,100%,100%);fill-opacity:1;stroke-width:1;stroke-linecap:butt;stroke-linejoin:bevel;stroke:rgb(50.048876%,50.048876%,50.048876%);stroke-opacity:1;stroke-miterlimit:10;" d="M -5 0.00149124 C -5 -2.748509 -2.75 -4.998509 0 -4.998509 C 2.75 -4.998509 5 -2.748509 5 0.00149124 C 5 2.751491 2.75 5.001491 0 5.001491 C -2.75 5.001491 -5 2.751491 -5 0.00149124 " transform="matrix(1,0,0,1,9,941.635228)"/>
<path style="fill-rule:evenodd;fill:rgb(100%,100%,100%);fill-opacity:1;stroke-width:1;stroke-linecap:butt;stroke-linejoin:bevel;stroke:rgb(50.048876%,50.048876%,50.048876%);stroke-opacity:1;stroke-miterlimit:10;" d="M -5 0.00167926 C -5 -2.748321 -2.75 -4.998321 0 -4.998321 C 2.75 -4.998321 5 -2.748321 5 0.00167926 C 5 2.751679 2.75 5.001679 0 5.001679 C -2.75 5.001679 -5 2.751679 -5 0.00167926 " transform="matrix(1,0,0,1,9,749.283477)"/>
<path style="fill-rule:evenodd;fill:rgb(100%,100%,100%);fill-opacity:1;stroke-width:1;stroke-linecap:butt;stroke-linejoin:bevel;stroke:rgb(50.048876%,50.048876%,50.048876%);stroke-opacity:1;stroke-miterlimit:10;" d="M -5 0.0000710741 C -5 -2.749929 -2.75 -4.999929 0 -4.999929 C 2.75 -4.999929 5 -2.749929 5 0.0000710741 C 5 2.750071 2.75 5.000071 0 5.000071 C -2.75 5.000071 -5 2.750071 -5 0.0000710741 " transform="matrix(1,0,0,1,9,907.976491)"/>
<path style="fill-rule:evenodd;fill:rgb(100%,100%,100%);fill-opacity:1;stroke-width:1;stroke-linecap:butt;stroke-linejoin:bevel;stroke:rgb(50.048876%,50.048876%,50.048876%);stroke-opacity:1;stroke-miterlimit:10;" d="M -5 0.00162086 C -5 -2.748379 -2.75 -4.998379 0 -4.998379 C 2.75 -4.998379 5 -2.748379 5 0.00162086 C 5 2.751621 2.75 5.001621 0 5.001621 C -2.75 5.001621 -5 2.751621 -5 0.00162086 " transform="matrix(1,0,0,1,9,609.709317)"/>
<path style="fill-rule:evenodd;fill:rgb(100%,100%,100%);fill-opacity:1;stroke-width:1;stroke-linecap:butt;stroke-linejoin:bevel;stroke:rgb(50.048876%,50.048876%,50.048876%);stroke-opacity:1;stroke-miterlimit:10;" d="M -5 0.0011393 C -5 -2.748861 -2.75 -4.998861 0 -4.998861 C 2.75 -4.998861 5 -2.748861 5 0.0011393 C 5 2.751139 2.75 5.001139 0 5.001139 C -2.75 5.001139 -5 2.751139 -5 0.0011393 " transform="matrix(1,0,0,1,9,929.506673)"/>
<path style="fill-rule:evenodd;fill:rgb(100%,100%,100%);fill-opacity:1;stroke-width:1;stroke-linecap:butt;stroke-linejoin:bevel;stroke:rgb(50.048876%,50.048876%,50.048876%);stroke-opacity:1;stroke-miterlimit:10;" d="M -5 0.00295109 C -5 -2.747049 -2.75 -4.997049 0 -4.997049 C 2.75 -4.997049 5 -2.747049 5 0.00295109 C 5 2.752951 2.75 5.002951 0 5.002951 C -2.75 5.002951 -5 2.752951 -5 0.00295109 " transform="matrix(1,0,0,1,15.5,149.973611)"/>
<path style="fill-rule:evenodd;fill:rgb(100%,100%,100%);fill-opacity:1;stroke-width:1;stroke-linecap:butt;stroke-linejoin:bevel;stroke:rgb(50.048876%,50.048876%,50.048876%);stroke-opacity:1;stroke-miterlimit:10;" d="M -5 0.00241501 C -5 -2.747585 -2.75 -4.997585 0 -4.997585 C 2.75 -4.997585 5 -2.747585 5 0.00241501 C 5 2.752415 2.75 5.002415 0 5.002415 C -2.75 5.002415 -5 2.752415 -5 0.00241501 " transform="matrix(1,0,0,1,15.5,9.364772)"/>
<path style="fill-rule:evenodd;fill:rgb(100%,100%,100%);fill-opacity:1;stroke-width:1;stroke-linecap:butt;stroke-linejoin:bevel;stroke:rgb(50.048876%,50.048876%,50.048876%);stroke-opacity:1;stroke-miterlimit:10;" d="M -5 0.000399091 C -5 -2.749601 -2.75 -4.999601 0 -4.999601 C 2.75 -4.999601 5 -2.749601 5 0.000399091 C 5 2.750399 2.75 5.000399 0 5.000399 C -2.75 5.000399 -5 2.750399 -5 0.000399091 " transform="matrix(1,0,0,1,9,848.441007)"/>
<path style="fill-rule:evenodd;fill:rgb(100%,100%,100%);fill-opacity:1;stroke-width:1;stroke-linecap:butt;stroke-linejoin:bevel;stroke:rgb(50.048876%,50.048876%,50.048876%);stroke-opacity:1;stroke-miterlimit:10;" d="M -5 -0.000146997 C -5 -2.750147 -2.75 -5.000147 0 -5.000147 C 2.75 -5.000147 5 -2.750147 5 -0.000146997 C 5 2.749853 2.75 4.999853 0 4.999853 C -2.75 4.999853 -5 2.749853 -5 -0.000146997 " transform="matrix(1,0,0,1,15.5,271.293116)"/>
<path style="fill-rule:evenodd;fill:rgb(100%,100%,100%);fill-opacity:1;stroke-width:1;stroke-linecap:butt;stroke-linejoin:bevel;stroke:rgb(50.048876%,50.048876%,50.048876%);stroke-opacity:1;stroke-miterlimit:10;" d="M -5 0.00124763 C -5 -2.748752 -2.75 -4.998752 0 -4.998752 C 2.75 -4.998752 5 -2.748752 5 0.00124763 C 5 2.751248 2.75 5.001248 0 5.001248 C -2.75 5.001248 -5 2.751248 -5 0.00124763 " transform="matrix(1,0,0,1,15.5,197.639377)"/>
<path style="fill-rule:evenodd;fill:rgb(100%,100%,100%);fill-opacity:1;stroke-width:1;stroke-linecap:butt;stroke-linejoin:bevel;stroke:rgb(50.048876%,50.048876%,50.048876%);stroke-opacity:1;stroke-miterlimit:10;" d="M -5 0.000843814 C -5 -2.749156 -2.75 -4.999156 0 -4.999156 C 2.75 -4.999156 5 -2.749156 5 0.000843814 C 5 2.750844 2.75 5.000844 0 5.000844 C -2.75 5.000844 -5 2.750844 -5 0.000843814 " transform="matrix(1,0,0,1,22,409.815562)"/>
<path style="fill-rule:evenodd;fill:rgb(100%,100%,100%);fill-opacity:1;stroke-width:1;stroke-linecap:butt;stroke-linejoin:bevel;stroke:rgb(50.048876%,50.048876%,50.048876%);stroke-opacity:1;stroke-miterlimit:10;" d="M -5 0.000541205 C -5 -2.749459 -2.75 -4.999459 0 -4.999459 C 2.75 -4.999459 5 -2.749459 5 0.000541205 C 5 2.750541 2.75 5.000541 0 5.000541 C -2.75 5.000541 -5 2.750541 -5 0.000541205 " transform="matrix(1,0,0,1,9,335.530709)"/>
<path style="fill-rule:evenodd;fill:rgb(100%,100%,100%);fill-opacity:1;stroke-width:1;stroke-linecap:butt;stroke-linejoin:bevel;stroke:rgb(50.048876%,50.048876%,50.048876%);stroke-opacity:1;stroke-miterlimit:10;" d="M -5 -0.000140063 C -5 -2.75014 -2.75 -5.00014 0 -5.00014 C 2.75 -5.00014 5 -2.75014 5 -0.000140063 C 5 2.74986 2.75 4.99986 0 4.99986 C -2.75 4.99986 -5 2.74986 -5 -0.000140063 " transform="matrix(1,0,0,1,15.5,57.050921)"/>
<path style="fill-rule:evenodd;fill:rgb(100%,100%,100%);fill-opacity:1;stroke-width:1;stroke-linecap:butt;stroke-linejoin:bevel;stroke:rgb(50.048876%,50.048876%,50.048876%);stroke-opacity:1;stroke-miterlimit:10;" d="M -5 0.00158557 C -5 -2.748414 -2.75 -4.998414 0 -4.998414 C 2.75 -4.998414 5 -2.748414 5 0.00158557 C 5 2.751586 2.75 5.001586 0 5.001586 C -2.75 5.001586 -5 2.751586 -5 0.00158557 " transform="matrix(1,0,0,1,9,539.182008)"/>
<path style="fill-rule:evenodd;fill:rgb(100%,100%,100%);fill-opacity:1;stroke-width:1;stroke-linecap:butt;stroke-linejoin:bevel;stroke:rgb(50.048876%,50.048876%,50.048876%);stroke-opacity:1;stroke-miterlimit:10;" d="M -5 -0.00187851 C -5 -2.751879 -2.75 -5.001879 0 -5.001879 C 2.75 -5.001879 5 -2.751879 5 -0.00187851 C 5 2.748121 2.75 4.998121 0 4.998121 C -2.75 4.998121 -5 2.748121 -5 -0.00187851 " transform="matrix(1,0,0,1,22,436.39641)"/>
<path style="fill-rule:evenodd;fill:rgb(100%,100%,100%);fill-opacity:1;stroke-width:1;stroke-linecap:butt;stroke-linejoin:bevel;stroke:rgb(50.048876%,50.048876%,50.048876%);stroke-opacity:1;stroke-miterlimit:10;" d="M -5 0.000644803 C -5 -2.749355 -2.75 -4.999355 0 -4.999355 C 2.75 -4.999355 5 -2.749355 5 0.000644803 C 5 2.750645 2.75 5.000645 0 5.000645 C -2.75 5.000645 -5 2.750645 -5 0.000644803 " transform="matrix(1,0,0,1,9,648.38998)"/>
<path style="fill-rule:evenodd;fill:rgb(100%,100%,100%);fill-opacity:1;stroke-width:1;stroke-linecap:butt;stroke-linejoin:bevel;stroke:rgb(50.048876%,50.048876%,50.048876%);stroke-opacity:1;stroke-miterlimit:10;" d="M -5 -0.000714336 C -5 -2.750714 -2.75 -5.000714 0 -5.000714 C 2.75 -5.000714 5 -2.750714 5 -0.000714336 C 5 2.749286 2.75 4.999286 0 4.999286 C -2.75 4.999286 -5 2.749286 -5 -0.000714336 " transform="matrix(1,0,0,1,9,568.793683)"/>
<path style="fill-rule:evenodd;fill:rgb(100%,100%,100%);fill-opacity:1;stroke-width:1;stroke-linecap:butt;stroke-linejoin:bevel;stroke:rgb(50.048876%,50.048876%,50.048876%);stroke-opacity:1;stroke-miterlimit:10;" d="M -5 0.0013244 C -5 -2.748676 -2.75 -4.998676 0 -4.998676 C 2.75 -4.998676 5 -2.748676 5 0.0013244 C 5 2.751324 2.75 5.001324 0 5.001324 C -2.75 5.001324 -5 2.751324 -5 0.0013244 " transform="matrix(1,0,0,1,9,678.904926)"/>
<path style="fill-rule:evenodd;fill:rgb(100%,100%,100%);fill-opacity:1;stroke-width:1;stroke-linecap:butt;stroke-linejoin:bevel;stroke:rgb(50.048876%,50.048876%,50.048876%);stroke-opacity:1;stroke-miterlimit:10;" d="M -5 0.00217233 C -5 -2.747828 -2.75 -4.997828 0 -4.997828 C 2.75 -4.997828 5 -2.747828 5 0.00217233 C 5 2.752172 2.75 5.002172 0 5.002172 C -2.75 5.002172 -5 2.752172 -5 0.00217233 " transform="matrix(1,0,0,1,15.5,104.454859)"/>
<path style="fill-rule:evenodd;fill:rgb(100%,100%,100%);fill-opacity:1;stroke-width:1;stroke-linecap:butt;stroke-linejoin:bevel;stroke:rgb(50.048876%,50.048876%,50.048876%);stroke-opacity:1;stroke-miterlimit:10;" d="M -5 -0.000132586 C -5 -2.750133 -2.75 -5.000133 0 -5.000133 C 2.75 -5.000133 5 -2.750133 5 -0.000132586 C 5 2.749867 2.75 4.999867 0 4.999867 C -2.75 4.999867 -5 2.749867 -5 -0.000132586 " transform="matrix(1,0,0,1,9,810.351695)"/>
<path style="fill-rule:evenodd;fill:rgb(100%,100%,100%);fill-opacity:1;stroke-width:1;stroke-linecap:butt;stroke-linejoin:bevel;stroke:rgb(50.048876%,50.048876%,50.048876%);stroke-opacity:1;stroke-miterlimit:10;" d="M -5 -0.00189425 C -5 -2.751894 -2.75 -5.001894 0 -5.001894 C 2.75 -5.001894 5 -2.751894 5 -0.00189425 C 5 2.748106 2.75 4.998106 0 4.998106 C -2.75 4.998106 -5 2.748106 -5 -0.00189425 " transform="matrix(1,0,0,1,9,712.165957)"/>
<path style="fill-rule:evenodd;fill:rgb(50.048876%,50.048876%,50.048876%);fill-opacity:1;stroke-width:1;stroke-linecap:butt;stroke-linejoin:bevel;stroke:rgb(50.048876%,50.048876%,50.048876%);stroke-opacity:1;stroke-miterlimit:10;" d="M -5 0.00138769 C -5 -2.748612 -2.75 -4.998612 0 -4.998612 C 2.75 -4.998612 5 -2.748612 5 0.00138769 C 5 2.751388 2.75 5.001388 0 5.001388 C -2.75 5.001388 -5 2.751388 -5 0.00138769 " transform="matrix(1,0,0,1,15.5,323.912675)"/>
<path style="fill-rule:evenodd;fill:rgb(100%,100%,100%);fill-opacity:1;stroke-width:1;stroke-linecap:butt;stroke-linejoin:bevel;stroke:rgb(50.048876%,50.048876%,50.048876%);stroke-opacity:1;stroke-miterlimit:10;" d="M -5 0.00170241 C -5 -2.748298 -2.75 -4.998298 0 -4.998298 C 2.75 -4.998298 5 -2.748298 5 0.00170241 C 5 2.751702 2.75 5.001702 0 5.001702 C -2.75 5.001702 -5 2.751702 -5 0.00170241 " transform="matrix(1,0,0,1,9,875.103766)"/>
<path style="fill-rule:evenodd;fill:rgb(100%,100%,100%);fill-opacity:1;stroke-width:1;stroke-linecap:butt;stroke-linejoin:bevel;stroke:rgb(50.048876%,50.048876%,50.048876%);stroke-opacity:1;stroke-miterlimit:10;" d="M -5 -0.000387677 C -5 -2.750388 -2.75 -5.000388 0 -5.000388 C 2.75 -5.000388 5 -2.750388 5 -0.000387677 C 5 2.749612 2.75 4.999612 0 4.999612 C -2.75 4.999612 -5 2.749612 -5 -0.000387677 " transform="matrix(1,0,0,1,22,470.277731)"/>
<path style="fill-rule:evenodd;fill:rgb(100%,100%,100%);fill-opacity:1;stroke-width:1;stroke-linecap:butt;stroke-linejoin:bevel;stroke:rgb(50.048876%,50.048876%,50.048876%);stroke-opacity:1;stroke-miterlimit:10;" d="M -5 0.0000151391 C -5 -2.749985 -2.75 -4.999985 0 -4.999985 C 2.75 -4.999985 5 -2.749985 5 0.0000151391 C 5 2.750015 2.75 5.000015 0 5.000015 C -2.75 5.000015 -5 2.750015 -5 0.0000151391 " transform="matrix(1,0,0,1,9,589.164047)"/>
<path style="fill-rule:evenodd;fill:rgb(100%,100%,100%);fill-opacity:1;stroke-width:1;stroke-linecap:butt;stroke-linejoin:bevel;stroke:rgb(50.048876%,50.048876%,50.048876%);stroke-opacity:1;stroke-miterlimit:10;" d="M -5 0.00314011 C -5 -2.74686 -2.75 -4.99686 0 -4.99686 C 2.75 -4.99686 5 -2.74686 5 0.00314011 C 5 2.75314 2.75 5.00314 0 5.00314 C -2.75 5.00314 -5 2.75314 -5 0.00314011 " transform="matrix(1,0,0,1,15.5,236.879672)"/>
<path style="fill:none;stroke-width:1;stroke-linecap:butt;stroke-linejoin:bevel;stroke:rgb(50.048876%,50.048876%,50.048876%);stroke-opacity:1;stroke-miterlimit:10;" d="M 0 -461.136719 C 0 -442.292969 0 -442.292969 0 -423.449219 " transform="matrix(1,0,0,1,15.5,475.5)"/>
<path style="fill:none;stroke-width:1;stroke-linecap:butt;stroke-linejoin:bevel;stroke:rgb(50.048876%,50.048876%,50.048876%);stroke-opacity:1;stroke-miterlimit:10;" d="M 0 -413.449219 C 0 -394.746094 0 -394.746094 0 -376.046875 " transform="matrix(1,0,0,1,15.5,475.5)"/>
<path style="fill:none;stroke-width:1;stroke-linecap:butt;stroke-linejoin:bevel;stroke:rgb(50.048876%,50.048876%,50.048876%);stroke-opacity:1;stroke-miterlimit:10;" d="M 0 -366.046875 C 0 -348.285156 0 -348.285156 0 -330.527344 " transform="matrix(1,0,0,1,15.5,475.5)"/>
<path style="fill:none;stroke-width:1;stroke-linecap:butt;stroke-linejoin:bevel;stroke:rgb(50.048876%,50.048876%,50.048876%);stroke-opacity:1;stroke-miterlimit:10;" d="M 0 -320.527344 C 0 -301.695312 0 -301.695312 0 -282.859375 " transform="matrix(1,0,0,1,15.5,475.5)"/>
<path style="fill:none;stroke-width:1;stroke-linecap:butt;stroke-linejoin:bevel;stroke:rgb(50.048876%,50.048876%,50.048876%);stroke-opacity:1;stroke-miterlimit:10;" d="M 0 -272.859375 C 0 -258.242188 0 -258.242188 0 -243.621094 " transform="matrix(1,0,0,1,15.5,475.5)"/>
<path style="fill:none;stroke-width:1;stroke-linecap:butt;stroke-linejoin:bevel;stroke:rgb(50.048876%,50.048876%,50.048876%);stroke-opacity:1;stroke-miterlimit:10;" d="M 0 -233.621094 C 0 -221.414062 0 -221.414062 0 -209.207031 " transform="matrix(1,0,0,1,15.5,475.5)"/>
<path style="fill:none;stroke-width:1;stroke-linecap:butt;stroke-linejoin:bevel;stroke:rgb(50.048876%,50.048876%,50.048876%);stroke-opacity:1;stroke-miterlimit:10;" d="M 0 -199.207031 C 0 -183.707031 0 -183.707031 0 -168.207031 " transform="matrix(1,0,0,1,15.5,475.5)"/>
<path style="fill:none;stroke-width:1;stroke-linecap:butt;stroke-linejoin:bevel;stroke:rgb(50.048876%,50.048876%,50.048876%);stroke-opacity:1;stroke-miterlimit:10;" d="M 0 -158.207031 C 0 -157.394531 0 -157.394531 0 -156.585938 " transform="matrix(1,0,0,1,15.5,475.5)"/>
<path style="fill:none;stroke-width:1;stroke-linecap:butt;stroke-linejoin:bevel;stroke:rgb(50.048876%,50.048876%,50.048876%);stroke-opacity:1;stroke-miterlimit:10;" d="M 0 -146.589844 C 0 -145.78125 -7 -145.78125 -7 -144.972656 " transform="matrix(1,0,0,1,15.5,475.5)"/>
<path style="fill:none;stroke-width:1;stroke-linecap:butt;stroke-linejoin:bevel;stroke:rgb(50.048876%,50.048876%,50.048876%);stroke-opacity:1;stroke-miterlimit:10;" d="M 0 -146.585938 C 0 -128.539062 6 -128.539062 6 -110.488281 " transform="matrix(1,0,0,1,15.5,475.5)"/>
<path style="fill:none;stroke-width:1;stroke-linecap:butt;stroke-linejoin:bevel;stroke:rgb(50.048876%,50.048876%,50.048876%);stroke-opacity:1;stroke-miterlimit:10;" d="M 6 -100.488281 C 6 -85.585938 6 -85.585938 6 -70.683594 " transform="matrix(1,0,0,1,15.5,475.5)"/>
<path style="fill:none;stroke-width:1;stroke-linecap:butt;stroke-linejoin:bevel;stroke:rgb(50.048876%,50.048876%,50.048876%);stroke-opacity:1;stroke-miterlimit:10;" d="M 6 -60.683594 C 6 -52.394531 6 -52.394531 6 -44.105469 " transform="matrix(1,0,0,1,15.5,475.5)"/>
<path style="fill:none;stroke-width:1;stroke-linecap:butt;stroke-linejoin:bevel;stroke:rgb(50.048876%,50.048876%,50.048876%);stroke-opacity:1;stroke-miterlimit:10;" d="M 6 -34.105469 C 6 -22.164062 6 -22.164062 6 -10.222656 " transform="matrix(1,0,0,1,15.5,475.5)"/>
<path style="fill:none;stroke-width:1;stroke-linecap:butt;stroke-linejoin:bevel;stroke:rgb(50.048876%,50.048876%,50.048876%);stroke-opacity:0.4;stroke-dasharray:4;stroke-miterlimit:10;" d="M -7 -134.972656 C -7 -50.253906 -7 -50.253906 -7 34.464844 " transform="matrix(1,0,0,1,15.5,475.5)"/>
<path style="fill:none;stroke-width:1;stroke-linecap:butt;stroke-linejoin:bevel;stroke:rgb(50.048876%,50.048876%,50.048876%);stroke-opacity:1;stroke-miterlimit:10;" d="M 6 -0.222656 C 6 17.121094 -7 17.121094 -7 34.46875 " transform="matrix(1,0,0,1,15.5,475.5)"/>
<path style="fill:none;stroke-width:1;stroke-linecap:butt;stroke-linejoin:bevel;stroke:rgb(50.048876%,50.048876%,50.048876%);stroke-opacity:1;stroke-miterlimit:10;" d="M -7 44.46875 C -7 51.574219 -7 51.574219 -7 58.683594 " transform="matrix(1,0,0,1,15.5,475.5)"/>
<path style="fill:none;stroke-width:1;stroke-linecap:butt;stroke-linejoin:bevel;stroke:rgb(50.048876%,50.048876%,50.048876%);stroke-opacity:1;stroke-miterlimit:10;" d="M -7 68.683594 C -7 78.488281 -7 78.488281 -7 88.292969 " transform="matrix(1,0,0,1,15.5,475.5)"/>
<path style="fill:none;stroke-width:1;stroke-linecap:butt;stroke-linejoin:bevel;stroke:rgb(50.048876%,50.048876%,50.048876%);stroke-opacity:1;stroke-miterlimit:10;" d="M -7 98.292969 C -7 103.480469 -7 103.480469 -7 108.664062 " transform="matrix(1,0,0,1,15.5,475.5)"/>
<path style="fill:none;stroke-width:1;stroke-linecap:butt;stroke-linejoin:bevel;stroke:rgb(50.048876%,50.048876%,50.048876%);stroke-opacity:1;stroke-miterlimit:10;" d="M -7 118.664062 C -7 123.9375 -7 123.9375 -7 129.210938 " transform="matrix(1,0,0,1,15.5,475.5)"/>
<path style="fill:none;stroke-width:1;stroke-linecap:butt;stroke-linejoin:bevel;stroke:rgb(50.048876%,50.048876%,50.048876%);stroke-opacity:1;stroke-miterlimit:10;" d="M -7 139.210938 C -7 153.550781 -7 153.550781 -7 167.890625 " transform="matrix(1,0,0,1,15.5,475.5)"/>
<path style="fill:none;stroke-width:1;stroke-linecap:butt;stroke-linejoin:bevel;stroke:rgb(50.048876%,50.048876%,50.048876%);stroke-opacity:1;stroke-miterlimit:10;" d="M -7 177.890625 C -7 188.148438 -7 188.148438 -7 198.40625 " transform="matrix(1,0,0,1,15.5,475.5)"/>
<path style="fill:none;stroke-width:1;stroke-linecap:butt;stroke-linejoin:bevel;stroke:rgb(50.048876%,50.048876%,50.048876%);stroke-opacity:1;stroke-miterlimit:10;" d="M -7 208.40625 C -7 220.035156 -7 220.035156 -7 231.664062 " transform="matrix(1,0,0,1,15.5,475.5)"/>
<path style="fill:none;stroke-width:1;stroke-linecap:butt;stroke-linejoin:bevel;stroke:rgb(50.048876%,50.048876%,50.048876%);stroke-opacity:1;stroke-miterlimit:10;" d="M -7 241.664062 C -7 255.226562 -7 255.226562 -7 268.785156 " transform="matrix(1,0,0,1,15.5,475.5)"/>
<path style="fill:none;stroke-width:1;stroke-linecap:butt;stroke-linejoin:bevel;stroke:rgb(50.048876%,50.048876%,50.048876%);stroke-opacity:1;stroke-miterlimit:10;" d="M -7 278.785156 C -7 291.242188 -7 291.242188 -7 303.699219 " transform="matrix(1,0,0,1,15.5,475.5)"/>
<path style="fill:none;stroke-width:1;stroke-linecap:butt;stroke-linejoin:bevel;stroke:rgb(50.048876%,50.048876%,50.048876%);stroke-opacity:1;stroke-miterlimit:10;" d="M -7 313.699219 C -7 321.773438 -7 321.773438 -7 329.851562 " transform="matrix(1,0,0,1,15.5,475.5)"/>
<path style="fill:none;stroke-width:1;stroke-linecap:butt;stroke-linejoin:bevel;stroke:rgb(50.048876%,50.048876%,50.048876%);stroke-opacity:1;stroke-miterlimit:10;" d="M -7 339.851562 C -7 353.894531 -7 353.894531 -7 367.941406 " transform="matrix(1,0,0,1,15.5,475.5)"/>
<path style="fill:none;stroke-width:1;stroke-linecap:butt;stroke-linejoin:bevel;stroke:rgb(50.048876%,50.048876%,50.048876%);stroke-opacity:1;stroke-miterlimit:10;" d="M -7 377.941406 C -7 386.273438 -7 386.273438 -7 394.605469 " transform="matrix(1,0,0,1,15.5,475.5)"/>
<path style="fill:none;stroke-width:1;stroke-linecap:butt;stroke-linejoin:bevel;stroke:rgb(50.048876%,50.048876%,50.048876%);stroke-opacity:1;stroke-miterlimit:10;" d="M -7 404.605469 C -7 416.039062 -7 416.039062 -7 427.476562 " transform="matrix(1,0,0,1,15.5,475.5)"/>
<path style="fill:none;stroke-width:1;stroke-linecap:butt;stroke-linejoin:bevel;stroke:rgb(50.048876%,50.048876%,50.048876%);stroke-opacity:1;stroke-miterlimit:10;" d="M -7 437.476562 C -7 443.242188 -7 443.242188 -7 449.007812 " transform="matrix(1,0,0,1,15.5,475.5)"/>
<path style="fill:none;stroke-width:1;stroke-linecap:butt;stroke-linejoin:bevel;stroke:rgb(50.048876%,50.048876%,50.048876%);stroke-opacity:1;stroke-miterlimit:10;" d="M -7 459.007812 C -7 460.070312 -7 460.070312 -7 461.136719 " transform="matrix(1,0,0,1,15.5,475.5)"/>
</g>
</svg>
