<?xml version="1.0" encoding="UTF-8"?>
<svg xmlns="http://www.w3.org/2000/svg" xmlns:xlink="http://www.w3.org/1999/xlink" width="29.472136pt" height="760.467986pt" viewBox="0 0 29.472136 760.467986" version="1.1">
<g id="surface1347481">
<path style="fill-rule:evenodd;fill:rgb(100%,100%,100%);fill-opacity:1;stroke-width:1;stroke-linecap:butt;stroke-linejoin:bevel;stroke:rgb(50.048876%,50.048876%,50.048876%);stroke-opacity:1;stroke-miterlimit:10;" d="M -5 -0.0025746 C -5 -2.752575 -2.75 -5.002575 0 -5.002575 C 2.75 -5.002575 5 -2.752575 5 -0.0025746 C 5 2.747425 2.75 4.997425 0 4.997425 C -2.75 4.997425 -5 2.747425 -5 -0.0025746 " transform="matrix(1,0,0,1,8,325.3307)"/>
<path style="fill-rule:evenodd;fill:rgb(100%,100%,100%);fill-opacity:1;stroke-width:1;stroke-linecap:butt;stroke-linejoin:bevel;stroke:rgb(50.048876%,50.048876%,50.048876%);stroke-opacity:1;stroke-miterlimit:10;" d="M -5 0.00122107 C -5 -2.748779 -2.75 -4.998779 0 -4.998779 C 2.75 -4.998779 5 -2.748779 5 0.00122107 C 5 2.751221 2.75 5.001221 0 5.001221 C -2.75 5.001221 -5 2.751221 -5 0.00122107 " transform="matrix(1,0,0,1,8,594.561279)"/>
<path style="fill-rule:evenodd;fill:rgb(100%,100%,100%);fill-opacity:1;stroke-width:1;stroke-linecap:butt;stroke-linejoin:bevel;stroke:rgb(50.048876%,50.048876%,50.048876%);stroke-opacity:1;stroke-miterlimit:10;" d="M -5 0.00109367 C -5 -2.748906 -2.75 -4.998906 0 -4.998906 C 2.75 -4.998906 5 -2.748906 5 0.00109367 C 5 2.751094 2.75 5.001094 0 5.001094 C -2.75 5.001094 -5 2.751094 -5 0.00109367 " transform="matrix(1,0,0,1,21,180.373906)"/>
<path style="fill-rule:evenodd;fill:rgb(100%,100%,100%);fill-opacity:1;stroke-width:1;stroke-linecap:butt;stroke-linejoin:bevel;stroke:rgb(50.048876%,50.048876%,50.048876%);stroke-opacity:1;stroke-miterlimit:10;" d="M -5 -0.00108838 C -5 -2.751088 -2.75 -5.001088 0 -5.001088 C 2.75 -5.001088 5 -2.751088 5 -0.00108838 C 5 2.748912 2.75 4.998912 0 4.998912 C -2.75 4.998912 -5 2.748912 -5 -0.00108838 " transform="matrix(1,0,0,1,14.5,122.657338)"/>
<path style="fill-rule:evenodd;fill:rgb(100%,100%,100%);fill-opacity:1;stroke-width:1;stroke-linecap:butt;stroke-linejoin:bevel;stroke:rgb(50.048876%,50.048876%,50.048876%);stroke-opacity:1;stroke-miterlimit:10;" d="M -5 -0.00183132 C -5 -2.751831 -2.75 -5.001831 0 -5.001831 C 2.75 -5.001831 5 -2.751831 5 -0.00183132 C 5 2.748169 2.75 4.998169 0 4.998169 C -2.75 4.998169 -5 2.748169 -5 -0.00183132 " transform="matrix(1,0,0,1,8,751.997925)"/>
<path style="fill-rule:evenodd;fill:rgb(100%,100%,100%);fill-opacity:1;stroke-width:1;stroke-linecap:butt;stroke-linejoin:bevel;stroke:rgb(50.048876%,50.048876%,50.048876%);stroke-opacity:1;stroke-miterlimit:10;" d="M -5 -0.0016433 C -5 -2.751643 -2.75 -5.001643 0 -5.001643 C 2.75 -5.001643 5 -2.751643 5 -0.0016433 C 5 2.748357 2.75 4.998357 0 4.998357 C -2.75 4.998357 -5 2.748357 -5 -0.0016433 " transform="matrix(1,0,0,1,8,559.646175)"/>
<path style="fill-rule:evenodd;fill:rgb(100%,100%,100%);fill-opacity:1;stroke-width:1;stroke-linecap:butt;stroke-linejoin:bevel;stroke:rgb(50.048876%,50.048876%,50.048876%);stroke-opacity:1;stroke-miterlimit:10;" d="M -5 0.000654764 C -5 -2.749345 -2.75 -4.999345 0 -4.999345 C 2.75 -4.999345 5 -2.749345 5 0.000654764 C 5 2.750655 2.75 5.000655 0 5.000655 C -2.75 5.000655 -5 2.750655 -5 0.000654764 " transform="matrix(1,0,0,1,8,718.339189)"/>
<path style="fill-rule:evenodd;fill:rgb(100%,100%,100%);fill-opacity:1;stroke-width:1;stroke-linecap:butt;stroke-linejoin:bevel;stroke:rgb(50.048876%,50.048876%,50.048876%);stroke-opacity:1;stroke-miterlimit:10;" d="M -5 -0.0017017 C -5 -2.751702 -2.75 -5.001702 0 -5.001702 C 2.75 -5.001702 5 -2.751702 5 -0.0017017 C 5 2.748298 2.75 4.998298 0 4.998298 C -2.75 4.998298 -5 2.748298 -5 -0.0017017 " transform="matrix(1,0,0,1,8,420.072014)"/>
<path style="fill-rule:evenodd;fill:rgb(100%,100%,100%);fill-opacity:1;stroke-width:1;stroke-linecap:butt;stroke-linejoin:bevel;stroke:rgb(50.048876%,50.048876%,50.048876%);stroke-opacity:1;stroke-miterlimit:10;" d="M -5 0.00172299 C -5 -2.748277 -2.75 -4.998277 0 -4.998277 C 2.75 -4.998277 5 -2.748277 5 0.00172299 C 5 2.751723 2.75 5.001723 0 5.001723 C -2.75 5.001723 -5 2.751723 -5 0.00172299 " transform="matrix(1,0,0,1,8,739.869371)"/>
<path style="fill-rule:evenodd;fill:rgb(100%,100%,100%);fill-opacity:1;stroke-width:1;stroke-linecap:butt;stroke-linejoin:bevel;stroke:rgb(50.048876%,50.048876%,50.048876%);stroke-opacity:1;stroke-miterlimit:10;" d="M -5 0.000982781 C -5 -2.749017 -2.75 -4.999017 0 -4.999017 C 2.75 -4.999017 5 -2.749017 5 0.000982781 C 5 2.750983 2.75 5.000983 0 5.000983 C -2.75 5.000983 -5 2.750983 -5 0.000982781 " transform="matrix(1,0,0,1,8,658.803705)"/>
<path style="fill-rule:evenodd;fill:rgb(100%,100%,100%);fill-opacity:1;stroke-width:1;stroke-linecap:butt;stroke-linejoin:bevel;stroke:rgb(50.048876%,50.048876%,50.048876%);stroke-opacity:1;stroke-miterlimit:10;" d="M -5 -0.00346956 C -5 -2.75347 -2.75 -5.00347 0 -5.00347 C 2.75 -5.00347 5 -2.75347 5 -0.00346956 C 5 2.74653 2.75 4.99653 0 4.99653 C -2.75 4.99653 -5 2.74653 -5 -0.00346956 " transform="matrix(1,0,0,1,14.5,81.655813)"/>
<path style="fill-rule:evenodd;fill:rgb(100%,100%,100%);fill-opacity:1;stroke-width:1;stroke-linecap:butt;stroke-linejoin:bevel;stroke:rgb(50.048876%,50.048876%,50.048876%);stroke-opacity:1;stroke-miterlimit:10;" d="M -5 -0.00207493 C -5 -2.752075 -2.75 -5.002075 0 -5.002075 C 2.75 -5.002075 5 -2.752075 5 -0.00207493 C 5 2.747925 2.75 4.997925 0 4.997925 C -2.75 4.997925 -5 2.747925 -5 -0.00207493 " transform="matrix(1,0,0,1,14.5,8.002075)"/>
<path style="fill-rule:evenodd;fill:rgb(100%,100%,100%);fill-opacity:1;stroke-width:1;stroke-linecap:butt;stroke-linejoin:bevel;stroke:rgb(50.048876%,50.048876%,50.048876%);stroke-opacity:1;stroke-miterlimit:10;" d="M -5 0.0014275 C -5 -2.748572 -2.75 -4.998572 0 -4.998572 C 2.75 -4.998572 5 -2.748572 5 0.0014275 C 5 2.751428 2.75 5.001428 0 5.001428 C -2.75 5.001428 -5 2.751428 -5 0.0014275 " transform="matrix(1,0,0,1,21,220.17826)"/>
<path style="fill-rule:evenodd;fill:rgb(100%,100%,100%);fill-opacity:1;stroke-width:1;stroke-linecap:butt;stroke-linejoin:bevel;stroke:rgb(50.048876%,50.048876%,50.048876%);stroke-opacity:1;stroke-miterlimit:10;" d="M -5 -0.00278136 C -5 -2.752781 -2.75 -5.002781 0 -5.002781 C 2.75 -5.002781 5 -2.752781 5 -0.00278136 C 5 2.747219 2.75 4.997219 0 4.997219 C -2.75 4.997219 -5 2.747219 -5 -0.00278136 " transform="matrix(1,0,0,1,8,145.893406)"/>
<path style="fill-rule:evenodd;fill:rgb(100%,100%,100%);fill-opacity:1;stroke-width:1;stroke-linecap:butt;stroke-linejoin:bevel;stroke:rgb(50.048876%,50.048876%,50.048876%);stroke-opacity:1;stroke-miterlimit:10;" d="M -5 0.00122849 C -5 -2.748772 -2.75 -4.998772 0 -4.998772 C 2.75 -4.998772 5 -2.748772 5 0.00122849 C 5 2.751228 2.75 5.001228 0 5.001228 C -2.75 5.001228 -5 2.751228 -5 0.00122849 " transform="matrix(1,0,0,1,8,458.752678)"/>
<path style="fill-rule:evenodd;fill:rgb(100%,100%,100%);fill-opacity:1;stroke-width:1;stroke-linecap:butt;stroke-linejoin:bevel;stroke:rgb(50.048876%,50.048876%,50.048876%);stroke-opacity:1;stroke-miterlimit:10;" d="M -5 -0.00173699 C -5 -2.751737 -2.75 -5.001737 0 -5.001737 C 2.75 -5.001737 5 -2.751737 5 -0.00173699 C 5 2.748263 2.75 4.998263 0 4.998263 C -2.75 4.998263 -5 2.748263 -5 -0.00173699 " transform="matrix(1,0,0,1,8,349.544706)"/>
<path style="fill-rule:evenodd;fill:rgb(100%,100%,100%);fill-opacity:1;stroke-width:1;stroke-linecap:butt;stroke-linejoin:bevel;stroke:rgb(50.048876%,50.048876%,50.048876%);stroke-opacity:1;stroke-miterlimit:10;" d="M -5 0.00190809 C -5 -2.748092 -2.75 -4.998092 0 -4.998092 C 2.75 -4.998092 5 -2.748092 5 0.00190809 C 5 2.751908 2.75 5.001908 0 5.001908 C -2.75 5.001908 -5 2.751908 -5 0.00190809 " transform="matrix(1,0,0,1,8,489.267623)"/>
<path style="fill-rule:evenodd;fill:rgb(100%,100%,100%);fill-opacity:1;stroke-width:1;stroke-linecap:butt;stroke-linejoin:bevel;stroke:rgb(50.048876%,50.048876%,50.048876%);stroke-opacity:1;stroke-miterlimit:10;" d="M -5 -0.00129482 C -5 -2.751295 -2.75 -5.001295 0 -5.001295 C 2.75 -5.001295 5 -2.751295 5 -0.00129482 C 5 2.748705 2.75 4.998705 0 4.998705 C -2.75 4.998705 -5 2.748705 -5 -0.00129482 " transform="matrix(1,0,0,1,21,246.759107)"/>
<path style="fill-rule:evenodd;fill:rgb(100%,100%,100%);fill-opacity:1;stroke-width:1;stroke-linecap:butt;stroke-linejoin:bevel;stroke:rgb(50.048876%,50.048876%,50.048876%);stroke-opacity:1;stroke-miterlimit:10;" d="M -5 -0.000130646 C -5 -2.750131 -2.75 -5.000131 0 -5.000131 C 2.75 -5.000131 5 -2.750131 5 -0.000130646 C 5 2.749869 2.75 4.999869 0 4.999869 C -2.75 4.999869 -5 2.749869 -5 -0.000130646 " transform="matrix(1,0,0,1,8,379.156381)"/>
<path style="fill-rule:evenodd;fill:rgb(100%,100%,100%);fill-opacity:1;stroke-width:1;stroke-linecap:butt;stroke-linejoin:bevel;stroke:rgb(50.048876%,50.048876%,50.048876%);stroke-opacity:1;stroke-miterlimit:10;" d="M -5 0.000451104 C -5 -2.749549 -2.75 -4.999549 0 -4.999549 C 2.75 -4.999549 5 -2.749549 5 0.000451104 C 5 2.750451 2.75 5.000451 0 5.000451 C -2.75 5.000451 -5 2.750451 -5 0.000451104 " transform="matrix(1,0,0,1,8,620.714393)"/>
<path style="fill-rule:evenodd;fill:rgb(100%,100%,100%);fill-opacity:1;stroke-width:1;stroke-linecap:butt;stroke-linejoin:bevel;stroke:rgb(50.048876%,50.048876%,50.048876%);stroke-opacity:1;stroke-miterlimit:10;" d="M -5 -0.00131056 C -5 -2.751311 -2.75 -5.001311 0 -5.001311 C 2.75 -5.001311 5 -2.751311 5 -0.00131056 C 5 2.748689 2.75 4.998689 0 4.998689 C -2.75 4.998689 -5 2.748689 -5 -0.00131056 " transform="matrix(1,0,0,1,8,522.528654)"/>
<path style="fill-rule:evenodd;fill:rgb(50.048876%,50.048876%,50.048876%);fill-opacity:1;stroke-width:1;stroke-linecap:butt;stroke-linejoin:bevel;stroke:rgb(50.048876%,50.048876%,50.048876%);stroke-opacity:1;stroke-miterlimit:10;" d="M -5 -0.00193487 C -5 -2.751935 -2.75 -5.001935 0 -5.001935 C 2.75 -5.001935 5 -2.751935 5 -0.00193487 C 5 2.748065 2.75 4.998065 0 4.998065 C -2.75 4.998065 -5 2.748065 -5 -0.00193487 " transform="matrix(1,0,0,1,14.5,134.275372)"/>
<path style="fill-rule:evenodd;fill:rgb(100%,100%,100%);fill-opacity:1;stroke-width:1;stroke-linecap:butt;stroke-linejoin:bevel;stroke:rgb(50.048876%,50.048876%,50.048876%);stroke-opacity:1;stroke-miterlimit:10;" d="M -5 -0.00162015 C -5 -2.75162 -2.75 -5.00162 0 -5.00162 C 2.75 -5.00162 5 -2.75162 5 -0.00162015 C 5 2.74838 2.75 4.99838 0 4.99838 C -2.75 4.99838 -5 2.74838 -5 -0.00162015 " transform="matrix(1,0,0,1,8,685.466464)"/>
<path style="fill-rule:evenodd;fill:rgb(100%,100%,100%);fill-opacity:1;stroke-width:1;stroke-linecap:butt;stroke-linejoin:bevel;stroke:rgb(50.048876%,50.048876%,50.048876%);stroke-opacity:1;stroke-miterlimit:10;" d="M -5 0.000598829 C -5 -2.749401 -2.75 -4.999401 0 -4.999401 C 2.75 -4.999401 5 -2.749401 5 0.000598829 C 5 2.750599 2.75 5.000599 0 5.000599 C -2.75 5.000599 -5 2.750599 -5 0.000598829 " transform="matrix(1,0,0,1,8,399.526745)"/>
<path style="fill-rule:evenodd;fill:rgb(100%,100%,100%);fill-opacity:1;stroke-width:1;stroke-linecap:butt;stroke-linejoin:bevel;stroke:rgb(50.048876%,50.048876%,50.048876%);stroke-opacity:1;stroke-miterlimit:10;" d="M -5 -0.000182455 C -5 -2.750182 -2.75 -5.000182 0 -5.000182 C 2.75 -5.000182 5 -2.750182 5 -0.000182455 C 5 2.749818 2.75 4.999818 0 4.999818 C -2.75 4.999818 -5 2.749818 -5 -0.000182455 " transform="matrix(1,0,0,1,14.5,47.24237)"/>
<path style="fill-rule:evenodd;fill:rgb(100%,100%,100%);fill-opacity:1;stroke-width:1;stroke-linecap:butt;stroke-linejoin:bevel;stroke:rgb(50.048876%,50.048876%,50.048876%);stroke-opacity:1;stroke-miterlimit:10;" d="M -5 0.000196013 C -5 -2.749804 -2.75 -4.999804 0 -4.999804 C 2.75 -4.999804 5 -2.749804 5 0.000196013 C 5 2.750196 2.75 5.000196 0 5.000196 C -2.75 5.000196 -5 2.750196 -5 0.000196013 " transform="matrix(1,0,0,1,21,280.640429)"/>
<path style="fill:none;stroke-width:1;stroke-linecap:butt;stroke-linejoin:bevel;stroke:rgb(50.048876%,50.048876%,50.048876%);stroke-opacity:1;stroke-miterlimit:10;" d="M 0 -366.996094 C 0 -352.378906 0 -352.378906 0 -337.757812 " transform="matrix(1,0,0,1,14.5,380)"/>
<path style="fill:none;stroke-width:1;stroke-linecap:butt;stroke-linejoin:bevel;stroke:rgb(50.048876%,50.048876%,50.048876%);stroke-opacity:1;stroke-miterlimit:10;" d="M 0 -327.757812 C 0 -315.550781 0 -315.550781 0 -303.34375 " transform="matrix(1,0,0,1,14.5,380)"/>
<path style="fill:none;stroke-width:1;stroke-linecap:butt;stroke-linejoin:bevel;stroke:rgb(50.048876%,50.048876%,50.048876%);stroke-opacity:1;stroke-miterlimit:10;" d="M 0 -293.34375 C 0 -277.84375 0 -277.84375 0 -262.34375 " transform="matrix(1,0,0,1,14.5,380)"/>
<path style="fill:none;stroke-width:1;stroke-linecap:butt;stroke-linejoin:bevel;stroke:rgb(50.048876%,50.048876%,50.048876%);stroke-opacity:1;stroke-miterlimit:10;" d="M 0 -252.34375 C 0 -251.535156 0 -251.535156 0 -250.726562 " transform="matrix(1,0,0,1,14.5,380)"/>
<path style="fill:none;stroke-width:1;stroke-linecap:butt;stroke-linejoin:bevel;stroke:rgb(50.048876%,50.048876%,50.048876%);stroke-opacity:1;stroke-miterlimit:10;" d="M 0 -240.722656 C 0 -239.914062 -7 -239.914062 -7 -239.105469 " transform="matrix(1,0,0,1,14.5,380)"/>
<path style="fill:none;stroke-width:1;stroke-linecap:butt;stroke-linejoin:bevel;stroke:rgb(50.048876%,50.048876%,50.048876%);stroke-opacity:1;stroke-miterlimit:10;" d="M 0 -240.726562 C 0 -222.675781 6 -222.675781 6 -204.625 " transform="matrix(1,0,0,1,14.5,380)"/>
<path style="fill:none;stroke-width:1;stroke-linecap:butt;stroke-linejoin:bevel;stroke:rgb(50.048876%,50.048876%,50.048876%);stroke-opacity:1;stroke-miterlimit:10;" d="M 6 -194.625 C 6 -179.722656 6 -179.722656 6 -164.820312 " transform="matrix(1,0,0,1,14.5,380)"/>
<path style="fill:none;stroke-width:1;stroke-linecap:butt;stroke-linejoin:bevel;stroke:rgb(50.048876%,50.048876%,50.048876%);stroke-opacity:1;stroke-miterlimit:10;" d="M 6 -154.820312 C 6 -146.53125 6 -146.53125 6 -138.242188 " transform="matrix(1,0,0,1,14.5,380)"/>
<path style="fill:none;stroke-width:1;stroke-linecap:butt;stroke-linejoin:bevel;stroke:rgb(50.048876%,50.048876%,50.048876%);stroke-opacity:1;stroke-miterlimit:10;" d="M 6 -128.242188 C 6 -116.300781 6 -116.300781 6 -104.359375 " transform="matrix(1,0,0,1,14.5,380)"/>
<path style="fill:none;stroke-width:1;stroke-linecap:butt;stroke-linejoin:bevel;stroke:rgb(50.048876%,50.048876%,50.048876%);stroke-opacity:0.4;stroke-dasharray:4;stroke-miterlimit:10;" d="M -7 -229.105469 C -7 -144.386719 -7 -144.386719 -7 -59.667969 " transform="matrix(1,0,0,1,14.5,380)"/>
<path style="fill:none;stroke-width:1;stroke-linecap:butt;stroke-linejoin:bevel;stroke:rgb(50.048876%,50.048876%,50.048876%);stroke-opacity:1;stroke-miterlimit:10;" d="M 6 -94.359375 C 6 -77.011719 -7 -77.011719 -7 -59.667969 " transform="matrix(1,0,0,1,14.5,380)"/>
<path style="fill:none;stroke-width:1;stroke-linecap:butt;stroke-linejoin:bevel;stroke:rgb(50.048876%,50.048876%,50.048876%);stroke-opacity:1;stroke-miterlimit:10;" d="M -7 -49.667969 C -7 -42.558594 -7 -42.558594 -7 -35.453125 " transform="matrix(1,0,0,1,14.5,380)"/>
<path style="fill:none;stroke-width:1;stroke-linecap:butt;stroke-linejoin:bevel;stroke:rgb(50.048876%,50.048876%,50.048876%);stroke-opacity:1;stroke-miterlimit:10;" d="M -7 -25.453125 C -7 -15.648438 -7 -15.648438 -7 -5.839844 " transform="matrix(1,0,0,1,14.5,380)"/>
<path style="fill:none;stroke-width:1;stroke-linecap:butt;stroke-linejoin:bevel;stroke:rgb(50.048876%,50.048876%,50.048876%);stroke-opacity:1;stroke-miterlimit:10;" d="M -7 4.15625 C -7 9.339844 -7 9.339844 -7 14.527344 " transform="matrix(1,0,0,1,14.5,380)"/>
<path style="fill:none;stroke-width:1;stroke-linecap:butt;stroke-linejoin:bevel;stroke:rgb(50.048876%,50.048876%,50.048876%);stroke-opacity:1;stroke-miterlimit:10;" d="M -7 24.527344 C -7 29.800781 -7 29.800781 -7 35.070312 " transform="matrix(1,0,0,1,14.5,380)"/>
<path style="fill:none;stroke-width:1;stroke-linecap:butt;stroke-linejoin:bevel;stroke:rgb(50.048876%,50.048876%,50.048876%);stroke-opacity:1;stroke-miterlimit:10;" d="M -7 45.070312 C -7 59.414062 -7 59.414062 -7 73.753906 " transform="matrix(1,0,0,1,14.5,380)"/>
<path style="fill:none;stroke-width:1;stroke-linecap:butt;stroke-linejoin:bevel;stroke:rgb(50.048876%,50.048876%,50.048876%);stroke-opacity:1;stroke-miterlimit:10;" d="M -7 83.753906 C -7 94.011719 -7 94.011719 -7 104.269531 " transform="matrix(1,0,0,1,14.5,380)"/>
<path style="fill:none;stroke-width:1;stroke-linecap:butt;stroke-linejoin:bevel;stroke:rgb(50.048876%,50.048876%,50.048876%);stroke-opacity:1;stroke-miterlimit:10;" d="M -7 114.269531 C -7 125.898438 -7 125.898438 -7 137.527344 " transform="matrix(1,0,0,1,14.5,380)"/>
<path style="fill:none;stroke-width:1;stroke-linecap:butt;stroke-linejoin:bevel;stroke:rgb(50.048876%,50.048876%,50.048876%);stroke-opacity:1;stroke-miterlimit:10;" d="M -7 147.527344 C -7 161.085938 -7 161.085938 -7 174.644531 " transform="matrix(1,0,0,1,14.5,380)"/>
<path style="fill:none;stroke-width:1;stroke-linecap:butt;stroke-linejoin:bevel;stroke:rgb(50.048876%,50.048876%,50.048876%);stroke-opacity:1;stroke-miterlimit:10;" d="M -7 184.644531 C -7 197.105469 -7 197.105469 -7 209.5625 " transform="matrix(1,0,0,1,14.5,380)"/>
<path style="fill:none;stroke-width:1;stroke-linecap:butt;stroke-linejoin:bevel;stroke:rgb(50.048876%,50.048876%,50.048876%);stroke-opacity:1;stroke-miterlimit:10;" d="M -7 219.5625 C -7 227.636719 -7 227.636719 -7 235.714844 " transform="matrix(1,0,0,1,14.5,380)"/>
<path style="fill:none;stroke-width:1;stroke-linecap:butt;stroke-linejoin:bevel;stroke:rgb(50.048876%,50.048876%,50.048876%);stroke-opacity:1;stroke-miterlimit:10;" d="M -7 245.714844 C -7 259.757812 -7 259.757812 -7 273.804688 " transform="matrix(1,0,0,1,14.5,380)"/>
<path style="fill:none;stroke-width:1;stroke-linecap:butt;stroke-linejoin:bevel;stroke:rgb(50.048876%,50.048876%,50.048876%);stroke-opacity:1;stroke-miterlimit:10;" d="M -7 283.804688 C -7 292.136719 -7 292.136719 -7 300.464844 " transform="matrix(1,0,0,1,14.5,380)"/>
<path style="fill:none;stroke-width:1;stroke-linecap:butt;stroke-linejoin:bevel;stroke:rgb(50.048876%,50.048876%,50.048876%);stroke-opacity:1;stroke-miterlimit:10;" d="M -7 310.464844 C -7 321.902344 -7 321.902344 -7 333.339844 " transform="matrix(1,0,0,1,14.5,380)"/>
<path style="fill:none;stroke-width:1;stroke-linecap:butt;stroke-linejoin:bevel;stroke:rgb(50.048876%,50.048876%,50.048876%);stroke-opacity:1;stroke-miterlimit:10;" d="M -7 343.339844 C -7 349.105469 -7 349.105469 -7 354.871094 " transform="matrix(1,0,0,1,14.5,380)"/>
<path style="fill:none;stroke-width:1;stroke-linecap:butt;stroke-linejoin:bevel;stroke:rgb(50.048876%,50.048876%,50.048876%);stroke-opacity:1;stroke-miterlimit:10;" d="M -7 364.871094 C -7 365.933594 -7 365.933594 -7 366.996094 " transform="matrix(1,0,0,1,14.5,380)"/>
</g>
</svg>
