<?xml version="1.0" encoding="UTF-8"?>
<svg xmlns="http://www.w3.org/2000/svg" xmlns:xlink="http://www.w3.org/1999/xlink" width="31.472136pt" height="997.031056pt" viewBox="0 0 31.472136 997.031056" version="1.1">
<g id="surface756284">
<path style="fill-rule:evenodd;fill:rgb(100%,100%,100%);fill-opacity:1;stroke-width:1;stroke-linecap:butt;stroke-linejoin:bevel;stroke:rgb(50.048876%,50.048876%,50.048876%);stroke-opacity:1;stroke-miterlimit:10;" d="M -5 0.00104694 C -5 -2.748953 -2.75 -4.998953 0 -4.998953 C 2.75 -4.998953 5 -2.748953 5 0.00104694 C 5 2.751047 2.75 5.001047 0 5.001047 C -2.75 5.001047 -5 2.751047 -5 0.00104694 " transform="matrix(1,0,0,1,9,561.112234)"/>
<path style="fill-rule:evenodd;fill:rgb(100%,100%,100%);fill-opacity:1;stroke-width:1;stroke-linecap:butt;stroke-linejoin:bevel;stroke:rgb(50.048876%,50.048876%,50.048876%);stroke-opacity:1;stroke-miterlimit:10;" d="M -5 0.000936361 C -5 -2.749064 -2.75 -4.999064 0 -4.999064 C 2.75 -4.999064 5 -2.749064 5 0.000936361 C 5 2.750936 2.75 5.000936 0 5.000936 C -2.75 5.000936 -5 2.750936 -5 0.000936361 " transform="matrix(1,0,0,1,9,830.342814)"/>
<path style="fill-rule:evenodd;fill:rgb(100%,100%,100%);fill-opacity:1;stroke-width:1;stroke-linecap:butt;stroke-linejoin:bevel;stroke:rgb(50.048876%,50.048876%,50.048876%);stroke-opacity:1;stroke-miterlimit:10;" d="M -5 0.000808955 C -5 -2.749191 -2.75 -4.999191 0 -4.999191 C 2.75 -4.999191 5 -2.749191 5 0.000808955 C 5 2.750809 2.75 5.000809 0 5.000809 C -2.75 5.000809 -5 2.750809 -5 0.000808955 " transform="matrix(1,0,0,1,22,416.155441)"/>
<path style="fill-rule:evenodd;fill:rgb(100%,100%,100%);fill-opacity:1;stroke-width:1;stroke-linecap:butt;stroke-linejoin:bevel;stroke:rgb(50.048876%,50.048876%,50.048876%);stroke-opacity:1;stroke-miterlimit:10;" d="M -5 0.00253316 C -5 -2.747467 -2.75 -4.997467 0 -4.997467 C 2.75 -4.997467 5 -2.747467 5 0.00253316 C 5 2.752533 2.75 5.002533 0 5.002533 C -2.75 5.002533 -5 2.752533 -5 0.00253316 " transform="matrix(1,0,0,1,15.5,358.438873)"/>
<path style="fill-rule:evenodd;fill:rgb(100%,100%,100%);fill-opacity:1;stroke-width:1;stroke-linecap:butt;stroke-linejoin:bevel;stroke:rgb(50.048876%,50.048876%,50.048876%);stroke-opacity:1;stroke-miterlimit:10;" d="M -5 0.00179022 C -5 -2.74821 -2.75 -4.99821 0 -4.99821 C 2.75 -4.99821 5 -2.74821 5 0.00179022 C 5 2.75179 2.75 5.00179 0 5.00179 C -2.75 5.00179 -5 2.75179 -5 0.00179022 " transform="matrix(1,0,0,1,9,987.77946)"/>
<path style="fill-rule:evenodd;fill:rgb(100%,100%,100%);fill-opacity:1;stroke-width:1;stroke-linecap:butt;stroke-linejoin:bevel;stroke:rgb(50.048876%,50.048876%,50.048876%);stroke-opacity:1;stroke-miterlimit:10;" d="M -5 -0.00192801 C -5 -2.751928 -2.75 -5.001928 0 -5.001928 C 2.75 -5.001928 5 -2.751928 5 -0.00192801 C 5 2.748072 2.75 4.998072 0 4.998072 C -2.75 4.998072 -5 2.748072 -5 -0.00192801 " transform="matrix(1,0,0,1,9,795.427709)"/>
<path style="fill-rule:evenodd;fill:rgb(100%,100%,100%);fill-opacity:1;stroke-width:1;stroke-linecap:butt;stroke-linejoin:bevel;stroke:rgb(50.048876%,50.048876%,50.048876%);stroke-opacity:1;stroke-miterlimit:10;" d="M -5 0.000370053 C -5 -2.74963 -2.75 -4.99963 0 -4.99963 C 2.75 -4.99963 5 -2.74963 5 0.000370053 C 5 2.75037 2.75 5.00037 0 5.00037 C -2.75 5.00037 -5 2.75037 -5 0.000370053 " transform="matrix(1,0,0,1,9,954.120724)"/>
<path style="fill-rule:evenodd;fill:rgb(100%,100%,100%);fill-opacity:1;stroke-width:1;stroke-linecap:butt;stroke-linejoin:bevel;stroke:rgb(50.048876%,50.048876%,50.048876%);stroke-opacity:1;stroke-miterlimit:10;" d="M -5 0.00191984 C -5 -2.74808 -2.75 -4.99808 0 -4.99808 C 2.75 -4.99808 5 -2.74808 5 0.00191984 C 5 2.75192 2.75 5.00192 0 5.00192 C -2.75 5.00192 -5 2.75192 -5 0.00191984 " transform="matrix(1,0,0,1,9,655.853549)"/>
<path style="fill-rule:evenodd;fill:rgb(100%,100%,100%);fill-opacity:1;stroke-width:1;stroke-linecap:butt;stroke-linejoin:bevel;stroke:rgb(50.048876%,50.048876%,50.048876%);stroke-opacity:1;stroke-miterlimit:10;" d="M -5 0.00143828 C -5 -2.748562 -2.75 -4.998562 0 -4.998562 C 2.75 -4.998562 5 -2.748562 5 0.00143828 C 5 2.751438 2.75 5.001438 0 5.001438 C -2.75 5.001438 -5 2.751438 -5 0.00143828 " transform="matrix(1,0,0,1,9,975.650905)"/>
<path style="fill-rule:evenodd;fill:rgb(100%,100%,100%);fill-opacity:1;stroke-width:1;stroke-linecap:butt;stroke-linejoin:bevel;stroke:rgb(50.048876%,50.048876%,50.048876%);stroke-opacity:1;stroke-miterlimit:10;" d="M -5 0.00325007 C -5 -2.74675 -2.75 -4.99675 0 -4.99675 C 2.75 -4.99675 5 -2.74675 5 0.00325007 C 5 2.75325 2.75 5.00325 0 5.00325 C -2.75 5.00325 -5 2.75325 -5 0.00325007 " transform="matrix(1,0,0,1,15.5,196.117844)"/>
<path style="fill-rule:evenodd;fill:rgb(100%,100%,100%);fill-opacity:1;stroke-width:1;stroke-linecap:butt;stroke-linejoin:bevel;stroke:rgb(50.048876%,50.048876%,50.048876%);stroke-opacity:1;stroke-miterlimit:10;" d="M -5 0.00271399 C -5 -2.747286 -2.75 -4.997286 0 -4.997286 C 2.75 -4.997286 5 -2.747286 5 0.00271399 C 5 2.752714 2.75 5.002714 0 5.002714 C -2.75 5.002714 -5 2.752714 -5 0.00271399 " transform="matrix(1,0,0,1,15.5,55.509005)"/>
<path style="fill-rule:evenodd;fill:rgb(100%,100%,100%);fill-opacity:1;stroke-width:1;stroke-linecap:butt;stroke-linejoin:bevel;stroke:rgb(50.048876%,50.048876%,50.048876%);stroke-opacity:1;stroke-miterlimit:10;" d="M -5 0.000698069 C -5 -2.749302 -2.75 -4.999302 0 -4.999302 C 2.75 -4.999302 5 -2.749302 5 0.000698069 C 5 2.750698 2.75 5.000698 0 5.000698 C -2.75 5.000698 -5 2.750698 -5 0.000698069 " transform="matrix(1,0,0,1,9,894.585239)"/>
<path style="fill-rule:evenodd;fill:rgb(100%,100%,100%);fill-opacity:1;stroke-width:1;stroke-linecap:butt;stroke-linejoin:bevel;stroke:rgb(50.048876%,50.048876%,50.048876%);stroke-opacity:1;stroke-miterlimit:10;" d="M -5 0.000151982 C -5 -2.749848 -2.75 -4.999848 0 -4.999848 C 2.75 -4.999848 5 -2.749848 5 0.000151982 C 5 2.750152 2.75 5.000152 0 5.000152 C -2.75 5.000152 -5 2.750152 -5 0.000151982 " transform="matrix(1,0,0,1,15.5,317.437348)"/>
<path style="fill-rule:evenodd;fill:rgb(100%,100%,100%);fill-opacity:1;stroke-width:1;stroke-linecap:butt;stroke-linejoin:bevel;stroke:rgb(50.048876%,50.048876%,50.048876%);stroke-opacity:1;stroke-miterlimit:10;" d="M -5 0.00154661 C -5 -2.748453 -2.75 -4.998453 0 -4.998453 C 2.75 -4.998453 5 -2.748453 5 0.00154661 C 5 2.751547 2.75 5.001547 0 5.001547 C -2.75 5.001547 -5 2.751547 -5 0.00154661 " transform="matrix(1,0,0,1,15.5,243.78361)"/>
<path style="fill-rule:evenodd;fill:rgb(100%,100%,100%);fill-opacity:1;stroke-width:1;stroke-linecap:butt;stroke-linejoin:bevel;stroke:rgb(50.048876%,50.048876%,50.048876%);stroke-opacity:1;stroke-miterlimit:10;" d="M -5 0.00114279 C -5 -2.748857 -2.75 -4.998857 0 -4.998857 C 2.75 -4.998857 5 -2.748857 5 0.00114279 C 5 2.751143 2.75 5.001143 0 5.001143 C -2.75 5.001143 -5 2.751143 -5 0.00114279 " transform="matrix(1,0,0,1,22,455.959795)"/>
<path style="fill-rule:evenodd;fill:rgb(100%,100%,100%);fill-opacity:1;stroke-width:1;stroke-linecap:butt;stroke-linejoin:bevel;stroke:rgb(50.048876%,50.048876%,50.048876%);stroke-opacity:1;stroke-miterlimit:10;" d="M -5 0.000840184 C -5 -2.74916 -2.75 -4.99916 0 -4.99916 C 2.75 -4.99916 5 -2.74916 5 0.000840184 C 5 2.75084 2.75 5.00084 0 5.00084 C -2.75 5.00084 -5 2.75084 -5 0.000840184 " transform="matrix(1,0,0,1,9,381.674941)"/>
<path style="fill-rule:evenodd;fill:rgb(100%,100%,100%);fill-opacity:1;stroke-width:1;stroke-linecap:butt;stroke-linejoin:bevel;stroke:rgb(50.048876%,50.048876%,50.048876%);stroke-opacity:1;stroke-miterlimit:10;" d="M -5 0.000158915 C -5 -2.749841 -2.75 -4.999841 0 -4.999841 C 2.75 -4.999841 5 -2.749841 5 0.000158915 C 5 2.750159 2.75 5.000159 0 5.000159 C -2.75 5.000159 -5 2.750159 -5 0.000158915 " transform="matrix(1,0,0,1,15.5,103.195154)"/>
<path style="fill-rule:evenodd;fill:rgb(100%,100%,100%);fill-opacity:1;stroke-width:1;stroke-linecap:butt;stroke-linejoin:bevel;stroke:rgb(50.048876%,50.048876%,50.048876%);stroke-opacity:1;stroke-miterlimit:10;" d="M -5 0.00188455 C -5 -2.748115 -2.75 -4.998115 0 -4.998115 C 2.75 -4.998115 5 -2.748115 5 0.00188455 C 5 2.751885 2.75 5.001885 0 5.001885 C -2.75 5.001885 -5 2.751885 -5 0.00188455 " transform="matrix(1,0,0,1,9,585.32624)"/>
<path style="fill-rule:evenodd;fill:rgb(100%,100%,100%);fill-opacity:1;stroke-width:1;stroke-linecap:butt;stroke-linejoin:bevel;stroke:rgb(50.048876%,50.048876%,50.048876%);stroke-opacity:1;stroke-miterlimit:10;" d="M -5 -0.00157953 C -5 -2.75158 -2.75 -5.00158 0 -5.00158 C 2.75 -5.00158 5 -2.75158 5 -0.00157953 C 5 2.74842 2.75 4.99842 0 4.99842 C -2.75 4.99842 -5 2.74842 -5 -0.00157953 " transform="matrix(1,0,0,1,22,482.540642)"/>
<path style="fill-rule:evenodd;fill:rgb(100%,100%,100%);fill-opacity:1;stroke-width:1;stroke-linecap:butt;stroke-linejoin:bevel;stroke:rgb(50.048876%,50.048876%,50.048876%);stroke-opacity:1;stroke-miterlimit:10;" d="M -5 0.000943781 C -5 -2.749056 -2.75 -4.999056 0 -4.999056 C 2.75 -4.999056 5 -2.749056 5 0.000943781 C 5 2.750944 2.75 5.000944 0 5.000944 C -2.75 5.000944 -5 2.750944 -5 0.000943781 " transform="matrix(1,0,0,1,9,694.534212)"/>
<path style="fill-rule:evenodd;fill:rgb(100%,100%,100%);fill-opacity:1;stroke-width:1;stroke-linecap:butt;stroke-linejoin:bevel;stroke:rgb(50.048876%,50.048876%,50.048876%);stroke-opacity:1;stroke-miterlimit:10;" d="M -5 -0.000415358 C -5 -2.750415 -2.75 -5.000415 0 -5.000415 C 2.75 -5.000415 5 -2.750415 5 -0.000415358 C 5 2.749585 2.75 4.999585 0 4.999585 C -2.75 4.999585 -5 2.749585 -5 -0.000415358 " transform="matrix(1,0,0,1,9,614.937915)"/>
<path style="fill-rule:evenodd;fill:rgb(100%,100%,100%);fill-opacity:1;stroke-width:1;stroke-linecap:butt;stroke-linejoin:bevel;stroke:rgb(50.048876%,50.048876%,50.048876%);stroke-opacity:1;stroke-miterlimit:10;" d="M -5 0.00211603 C -5 -2.747884 -2.75 -4.997884 0 -4.997884 C 2.75 -4.997884 5 -2.747884 5 0.00211603 C 5 2.752116 2.75 5.002116 0 5.002116 C -2.75 5.002116 -5 2.752116 -5 0.00211603 " transform="matrix(1,0,0,1,15.5,9.22054)"/>
<path style="fill-rule:evenodd;fill:rgb(100%,100%,100%);fill-opacity:1;stroke-width:1;stroke-linecap:butt;stroke-linejoin:bevel;stroke:rgb(50.048876%,50.048876%,50.048876%);stroke-opacity:1;stroke-miterlimit:10;" d="M -5 0.0024713 C -5 -2.747529 -2.75 -4.997529 0 -4.997529 C 2.75 -4.997529 5 -2.747529 5 0.0024713 C 5 2.752471 2.75 5.002471 0 5.002471 C -2.75 5.002471 -5 2.752471 -5 0.0024713 " transform="matrix(1,0,0,1,15.5,150.599091)"/>
<path style="fill-rule:evenodd;fill:rgb(100%,100%,100%);fill-opacity:1;stroke-width:1;stroke-linecap:butt;stroke-linejoin:bevel;stroke:rgb(50.048876%,50.048876%,50.048876%);stroke-opacity:1;stroke-miterlimit:10;" d="M -5 0.00162338 C -5 -2.748377 -2.75 -4.998377 0 -4.998377 C 2.75 -4.998377 5 -2.748377 5 0.00162338 C 5 2.751623 2.75 5.001623 0 5.001623 C -2.75 5.001623 -5 2.751623 -5 0.00162338 " transform="matrix(1,0,0,1,9,725.049158)"/>
<path style="fill-rule:evenodd;fill:rgb(100%,100%,100%);fill-opacity:1;stroke-width:1;stroke-linecap:butt;stroke-linejoin:bevel;stroke:rgb(50.048876%,50.048876%,50.048876%);stroke-opacity:1;stroke-miterlimit:10;" d="M -5 -0.00159527 C -5 -2.751595 -2.75 -5.001595 0 -5.001595 C 2.75 -5.001595 5 -2.751595 5 -0.00159527 C 5 2.748405 2.75 4.998405 0 4.998405 C -2.75 4.998405 -5 2.748405 -5 -0.00159527 " transform="matrix(1,0,0,1,9,758.310189)"/>
<path style="fill-rule:evenodd;fill:rgb(50.048876%,50.048876%,50.048876%);fill-opacity:1;stroke-width:1;stroke-linecap:butt;stroke-linejoin:bevel;stroke:rgb(50.048876%,50.048876%,50.048876%);stroke-opacity:1;stroke-miterlimit:10;" d="M -5 0.00168667 C -5 -2.748313 -2.75 -4.998313 0 -4.998313 C 2.75 -4.998313 5 -2.748313 5 0.00168667 C 5 2.751687 2.75 5.001687 0 5.001687 C -2.75 5.001687 -5 2.751687 -5 0.00168667 " transform="matrix(1,0,0,1,15.5,370.056907)"/>
<path style="fill-rule:evenodd;fill:rgb(100%,100%,100%);fill-opacity:1;stroke-width:1;stroke-linecap:butt;stroke-linejoin:bevel;stroke:rgb(50.048876%,50.048876%,50.048876%);stroke-opacity:1;stroke-miterlimit:10;" d="M -5 0.000166392 C -5 -2.749834 -2.75 -4.999834 0 -4.999834 C 2.75 -4.999834 5 -2.749834 5 0.000166392 C 5 2.750166 2.75 5.000166 0 5.000166 C -2.75 5.000166 -5 2.750166 -5 0.000166392 " transform="matrix(1,0,0,1,9,856.495927)"/>
<path style="fill-rule:evenodd;fill:rgb(100%,100%,100%);fill-opacity:1;stroke-width:1;stroke-linecap:butt;stroke-linejoin:bevel;stroke:rgb(50.048876%,50.048876%,50.048876%);stroke-opacity:1;stroke-miterlimit:10;" d="M -5 -0.00190486 C -5 -2.751905 -2.75 -5.001905 0 -5.001905 C 2.75 -5.001905 5 -2.751905 5 -0.00190486 C 5 2.748095 2.75 4.998095 0 4.998095 C -2.75 4.998095 -5 2.748095 -5 -0.00190486 " transform="matrix(1,0,0,1,9,921.247999)"/>
<path style="fill-rule:evenodd;fill:rgb(100%,100%,100%);fill-opacity:1;stroke-width:1;stroke-linecap:butt;stroke-linejoin:bevel;stroke:rgb(50.048876%,50.048876%,50.048876%);stroke-opacity:1;stroke-miterlimit:10;" d="M -5 -0.0000886986 C -5 -2.750089 -2.75 -5.000089 0 -5.000089 C 2.75 -5.000089 5 -2.750089 5 -0.0000886986 C 5 2.749911 2.75 4.999911 0 4.999911 C -2.75 4.999911 -5 2.749911 -5 -0.0000886986 " transform="matrix(1,0,0,1,22,516.421964)"/>
<path style="fill-rule:evenodd;fill:rgb(100%,100%,100%);fill-opacity:1;stroke-width:1;stroke-linecap:butt;stroke-linejoin:bevel;stroke:rgb(50.048876%,50.048876%,50.048876%);stroke-opacity:1;stroke-miterlimit:10;" d="M -5 0.000314118 C -5 -2.749686 -2.75 -4.999686 0 -4.999686 C 2.75 -4.999686 5 -2.749686 5 0.000314118 C 5 2.750314 2.75 5.000314 0 5.000314 C -2.75 5.000314 -5 2.750314 -5 0.000314118 " transform="matrix(1,0,0,1,9,635.30828)"/>
<path style="fill-rule:evenodd;fill:rgb(100%,100%,100%);fill-opacity:1;stroke-width:1;stroke-linecap:butt;stroke-linejoin:bevel;stroke:rgb(50.048876%,50.048876%,50.048876%);stroke-opacity:1;stroke-miterlimit:10;" d="M -5 0.00343908 C -5 -2.746561 -2.75 -4.996561 0 -4.996561 C 2.75 -4.996561 5 -2.746561 5 0.00343908 C 5 2.753439 2.75 5.003439 0 5.003439 C -2.75 5.003439 -5 2.753439 -5 0.00343908 " transform="matrix(1,0,0,1,15.5,283.023905)"/>
<path style="fill:none;stroke-width:1;stroke-linecap:butt;stroke-linejoin:bevel;stroke:rgb(50.048876%,50.048876%,50.048876%);stroke-opacity:1;stroke-miterlimit:10;" d="M 0 -484.28125 C 0 -466.136719 0 -466.136719 0 -447.992188 " transform="matrix(1,0,0,1,15.5,498.5)"/>
<path style="fill:none;stroke-width:1;stroke-linecap:butt;stroke-linejoin:bevel;stroke:rgb(50.048876%,50.048876%,50.048876%);stroke-opacity:1;stroke-miterlimit:10;" d="M 0 -437.992188 C 0 -419.148438 0 -419.148438 0 -400.304688 " transform="matrix(1,0,0,1,15.5,498.5)"/>
<path style="fill:none;stroke-width:1;stroke-linecap:butt;stroke-linejoin:bevel;stroke:rgb(50.048876%,50.048876%,50.048876%);stroke-opacity:1;stroke-miterlimit:10;" d="M 0 -390.304688 C 0 -371.601562 0 -371.601562 0 -352.902344 " transform="matrix(1,0,0,1,15.5,498.5)"/>
<path style="fill:none;stroke-width:1;stroke-linecap:butt;stroke-linejoin:bevel;stroke:rgb(50.048876%,50.048876%,50.048876%);stroke-opacity:1;stroke-miterlimit:10;" d="M 0 -342.902344 C 0 -325.140625 0 -325.140625 0 -307.382812 " transform="matrix(1,0,0,1,15.5,498.5)"/>
<path style="fill:none;stroke-width:1;stroke-linecap:butt;stroke-linejoin:bevel;stroke:rgb(50.048876%,50.048876%,50.048876%);stroke-opacity:1;stroke-miterlimit:10;" d="M 0 -297.382812 C 0 -278.550781 0 -278.550781 0 -259.714844 " transform="matrix(1,0,0,1,15.5,498.5)"/>
<path style="fill:none;stroke-width:1;stroke-linecap:butt;stroke-linejoin:bevel;stroke:rgb(50.048876%,50.048876%,50.048876%);stroke-opacity:1;stroke-miterlimit:10;" d="M 0 -249.714844 C 0 -235.097656 0 -235.097656 0 -220.476562 " transform="matrix(1,0,0,1,15.5,498.5)"/>
<path style="fill:none;stroke-width:1;stroke-linecap:butt;stroke-linejoin:bevel;stroke:rgb(50.048876%,50.048876%,50.048876%);stroke-opacity:1;stroke-miterlimit:10;" d="M 0 -210.476562 C 0 -198.269531 0 -198.269531 0 -186.0625 " transform="matrix(1,0,0,1,15.5,498.5)"/>
<path style="fill:none;stroke-width:1;stroke-linecap:butt;stroke-linejoin:bevel;stroke:rgb(50.048876%,50.048876%,50.048876%);stroke-opacity:1;stroke-miterlimit:10;" d="M 0 -176.0625 C 0 -160.5625 0 -160.5625 0 -145.0625 " transform="matrix(1,0,0,1,15.5,498.5)"/>
<path style="fill:none;stroke-width:1;stroke-linecap:butt;stroke-linejoin:bevel;stroke:rgb(50.048876%,50.048876%,50.048876%);stroke-opacity:1;stroke-miterlimit:10;" d="M 0 -135.0625 C 0 -134.253906 0 -134.253906 0 -133.441406 " transform="matrix(1,0,0,1,15.5,498.5)"/>
<path style="fill:none;stroke-width:1;stroke-linecap:butt;stroke-linejoin:bevel;stroke:rgb(50.048876%,50.048876%,50.048876%);stroke-opacity:1;stroke-miterlimit:10;" d="M 0 -123.445312 C 0 -122.636719 -7 -122.636719 -7 -121.828125 " transform="matrix(1,0,0,1,15.5,498.5)"/>
<path style="fill:none;stroke-width:1;stroke-linecap:butt;stroke-linejoin:bevel;stroke:rgb(50.048876%,50.048876%,50.048876%);stroke-opacity:1;stroke-miterlimit:10;" d="M 0 -123.441406 C 0 -105.394531 6 -105.394531 6 -87.34375 " transform="matrix(1,0,0,1,15.5,498.5)"/>
<path style="fill:none;stroke-width:1;stroke-linecap:butt;stroke-linejoin:bevel;stroke:rgb(50.048876%,50.048876%,50.048876%);stroke-opacity:1;stroke-miterlimit:10;" d="M 6 -77.34375 C 6 -62.441406 6 -62.441406 6 -47.539062 " transform="matrix(1,0,0,1,15.5,498.5)"/>
<path style="fill:none;stroke-width:1;stroke-linecap:butt;stroke-linejoin:bevel;stroke:rgb(50.048876%,50.048876%,50.048876%);stroke-opacity:1;stroke-miterlimit:10;" d="M 6 -37.539062 C 6 -29.25 6 -29.25 6 -20.960938 " transform="matrix(1,0,0,1,15.5,498.5)"/>
<path style="fill:none;stroke-width:1;stroke-linecap:butt;stroke-linejoin:bevel;stroke:rgb(50.048876%,50.048876%,50.048876%);stroke-opacity:1;stroke-miterlimit:10;" d="M 6 -10.960938 C 6 0.980469 6 0.980469 6 12.921875 " transform="matrix(1,0,0,1,15.5,498.5)"/>
<path style="fill:none;stroke-width:1;stroke-linecap:butt;stroke-linejoin:bevel;stroke:rgb(50.048876%,50.048876%,50.048876%);stroke-opacity:0.4;stroke-dasharray:4;stroke-miterlimit:10;" d="M -7 -111.828125 C -7 -27.109375 -7 -27.109375 -7 57.609375 " transform="matrix(1,0,0,1,15.5,498.5)"/>
<path style="fill:none;stroke-width:1;stroke-linecap:butt;stroke-linejoin:bevel;stroke:rgb(50.048876%,50.048876%,50.048876%);stroke-opacity:1;stroke-miterlimit:10;" d="M 6 22.921875 C 6 40.265625 -7 40.265625 -7 57.613281 " transform="matrix(1,0,0,1,15.5,498.5)"/>
<path style="fill:none;stroke-width:1;stroke-linecap:butt;stroke-linejoin:bevel;stroke:rgb(50.048876%,50.048876%,50.048876%);stroke-opacity:1;stroke-miterlimit:10;" d="M -7 67.613281 C -7 74.71875 -7 74.71875 -7 81.828125 " transform="matrix(1,0,0,1,15.5,498.5)"/>
<path style="fill:none;stroke-width:1;stroke-linecap:butt;stroke-linejoin:bevel;stroke:rgb(50.048876%,50.048876%,50.048876%);stroke-opacity:1;stroke-miterlimit:10;" d="M -7 91.828125 C -7 101.632812 -7 101.632812 -7 111.4375 " transform="matrix(1,0,0,1,15.5,498.5)"/>
<path style="fill:none;stroke-width:1;stroke-linecap:butt;stroke-linejoin:bevel;stroke:rgb(50.048876%,50.048876%,50.048876%);stroke-opacity:1;stroke-miterlimit:10;" d="M -7 121.4375 C -7 126.625 -7 126.625 -7 131.808594 " transform="matrix(1,0,0,1,15.5,498.5)"/>
<path style="fill:none;stroke-width:1;stroke-linecap:butt;stroke-linejoin:bevel;stroke:rgb(50.048876%,50.048876%,50.048876%);stroke-opacity:1;stroke-miterlimit:10;" d="M -7 141.808594 C -7 147.082031 -7 147.082031 -7 152.355469 " transform="matrix(1,0,0,1,15.5,498.5)"/>
<path style="fill:none;stroke-width:1;stroke-linecap:butt;stroke-linejoin:bevel;stroke:rgb(50.048876%,50.048876%,50.048876%);stroke-opacity:1;stroke-miterlimit:10;" d="M -7 162.355469 C -7 176.695312 -7 176.695312 -7 191.035156 " transform="matrix(1,0,0,1,15.5,498.5)"/>
<path style="fill:none;stroke-width:1;stroke-linecap:butt;stroke-linejoin:bevel;stroke:rgb(50.048876%,50.048876%,50.048876%);stroke-opacity:1;stroke-miterlimit:10;" d="M -7 201.035156 C -7 211.292969 -7 211.292969 -7 221.550781 " transform="matrix(1,0,0,1,15.5,498.5)"/>
<path style="fill:none;stroke-width:1;stroke-linecap:butt;stroke-linejoin:bevel;stroke:rgb(50.048876%,50.048876%,50.048876%);stroke-opacity:1;stroke-miterlimit:10;" d="M -7 231.550781 C -7 243.179688 -7 243.179688 -7 254.808594 " transform="matrix(1,0,0,1,15.5,498.5)"/>
<path style="fill:none;stroke-width:1;stroke-linecap:butt;stroke-linejoin:bevel;stroke:rgb(50.048876%,50.048876%,50.048876%);stroke-opacity:1;stroke-miterlimit:10;" d="M -7 264.808594 C -7 278.367188 -7 278.367188 -7 291.925781 " transform="matrix(1,0,0,1,15.5,498.5)"/>
<path style="fill:none;stroke-width:1;stroke-linecap:butt;stroke-linejoin:bevel;stroke:rgb(50.048876%,50.048876%,50.048876%);stroke-opacity:1;stroke-miterlimit:10;" d="M -7 301.925781 C -7 314.386719 -7 314.386719 -7 326.84375 " transform="matrix(1,0,0,1,15.5,498.5)"/>
<path style="fill:none;stroke-width:1;stroke-linecap:butt;stroke-linejoin:bevel;stroke:rgb(50.048876%,50.048876%,50.048876%);stroke-opacity:1;stroke-miterlimit:10;" d="M -7 336.84375 C -7 344.917969 -7 344.917969 -7 352.996094 " transform="matrix(1,0,0,1,15.5,498.5)"/>
<path style="fill:none;stroke-width:1;stroke-linecap:butt;stroke-linejoin:bevel;stroke:rgb(50.048876%,50.048876%,50.048876%);stroke-opacity:1;stroke-miterlimit:10;" d="M -7 362.996094 C -7 377.039062 -7 377.039062 -7 391.085938 " transform="matrix(1,0,0,1,15.5,498.5)"/>
<path style="fill:none;stroke-width:1;stroke-linecap:butt;stroke-linejoin:bevel;stroke:rgb(50.048876%,50.048876%,50.048876%);stroke-opacity:1;stroke-miterlimit:10;" d="M -7 401.085938 C -7 409.417969 -7 409.417969 -7 417.746094 " transform="matrix(1,0,0,1,15.5,498.5)"/>
<path style="fill:none;stroke-width:1;stroke-linecap:butt;stroke-linejoin:bevel;stroke:rgb(50.048876%,50.048876%,50.048876%);stroke-opacity:1;stroke-miterlimit:10;" d="M -7 427.746094 C -7 439.183594 -7 439.183594 -7 450.621094 " transform="matrix(1,0,0,1,15.5,498.5)"/>
<path style="fill:none;stroke-width:1;stroke-linecap:butt;stroke-linejoin:bevel;stroke:rgb(50.048876%,50.048876%,50.048876%);stroke-opacity:1;stroke-miterlimit:10;" d="M -7 460.621094 C -7 466.386719 -7 466.386719 -7 472.152344 " transform="matrix(1,0,0,1,15.5,498.5)"/>
<path style="fill:none;stroke-width:1;stroke-linecap:butt;stroke-linejoin:bevel;stroke:rgb(50.048876%,50.048876%,50.048876%);stroke-opacity:1;stroke-miterlimit:10;" d="M -7 482.152344 C -7 483.214844 -7 483.214844 -7 484.28125 " transform="matrix(1,0,0,1,15.5,498.5)"/>
</g>
</svg>
