<?xml version="1.0" encoding="UTF-8"?>
<svg xmlns="http://www.w3.org/2000/svg" xmlns:xlink="http://www.w3.org/1999/xlink" width="2103.444185pt" height="720.025125pt" viewBox="0 0 2103.444185 720.025125" version="1.1">
<g id="surface150414">
<path style="fill-rule:evenodd;fill:rgb(100%,100%,100%);fill-opacity:1;stroke-width:1;stroke-linecap:butt;stroke-linejoin:bevel;stroke:rgb(50.048876%,50.048876%,50.048876%);stroke-opacity:1;stroke-miterlimit:10;" d="M -29.126868 0.000461028 C -29.126868 -16.01907 -16.0214 -29.124539 -0.00186834 -29.124539 C 16.017663 -29.124539 29.123132 -16.01907 29.123132 0.000461028 C 29.123132 16.019992 16.017663 29.125461 -0.00186834 29.125461 C -16.0214 29.125461 -29.126868 16.019992 -29.126868 0.000461028 " transform="matrix(1,0,0,1,32.138587,687.651883)"/>
<path style="fill-rule:evenodd;fill:rgb(100%,100%,100%);fill-opacity:1;stroke-width:1;stroke-linecap:butt;stroke-linejoin:bevel;stroke:rgb(50.048876%,50.048876%,50.048876%);stroke-opacity:1;stroke-miterlimit:10;" d="M -39.64289 -0.00184929 C -39.64289 -21.802631 -21.803046 -39.642474 -0.00226462 -39.642474 C 21.802423 -39.642474 39.63836 -21.802631 39.63836 -0.00184929 C 39.63836 21.802838 21.802423 39.642682 -0.00226462 39.642682 C -21.803046 39.642682 -39.64289 21.802838 -39.64289 -0.00184929 " transform="matrix(1,0,0,1,100.096015,677.134662)"/>
<path style="fill-rule:evenodd;fill:rgb(100%,100%,100%);fill-opacity:1;stroke-width:1;stroke-linecap:butt;stroke-linejoin:bevel;stroke:rgb(50.048876%,50.048876%,50.048876%);stroke-opacity:1;stroke-miterlimit:10;" d="M -11.794775 -0.00176149 C -11.794775 -6.486136 -6.486182 -11.79473 -0.00180656 -11.79473 C 6.486475 -11.79473 11.791162 -6.486136 11.791162 -0.00176149 C 11.791162 6.48652 6.486475 11.795114 -0.00180656 11.795114 C -6.486182 11.795114 -11.794775 6.48652 -11.794775 -0.00176149 " transform="matrix(1,0,0,1,143.34165,704.98223)"/>
<path style="fill-rule:evenodd;fill:rgb(100%,100%,100%);fill-opacity:1;stroke-width:1;stroke-linecap:butt;stroke-linejoin:bevel;stroke:rgb(50.048876%,50.048876%,50.048876%);stroke-opacity:1;stroke-miterlimit:10;" d="M -57.084069 -0.000849146 C -57.084069 -31.39538 -31.396569 -57.08288 -0.00203815 -57.08288 C 31.396399 -57.08288 57.083899 -31.39538 57.083899 -0.000849146 C 57.083899 31.397588 31.396399 57.085088 -0.00203815 57.085088 C -31.396569 57.085088 -57.084069 31.397588 -57.084069 -0.000849146 " transform="matrix(1,0,0,1,195.236413,659.692255)"/>
<path style="fill-rule:evenodd;fill:rgb(100%,100%,100%);fill-opacity:1;stroke-width:1;stroke-linecap:butt;stroke-linejoin:bevel;stroke:rgb(50.048876%,50.048876%,50.048876%);stroke-opacity:1;stroke-miterlimit:10;" d="M -7.280401 0.00075218 C -7.280401 -4.003154 -4.003057 -7.280498 0.00084908 -7.280498 C 4.004755 -7.280498 7.282099 -4.003154 7.282099 0.00075218 C 7.282099 4.004658 4.004755 7.282002 0.00084908 7.282002 C -4.003057 7.282002 -7.280401 4.004658 -7.280401 0.00075218 " transform="matrix(1,0,0,1,236.01087,709.495342)"/>
<path style="fill-rule:evenodd;fill:rgb(100%,100%,100%);fill-opacity:1;stroke-width:1;stroke-linecap:butt;stroke-linejoin:bevel;stroke:rgb(50.048876%,50.048876%,50.048876%);stroke-opacity:1;stroke-miterlimit:10;" d="M -17.616471 -0.0016522 C -17.616471 -9.689152 -9.690689 -17.61884 0.000716987 -17.61884 C 9.692123 -17.61884 17.621811 -9.689152 17.621811 -0.0016522 C 17.621811 9.689754 9.692123 17.619442 0.000716987 17.619442 C -9.690689 17.619442 -17.616471 9.689754 -17.616471 -0.0016522 " transform="matrix(1,0,0,1,258.663346,699.157902)"/>
<path style="fill-rule:evenodd;fill:rgb(100%,100%,100%);fill-opacity:1;stroke-width:1;stroke-linecap:butt;stroke-linejoin:bevel;stroke:rgb(50.048876%,50.048876%,50.048876%);stroke-opacity:1;stroke-miterlimit:10;" d="M -8.445038 -0.0000491979 C -8.445038 -4.64458 -4.644257 -8.445362 0.000274253 -8.445362 C 4.644806 -8.445362 8.445587 -4.64458 8.445587 -0.0000491979 C 8.445587 4.644482 4.644806 8.445263 0.000274253 8.445263 C -4.644257 8.445263 -8.445038 4.644482 -8.445038 -0.0000491979 " transform="matrix(1,0,0,1,283.058319,708.33208)"/>
<path style="fill-rule:evenodd;fill:rgb(100%,100%,100%);fill-opacity:1;stroke-width:1;stroke-linecap:butt;stroke-linejoin:bevel;stroke:rgb(50.048876%,50.048876%,50.048876%);stroke-opacity:1;stroke-miterlimit:10;" d="M -89.197011 -0.00033964 C -89.197011 -49.055027 -49.056386 -89.191746 -0.00169846 -89.191746 C 49.056895 -89.191746 89.193614 -49.055027 89.193614 -0.00033964 C 89.193614 49.058254 49.056895 89.194973 -0.00169846 89.194973 C -49.056386 89.194973 -89.197011 49.058254 -89.197011 -0.00033964 " transform="matrix(1,0,0,1,337.947011,627.582371)"/>
<path style="fill-rule:evenodd;fill:rgb(100%,100%,100%);fill-opacity:1;stroke-width:1;stroke-linecap:butt;stroke-linejoin:bevel;stroke:rgb(50.048876%,50.048876%,50.048876%);stroke-opacity:1;stroke-miterlimit:10;" d="M -6.345335 -0.000207533 C -6.345335 -3.488489 -3.489866 -6.343958 -0.00158523 -6.343958 C 3.486696 -6.343958 6.342165 -3.488489 6.342165 -0.000207533 C 6.342165 3.488074 3.486696 6.343542 -0.00158523 6.343542 C -3.489866 6.343542 -6.345335 3.488074 -6.345335 -0.000207533 " transform="matrix(1,0,0,1,385.51721,710.433801)"/>
<path style="fill-rule:evenodd;fill:rgb(100%,100%,100%);fill-opacity:1;stroke-width:1;stroke-linecap:butt;stroke-linejoin:bevel;stroke:rgb(50.048876%,50.048876%,50.048876%);stroke-opacity:1;stroke-miterlimit:10;" d="M -11.792027 -0.00176149 C -11.792027 -6.486136 -6.483433 -11.79473 0.00094174 -11.79473 C 6.489223 -11.79473 11.79391 -6.486136 11.79391 -0.00176149 C 11.79391 6.48652 6.489223 11.795114 0.00094174 11.795114 C -6.483433 11.795114 -11.792027 6.48652 -11.792027 -0.00176149 " transform="matrix(1,0,0,1,402.815465,704.98223)"/>
<path style="fill-rule:evenodd;fill:rgb(100%,100%,100%);fill-opacity:1;stroke-width:1;stroke-linecap:butt;stroke-linejoin:bevel;stroke:rgb(50.048876%,50.048876%,50.048876%);stroke-opacity:1;stroke-miterlimit:10;" d="M -4.402551 -0.000752689 C -4.402551 -2.422628 -2.422083 -4.403096 -0.00020766 -4.403096 C 2.421667 -4.403096 4.406042 -2.422628 4.406042 -0.000752689 C 4.406042 2.421122 2.421667 4.405497 -0.00020766 4.405497 C -2.422083 4.405497 -4.402551 2.421122 -4.402551 -0.000752689 " transform="matrix(1,0,0,1,417.230676,712.371846)"/>
<path style="fill-rule:evenodd;fill:rgb(100%,100%,100%);fill-opacity:1;stroke-width:1;stroke-linecap:butt;stroke-linejoin:bevel;stroke:rgb(50.048876%,50.048876%,50.048876%);stroke-opacity:1;stroke-miterlimit:10;" d="M -29.12534 0.000461028 C -29.12534 -16.01907 -16.019871 -29.124539 -0.000339753 -29.124539 C 16.019191 -29.124539 29.12466 -16.01907 29.12466 0.000461028 C 29.12466 16.019992 16.019191 29.125461 -0.000339753 29.125461 C -16.019871 29.125461 -29.12534 16.019992 -29.12534 0.000461028 " transform="matrix(1,0,0,1,439.883152,687.651883)"/>
<path style="fill-rule:evenodd;fill:rgb(100%,100%,100%);fill-opacity:1;stroke-width:1;stroke-linecap:butt;stroke-linejoin:bevel;stroke:rgb(50.048876%,50.048876%,50.048876%);stroke-opacity:1;stroke-miterlimit:10;" d="M -4.938439 -0.00247405 C -4.938439 -2.717318 -2.715783 -4.939974 -0.000939174 -4.939974 C 2.713905 -4.939974 4.936561 -2.717318 4.936561 -0.00247405 C 4.936561 2.71237 2.713905 4.935026 -0.000939174 4.935026 C -2.715783 4.935026 -4.938439 2.71237 -4.938439 -0.00247405 " transform="matrix(1,0,0,1,463.868127,711.838412)"/>
<path style="fill-rule:evenodd;fill:rgb(100%,100%,100%);fill-opacity:1;stroke-width:1;stroke-linecap:butt;stroke-linejoin:bevel;stroke:rgb(50.048876%,50.048876%,50.048876%);stroke-opacity:1;stroke-miterlimit:10;" d="M -14.27089 -0.00152849 C -14.27089 -7.849185 -7.849015 -14.27106 -0.00135877 -14.27106 C 7.850204 -14.27106 14.272079 -7.849185 14.272079 -0.00152849 C 14.272079 7.850034 7.850204 14.271909 -0.00135877 14.271909 C -7.849015 14.271909 -14.27089 7.850034 -14.27089 -0.00152849 " transform="matrix(1,0,0,1,480.657609,702.505435)"/>
<path style="fill-rule:evenodd;fill:rgb(100%,100%,100%);fill-opacity:1;stroke-width:1;stroke-linecap:butt;stroke-linejoin:bevel;stroke:rgb(50.048876%,50.048876%,50.048876%);stroke-opacity:1;stroke-miterlimit:10;" d="M -8.445117 -0.0000491979 C -8.445117 -4.64458 -4.644335 -8.445362 0.000195895 -8.445362 C 4.644727 -8.445362 8.445508 -4.64458 8.445508 -0.0000491979 C 8.445508 4.644482 4.644727 8.445263 0.000195895 8.445263 C -4.644335 8.445263 -8.445117 4.644482 -8.445117 -0.0000491979 " transform="matrix(1,0,0,1,502.613085,708.33208)"/>
<path style="fill-rule:evenodd;fill:rgb(100%,100%,100%);fill-opacity:1;stroke-width:1;stroke-linecap:butt;stroke-linejoin:bevel;stroke:rgb(50.048876%,50.048876%,50.048876%);stroke-opacity:1;stroke-miterlimit:10;" d="M -158.567539 -0.00213237 C -158.567539 -87.21307 -87.21207 -158.568539 -0.00113231 -158.568539 C 87.209805 -158.568539 158.565274 -87.21307 158.565274 -0.00213237 C 158.565274 87.208805 87.209805 158.564274 -0.00113231 158.564274 C -87.21207 158.564274 -158.567539 87.208805 -158.567539 -0.00213237 " transform="matrix(1,0,0,1,575.798007,558.209164)"/>
<path style="fill-rule:evenodd;fill:rgb(100%,100%,100%);fill-opacity:1;stroke-width:1;stroke-linecap:butt;stroke-linejoin:bevel;stroke:rgb(50.048876%,50.048876%,50.048876%);stroke-opacity:1;stroke-miterlimit:10;" d="M -7.282779 0.00075218 C -7.282779 -4.003154 -4.005435 -7.280498 -0.00152859 -7.280498 C 4.002378 -7.280498 7.279721 -4.003154 7.279721 0.00075218 C 7.279721 4.004658 4.002378 7.282002 -0.00152859 7.282002 C -4.005435 7.282002 -7.282779 4.004658 -7.282779 0.00075218 " transform="matrix(1,0,0,1,643.755435,709.495342)"/>
<path style="fill-rule:evenodd;fill:rgb(100%,100%,100%);fill-opacity:1;stroke-width:1;stroke-linecap:butt;stroke-linejoin:bevel;stroke:rgb(50.048876%,50.048876%,50.048876%);stroke-opacity:1;stroke-miterlimit:10;" d="M -11.793185 -0.00176149 C -11.793185 -6.486136 -6.484591 -11.79473 -0.000216206 -11.79473 C 6.488065 -11.79473 11.792753 -6.486136 11.792753 -0.00176149 C 11.792753 6.48652 6.488065 11.795114 -0.000216206 11.795114 C -6.484591 11.795114 -11.793185 6.48652 -11.793185 -0.00176149 " transform="matrix(1,0,0,1,662.289279,704.98223)"/>
<path style="fill-rule:evenodd;fill:rgb(100%,100%,100%);fill-opacity:1;stroke-width:1;stroke-linecap:butt;stroke-linejoin:bevel;stroke:rgb(50.048876%,50.048876%,50.048876%);stroke-opacity:1;stroke-miterlimit:10;" d="M -3.953608 0.000926386 C -3.953608 -2.170949 -2.172358 -3.952199 -0.000482743 -3.952199 C 2.175299 -3.952199 3.952642 -2.170949 3.952642 0.000926386 C 3.952642 2.176708 2.175299 3.954051 -0.000482743 3.954051 C -2.172358 3.954051 -3.953608 2.176708 -3.953608 0.000926386 " transform="matrix(1,0,0,1,675.945795,712.823292)"/>
<path style="fill-rule:evenodd;fill:rgb(100%,100%,100%);fill-opacity:1;stroke-width:1;stroke-linecap:butt;stroke-linejoin:bevel;stroke:rgb(50.048876%,50.048876%,50.048876%);stroke-opacity:1;stroke-miterlimit:10;" d="M -22.297724 -0.00140111 C -22.297724 -12.26312 -12.262568 -22.298276 -0.000849231 -22.298276 C 12.264776 -22.298276 22.299932 -12.26312 22.299932 -0.00140111 C 22.299932 12.264224 12.264776 22.29938 -0.000849231 22.29938 C -12.262568 22.29938 -22.297724 12.264224 -22.297724 -0.00140111 " transform="matrix(1,0,0,1,694.723505,694.477964)"/>
<path style="fill-rule:evenodd;fill:rgb(100%,100%,100%);fill-opacity:1;stroke-width:1;stroke-linecap:butt;stroke-linejoin:bevel;stroke:rgb(50.048876%,50.048876%,50.048876%);stroke-opacity:1;stroke-miterlimit:10;" d="M -3.2363 -0.00136404 C -3.2363 -1.782614 -1.783175 -3.235739 -0.00192486 -3.235739 C 1.779325 -3.235739 3.23245 -1.782614 3.23245 -0.00136404 C 3.23245 1.779886 1.779325 3.233011 -0.00192486 3.233011 C -1.783175 3.233011 -3.2363 1.779886 -3.2363 -0.00136404 " transform="matrix(1,0,0,1,711.712862,713.540427)"/>
<path style="fill-rule:evenodd;fill:rgb(100%,100%,100%);fill-opacity:1;stroke-width:1;stroke-linecap:butt;stroke-linejoin:bevel;stroke:rgb(50.048876%,50.048876%,50.048876%);stroke-opacity:1;stroke-miterlimit:10;" d="M -8.445195 -0.0000491979 C -8.445195 -4.64458 -4.644414 -8.445362 0.000117537 -8.445362 C 4.644649 -8.445362 8.44543 -4.64458 8.44543 -0.0000491979 C 8.44543 4.644482 4.644649 8.445263 0.000117537 8.445263 C -4.644414 8.445263 -8.445195 4.644482 -8.445195 -0.0000491979 " transform="matrix(1,0,0,1,722.167851,708.33208)"/>
<path style="fill-rule:evenodd;fill:rgb(100%,100%,100%);fill-opacity:1;stroke-width:1;stroke-linecap:butt;stroke-linejoin:bevel;stroke:rgb(50.048876%,50.048876%,50.048876%);stroke-opacity:1;stroke-miterlimit:10;" d="M -4.404401 -0.000752689 C -4.404401 -2.422628 -2.420026 -4.407003 0.00184929 -4.407003 C 2.423724 -4.407003 4.408099 -2.422628 4.408099 -0.000752689 C 4.408099 2.421122 2.423724 4.405497 0.00184929 4.405497 C -2.420026 4.405497 -4.404401 2.421122 -4.404401 -0.000752689 " transform="matrix(1,0,0,1,734.365338,712.371846)"/>
<path style="fill-rule:evenodd;fill:rgb(100%,100%,100%);fill-opacity:1;stroke-width:1;stroke-linecap:butt;stroke-linejoin:bevel;stroke:rgb(50.048876%,50.048876%,50.048876%);stroke-opacity:1;stroke-miterlimit:10;" d="M -57.086617 -0.000849146 C -57.086617 -31.39538 -31.395211 -57.086787 -0.000679385 -57.086787 C 31.393852 -57.086787 57.085258 -31.39538 57.085258 -0.000849146 C 57.085258 31.393682 31.393852 57.085088 -0.000679385 57.085088 C -31.395211 57.085088 -57.086617 31.393682 -57.086617 -0.000849146 " transform="matrix(1,0,0,1,766.078804,659.692255)"/>
<path style="fill-rule:evenodd;fill:rgb(100%,100%,100%);fill-opacity:1;stroke-width:1;stroke-linecap:butt;stroke-linejoin:bevel;stroke:rgb(50.048876%,50.048876%,50.048876%);stroke-opacity:1;stroke-miterlimit:10;" d="M -4.939019 0.0014322 C -4.939019 -2.713412 -2.716362 -4.936068 -0.00151857 -4.936068 C 2.713325 -4.936068 4.935981 -2.713412 4.935981 0.0014322 C 4.935981 2.716276 2.713325 4.938932 -0.00151857 4.938932 C -2.716362 4.938932 -4.939019 2.716276 -4.939019 0.0014322 " transform="matrix(1,0,0,1,799.657769,711.838412)"/>
<path style="fill-rule:evenodd;fill:rgb(100%,100%,100%);fill-opacity:1;stroke-width:1;stroke-linecap:butt;stroke-linejoin:bevel;stroke:rgb(50.048876%,50.048876%,50.048876%);stroke-opacity:1;stroke-miterlimit:10;" d="M -9.910722 0.00115116 C -9.910722 -5.448068 -5.449785 -9.909005 -0.000566154 -9.909005 C 5.448653 -9.909005 9.90959 -5.448068 9.90959 0.00115116 C 9.90959 5.45037 5.448653 9.911307 -0.000566154 9.911307 C -5.449785 9.911307 -9.910722 5.45037 -9.910722 0.00115116 " transform="matrix(1,0,0,1,813.649004,706.866036)"/>
<path style="fill-rule:evenodd;fill:rgb(100%,100%,100%);fill-opacity:1;stroke-width:1;stroke-linecap:butt;stroke-linejoin:bevel;stroke:rgb(50.048876%,50.048876%,50.048876%);stroke-opacity:1;stroke-miterlimit:10;" d="M -3.952633 0.000926386 C -3.952633 -2.174855 -2.17529 -3.952199 0.000491604 -3.952199 C 2.176273 -3.952199 3.953617 -2.174855 3.953617 0.000926386 C 3.953617 2.176708 2.176273 3.954051 0.000491604 3.954051 C -2.17529 3.954051 -3.952633 2.176708 -3.952633 0.000926386 " transform="matrix(1,0,0,1,826.167477,712.823292)"/>
<path style="fill-rule:evenodd;fill:rgb(100%,100%,100%);fill-opacity:1;stroke-width:1;stroke-linecap:butt;stroke-linejoin:bevel;stroke:rgb(50.048876%,50.048876%,50.048876%);stroke-opacity:1;stroke-miterlimit:10;" d="M -29.123811 0.000461028 C -29.123811 -16.01907 -16.018342 -29.124539 0.00118883 -29.124539 C 16.02072 -29.124539 29.126189 -16.01907 29.126189 0.000461028 C 29.126189 16.019992 16.02072 29.125461 0.00118883 29.125461 C -16.018342 29.125461 -29.123811 16.019992 -29.123811 0.000461028 " transform="matrix(1,0,0,1,847.627717,687.651883)"/>
<path style="fill-rule:evenodd;fill:rgb(100%,100%,100%);fill-opacity:1;stroke-width:1;stroke-linecap:butt;stroke-linejoin:bevel;stroke:rgb(50.048876%,50.048876%,50.048876%);stroke-opacity:1;stroke-miterlimit:10;" d="M -5.57269 0.00126321 C -5.57269 -3.065143 -3.064878 -5.572956 0.00152851 -5.572956 C 3.067935 -5.572956 5.575747 -3.065143 5.575747 0.00126321 C 5.575747 3.067669 3.067935 5.575482 0.00152851 5.575482 C -3.064878 5.575482 -5.57269 3.067669 -5.57269 0.00126321 " transform="matrix(1,0,0,1,873.111753,711.201862)"/>
<path style="fill-rule:evenodd;fill:rgb(100%,100%,100%);fill-opacity:1;stroke-width:1;stroke-linecap:butt;stroke-linejoin:bevel;stroke:rgb(50.048876%,50.048876%,50.048876%);stroke-opacity:1;stroke-miterlimit:10;" d="M -17.616263 -0.0016522 C -17.616263 -9.693058 -9.690482 -17.61884 0.000924647 -17.61884 C 9.692331 -17.61884 17.618112 -9.693058 17.618112 -0.0016522 C 17.618112 9.689754 9.692331 17.615535 0.000924647 17.615535 C -9.690482 17.615535 -17.616263 9.689754 -17.616263 -0.0016522 " transform="matrix(1,0,0,1,892.932669,699.157902)"/>
<path style="fill-rule:evenodd;fill:rgb(100%,100%,100%);fill-opacity:1;stroke-width:1;stroke-linecap:butt;stroke-linejoin:bevel;stroke:rgb(50.048876%,50.048876%,50.048876%);stroke-opacity:1;stroke-miterlimit:10;" d="M -11.794343 -0.00176149 C -11.794343 -6.490043 -6.489655 -11.79473 -0.00137415 -11.79473 C 6.486907 -11.79473 11.791595 -6.490043 11.791595 -0.00176149 C 11.791595 6.48652 6.486907 11.791207 -0.00137415 11.791207 C -6.489655 11.791207 -11.794343 6.48652 -11.794343 -0.00176149 " transform="matrix(1,0,0,1,921.763093,704.98223)"/>
<path style="fill-rule:evenodd;fill:rgb(100%,100%,100%);fill-opacity:1;stroke-width:1;stroke-linecap:butt;stroke-linejoin:bevel;stroke:rgb(50.048876%,50.048876%,50.048876%);stroke-opacity:1;stroke-miterlimit:10;" d="M -356.777344 -0.000000000000056843 C -356.777344 -196.226563 -196.226563 -356.777344 -0.000000000000227374 -356.777344 C 196.226562 -356.777344 356.777344 -196.226563 356.777344 -0.000000000000056843 C 356.777344 196.226562 196.226562 356.777344 -0.000000000000227374 356.777344 C -196.226563 356.777344 -356.777344 196.226562 -356.777344 -0.000000000000056843 " transform="matrix(1,0,0,1,1051.5,360)"/>
<path style="fill-rule:evenodd;fill:rgb(100%,100%,100%);fill-opacity:1;stroke-width:1;stroke-linecap:butt;stroke-linejoin:bevel;stroke:rgb(50.048876%,50.048876%,50.048876%);stroke-opacity:1;stroke-miterlimit:10;" d="M -11.791595 -0.00176149 C -11.791595 -6.490043 -6.486907 -11.79473 0.00137415 -11.79473 C 6.489655 -11.79473 11.794343 -6.490043 11.794343 -0.00176149 C 11.794343 6.48652 6.489655 11.791207 0.00137415 11.791207 C -6.486907 11.791207 -11.791595 6.48652 -11.791595 -0.00176149 " transform="matrix(1,0,0,1,1181.236907,704.98223)"/>
<path style="fill-rule:evenodd;fill:rgb(100%,100%,100%);fill-opacity:1;stroke-width:1;stroke-linecap:butt;stroke-linejoin:bevel;stroke:rgb(50.048876%,50.048876%,50.048876%);stroke-opacity:1;stroke-miterlimit:10;" d="M -17.618112 -0.0016522 C -17.618112 -9.693058 -9.692331 -17.61884 -0.000924647 -17.61884 C 9.690482 -17.61884 17.616263 -9.693058 17.616263 -0.0016522 C 17.616263 9.689754 9.690482 17.615535 -0.000924647 17.615535 C -9.692331 17.615535 -17.618112 9.689754 -17.618112 -0.0016522 " transform="matrix(1,0,0,1,1210.067331,699.157902)"/>
<path style="fill-rule:evenodd;fill:rgb(100%,100%,100%);fill-opacity:1;stroke-width:1;stroke-linecap:butt;stroke-linejoin:bevel;stroke:rgb(50.048876%,50.048876%,50.048876%);stroke-opacity:1;stroke-miterlimit:10;" d="M -5.575747 0.00126321 C -5.575747 -3.065143 -3.067935 -5.572956 -0.00152851 -5.572956 C 3.064878 -5.572956 5.57269 -3.065143 5.57269 0.00126321 C 5.57269 3.067669 3.064878 5.575482 -0.00152851 5.575482 C -3.067935 5.575482 -5.575747 3.067669 -5.575747 0.00126321 " transform="matrix(1,0,0,1,1229.888247,711.201862)"/>
<path style="fill-rule:evenodd;fill:rgb(100%,100%,100%);fill-opacity:1;stroke-width:1;stroke-linecap:butt;stroke-linejoin:bevel;stroke:rgb(50.048876%,50.048876%,50.048876%);stroke-opacity:1;stroke-miterlimit:10;" d="M -29.126189 0.000461028 C -29.126189 -16.01907 -16.02072 -29.124539 -0.00118883 -29.124539 C 16.018342 -29.124539 29.123811 -16.01907 29.123811 0.000461028 C 29.123811 16.019992 16.018342 29.125461 -0.00118883 29.125461 C -16.02072 29.125461 -29.126189 16.019992 -29.126189 0.000461028 " transform="matrix(1,0,0,1,1255.372283,687.651883)"/>
<path style="fill-rule:evenodd;fill:rgb(100%,100%,100%);fill-opacity:1;stroke-width:1;stroke-linecap:butt;stroke-linejoin:bevel;stroke:rgb(50.048876%,50.048876%,50.048876%);stroke-opacity:1;stroke-miterlimit:10;" d="M -3.953617 0.000926386 C -3.953617 -2.174855 -2.176273 -3.952199 -0.000491604 -3.952199 C 2.17529 -3.952199 3.952633 -2.174855 3.952633 0.000926386 C 3.952633 2.176708 2.17529 3.954051 -0.000491604 3.954051 C -2.176273 3.954051 -3.953617 2.176708 -3.953617 0.000926386 " transform="matrix(1,0,0,1,1276.832523,712.823292)"/>
<path style="fill-rule:evenodd;fill:rgb(100%,100%,100%);fill-opacity:1;stroke-width:1;stroke-linecap:butt;stroke-linejoin:bevel;stroke:rgb(50.048876%,50.048876%,50.048876%);stroke-opacity:1;stroke-miterlimit:10;" d="M -9.90959 0.00115116 C -9.90959 -5.448068 -5.448653 -9.909005 0.000566154 -9.909005 C 5.449785 -9.909005 9.910722 -5.448068 9.910722 0.00115116 C 9.910722 5.45037 5.449785 9.911307 0.000566154 9.911307 C -5.448653 9.911307 -9.90959 5.45037 -9.90959 0.00115116 " transform="matrix(1,0,0,1,1289.350996,706.866036)"/>
<path style="fill-rule:evenodd;fill:rgb(100%,100%,100%);fill-opacity:1;stroke-width:1;stroke-linecap:butt;stroke-linejoin:bevel;stroke:rgb(50.048876%,50.048876%,50.048876%);stroke-opacity:1;stroke-miterlimit:10;" d="M -4.935981 0.0014322 C -4.935981 -2.713412 -2.713325 -4.936068 0.00151857 -4.936068 C 2.716362 -4.936068 4.939019 -2.713412 4.939019 0.0014322 C 4.939019 2.716276 2.716362 4.938932 0.00151857 4.938932 C -2.713325 4.938932 -4.935981 2.716276 -4.935981 0.0014322 " transform="matrix(1,0,0,1,1303.342231,711.838412)"/>
<path style="fill-rule:evenodd;fill:rgb(100%,100%,100%);fill-opacity:1;stroke-width:1;stroke-linecap:butt;stroke-linejoin:bevel;stroke:rgb(50.048876%,50.048876%,50.048876%);stroke-opacity:1;stroke-miterlimit:10;" d="M -57.085258 -0.000849146 C -57.085258 -31.39538 -31.393852 -57.086787 0.000679385 -57.086787 C 31.395211 -57.086787 57.086617 -31.39538 57.086617 -0.000849146 C 57.086617 31.393682 31.395211 57.085088 0.000679385 57.085088 C -31.393852 57.085088 -57.085258 31.393682 -57.085258 -0.000849146 " transform="matrix(1,0,0,1,1336.921196,659.692255)"/>
<path style="fill-rule:evenodd;fill:rgb(100%,100%,100%);fill-opacity:1;stroke-width:1;stroke-linecap:butt;stroke-linejoin:bevel;stroke:rgb(50.048876%,50.048876%,50.048876%);stroke-opacity:1;stroke-miterlimit:10;" d="M -4.408099 -0.000752689 C -4.408099 -2.422628 -2.423724 -4.407003 -0.00184929 -4.407003 C 2.420026 -4.407003 4.404401 -2.422628 4.404401 -0.000752689 C 4.404401 2.421122 2.420026 4.405497 -0.00184929 4.405497 C -2.423724 4.405497 -4.408099 2.421122 -4.408099 -0.000752689 " transform="matrix(1,0,0,1,1368.634662,712.371846)"/>
<path style="fill-rule:evenodd;fill:rgb(100%,100%,100%);fill-opacity:1;stroke-width:1;stroke-linecap:butt;stroke-linejoin:bevel;stroke:rgb(50.048876%,50.048876%,50.048876%);stroke-opacity:1;stroke-miterlimit:10;" d="M -8.44543 -0.0000491979 C -8.44543 -4.64458 -4.644649 -8.445362 -0.000117537 -8.445362 C 4.644414 -8.445362 8.445195 -4.64458 8.445195 -0.0000491979 C 8.445195 4.644482 4.644414 8.445263 -0.000117537 8.445263 C -4.644649 8.445263 -8.44543 4.644482 -8.44543 -0.0000491979 " transform="matrix(1,0,0,1,1380.832149,708.33208)"/>
<path style="fill-rule:evenodd;fill:rgb(100%,100%,100%);fill-opacity:1;stroke-width:1;stroke-linecap:butt;stroke-linejoin:bevel;stroke:rgb(50.048876%,50.048876%,50.048876%);stroke-opacity:1;stroke-miterlimit:10;" d="M -3.23245 -0.00136404 C -3.23245 -1.782614 -1.779325 -3.235739 0.00192486 -3.235739 C 1.783175 -3.235739 3.2363 -1.782614 3.2363 -0.00136404 C 3.2363 1.779886 1.783175 3.233011 0.00192486 3.233011 C -1.779325 3.233011 -3.23245 1.779886 -3.23245 -0.00136404 " transform="matrix(1,0,0,1,1391.287138,713.540427)"/>
<path style="fill-rule:evenodd;fill:rgb(100%,100%,100%);fill-opacity:1;stroke-width:1;stroke-linecap:butt;stroke-linejoin:bevel;stroke:rgb(50.048876%,50.048876%,50.048876%);stroke-opacity:1;stroke-miterlimit:10;" d="M -22.296026 -0.00140111 C -22.296026 -12.267026 -12.264776 -22.298276 0.000849231 -22.298276 C 12.266474 -22.298276 22.297724 -12.267026 22.297724 -0.00140111 C 22.297724 12.264224 12.266474 22.295474 0.000849231 22.295474 C -12.264776 22.295474 -22.296026 12.264224 -22.296026 -0.00140111 " transform="matrix(1,0,0,1,1408.276495,694.477964)"/>
<path style="fill-rule:evenodd;fill:rgb(100%,100%,100%);fill-opacity:1;stroke-width:1;stroke-linecap:butt;stroke-linejoin:bevel;stroke:rgb(50.048876%,50.048876%,50.048876%);stroke-opacity:1;stroke-miterlimit:10;" d="M -3.952642 0.000926386 C -3.952642 -2.174855 -2.175299 -3.952199 0.000482743 -3.952199 C 2.176264 -3.952199 3.953608 -2.174855 3.953608 0.000926386 C 3.953608 2.176708 2.176264 3.954051 0.000482743 3.954051 C -2.175299 3.954051 -3.952642 2.176708 -3.952642 0.000926386 " transform="matrix(1,0,0,1,1427.054205,712.823292)"/>
<path style="fill-rule:evenodd;fill:rgb(100%,100%,100%);fill-opacity:1;stroke-width:1;stroke-linecap:butt;stroke-linejoin:bevel;stroke:rgb(50.048876%,50.048876%,50.048876%);stroke-opacity:1;stroke-miterlimit:10;" d="M -11.792753 -0.00176149 C -11.792753 -6.490043 -6.488065 -11.79473 0.000216206 -11.79473 C 6.488497 -11.79473 11.793185 -6.490043 11.793185 -0.00176149 C 11.793185 6.48652 6.488497 11.791207 0.000216206 11.791207 C -6.488065 11.791207 -11.792753 6.48652 -11.792753 -0.00176149 " transform="matrix(1,0,0,1,1440.710721,704.98223)"/>
<path style="fill-rule:evenodd;fill:rgb(100%,100%,100%);fill-opacity:1;stroke-width:1;stroke-linecap:butt;stroke-linejoin:bevel;stroke:rgb(50.048876%,50.048876%,50.048876%);stroke-opacity:1;stroke-miterlimit:10;" d="M -7.279721 0.00075218 C -7.279721 -4.003154 -4.002378 -7.280498 0.00152859 -7.280498 C 4.005435 -7.280498 7.282779 -4.003154 7.282779 0.00075218 C 7.282779 4.004658 4.005435 7.282002 0.00152859 7.282002 C -4.002378 7.282002 -7.279721 4.004658 -7.279721 0.00075218 " transform="matrix(1,0,0,1,1459.244565,709.495342)"/>
<path style="fill-rule:evenodd;fill:rgb(100%,100%,100%);fill-opacity:1;stroke-width:1;stroke-linecap:butt;stroke-linejoin:bevel;stroke:rgb(50.048876%,50.048876%,50.048876%);stroke-opacity:1;stroke-miterlimit:10;" d="M -158.565274 0.00177388 C -158.565274 -87.209164 -87.209805 -158.564632 0.00113231 -158.564632 C 87.21207 -158.564632 158.567539 -87.209164 158.567539 0.00177388 C 158.567539 87.212711 87.21207 158.56818 0.00113231 158.56818 C -87.209805 158.56818 -158.565274 87.212711 -158.565274 0.00177388 " transform="matrix(1,0,0,1,1527.201993,558.209164)"/>
<path style="fill-rule:evenodd;fill:rgb(100%,100%,100%);fill-opacity:1;stroke-width:1;stroke-linecap:butt;stroke-linejoin:bevel;stroke:rgb(50.048876%,50.048876%,50.048876%);stroke-opacity:1;stroke-miterlimit:10;" d="M -8.445508 -0.0000491979 C -8.445508 -4.64458 -4.644727 -8.445362 -0.000195895 -8.445362 C 4.644335 -8.445362 8.445117 -4.64458 8.445117 -0.0000491979 C 8.445117 4.644482 4.644335 8.445263 -0.000195895 8.445263 C -4.644727 8.445263 -8.445508 4.644482 -8.445508 -0.0000491979 " transform="matrix(1,0,0,1,1600.386915,708.33208)"/>
<path style="fill-rule:evenodd;fill:rgb(100%,100%,100%);fill-opacity:1;stroke-width:1;stroke-linecap:butt;stroke-linejoin:bevel;stroke:rgb(50.048876%,50.048876%,50.048876%);stroke-opacity:1;stroke-miterlimit:10;" d="M -14.268172 -0.00152849 C -14.268172 -7.849185 -7.846297 -14.27106 0.00135877 -14.27106 C 7.849015 -14.27106 14.27089 -7.849185 14.27089 -0.00152849 C 14.27089 7.846128 7.849015 14.268003 0.00135877 14.268003 C -7.846297 14.268003 -14.268172 7.846128 -14.268172 -0.00152849 " transform="matrix(1,0,0,1,1622.342391,702.505435)"/>
<path style="fill-rule:evenodd;fill:rgb(100%,100%,100%);fill-opacity:1;stroke-width:1;stroke-linecap:butt;stroke-linejoin:bevel;stroke:rgb(50.048876%,50.048876%,50.048876%);stroke-opacity:1;stroke-miterlimit:10;" d="M -4.936561 0.0014322 C -4.936561 -2.713412 -2.713905 -4.936068 0.000939174 -4.936068 C 2.715783 -4.936068 4.938439 -2.713412 4.938439 0.0014322 C 4.938439 2.716276 2.715783 4.938932 0.000939174 4.938932 C -2.713905 4.938932 -4.936561 2.716276 -4.936561 0.0014322 " transform="matrix(1,0,0,1,1639.131873,711.838412)"/>
<path style="fill-rule:evenodd;fill:rgb(100%,100%,100%);fill-opacity:1;stroke-width:1;stroke-linecap:butt;stroke-linejoin:bevel;stroke:rgb(50.048876%,50.048876%,50.048876%);stroke-opacity:1;stroke-miterlimit:10;" d="M -29.12466 0.000461028 C -29.12466 -16.01907 -16.019191 -29.124539 0.000339753 -29.124539 C 16.019871 -29.124539 29.12534 -16.01907 29.12534 0.000461028 C 29.12534 16.019992 16.019871 29.125461 0.000339753 29.125461 C -16.019191 29.125461 -29.12466 16.019992 -29.12466 0.000461028 " transform="matrix(1,0,0,1,1663.116848,687.651883)"/>
<path style="fill-rule:evenodd;fill:rgb(100%,100%,100%);fill-opacity:1;stroke-width:1;stroke-linecap:butt;stroke-linejoin:bevel;stroke:rgb(50.048876%,50.048876%,50.048876%);stroke-opacity:1;stroke-miterlimit:10;" d="M -4.406042 -0.000752689 C -4.406042 -2.422628 -2.421667 -4.407003 0.00020766 -4.407003 C 2.422083 -4.407003 4.406458 -2.422628 4.406458 -0.000752689 C 4.406458 2.421122 2.422083 4.405497 0.00020766 4.405497 C -2.421667 4.405497 -4.406042 2.421122 -4.406042 -0.000752689 " transform="matrix(1,0,0,1,1685.769324,712.371846)"/>
<path style="fill-rule:evenodd;fill:rgb(100%,100%,100%);fill-opacity:1;stroke-width:1;stroke-linecap:butt;stroke-linejoin:bevel;stroke:rgb(50.048876%,50.048876%,50.048876%);stroke-opacity:1;stroke-miterlimit:10;" d="M -11.79391 -0.00176149 C -11.79391 -6.490043 -6.489223 -11.79473 -0.00094174 -11.79473 C 6.48734 -11.79473 11.792027 -6.490043 11.792027 -0.00176149 C 11.792027 6.48652 6.48734 11.791207 -0.00094174 11.791207 C -6.489223 11.791207 -11.79391 6.48652 -11.79391 -0.00176149 " transform="matrix(1,0,0,1,1700.184535,704.98223)"/>
<path style="fill-rule:evenodd;fill:rgb(100%,100%,100%);fill-opacity:1;stroke-width:1;stroke-linecap:butt;stroke-linejoin:bevel;stroke:rgb(50.048876%,50.048876%,50.048876%);stroke-opacity:1;stroke-miterlimit:10;" d="M -6.342165 -0.000207533 C -6.342165 -3.488489 -3.486696 -6.343958 0.00158523 -6.343958 C 3.489866 -6.343958 6.345335 -3.488489 6.345335 -0.000207533 C 6.345335 3.488074 3.489866 6.343542 0.00158523 6.343542 C -3.486696 6.343542 -6.342165 3.488074 -6.342165 -0.000207533 " transform="matrix(1,0,0,1,1717.48279,710.433801)"/>
<path style="fill-rule:evenodd;fill:rgb(100%,100%,100%);fill-opacity:1;stroke-width:1;stroke-linecap:butt;stroke-linejoin:bevel;stroke:rgb(50.048876%,50.048876%,50.048876%);stroke-opacity:1;stroke-miterlimit:10;" d="M -89.193614 -0.00033964 C -89.193614 -49.058933 -49.056895 -89.195652 0.00169846 -89.195652 C 49.060292 -89.195652 89.197011 -49.058933 89.197011 -0.00033964 C 89.197011 49.058254 49.060292 89.194973 0.00169846 89.194973 C -49.056895 89.194973 -89.193614 49.058254 -89.193614 -0.00033964 " transform="matrix(1,0,0,1,1765.052989,627.582371)"/>
<path style="fill-rule:evenodd;fill:rgb(100%,100%,100%);fill-opacity:1;stroke-width:1;stroke-linecap:butt;stroke-linejoin:bevel;stroke:rgb(50.048876%,50.048876%,50.048876%);stroke-opacity:1;stroke-miterlimit:10;" d="M -8.445587 -0.0000491979 C -8.445587 -4.64458 -4.644806 -8.445362 -0.000274253 -8.445362 C 4.644257 -8.445362 8.445038 -4.64458 8.445038 -0.0000491979 C 8.445038 4.644482 4.644257 8.445263 -0.000274253 8.445263 C -4.644806 8.445263 -8.445587 4.644482 -8.445587 -0.0000491979 " transform="matrix(1,0,0,1,1819.941681,708.33208)"/>
<path style="fill-rule:evenodd;fill:rgb(100%,100%,100%);fill-opacity:1;stroke-width:1;stroke-linecap:butt;stroke-linejoin:bevel;stroke:rgb(50.048876%,50.048876%,50.048876%);stroke-opacity:1;stroke-miterlimit:10;" d="M -17.617904 -0.0016522 C -17.617904 -9.693058 -9.692123 -17.61884 -0.000716987 -17.61884 C 9.690689 -17.61884 17.616471 -9.693058 17.616471 -0.0016522 C 17.616471 9.689754 9.690689 17.615535 -0.000716987 17.615535 C -9.692123 17.615535 -17.617904 9.689754 -17.617904 -0.0016522 " transform="matrix(1,0,0,1,1844.336654,699.157902)"/>
<path style="fill-rule:evenodd;fill:rgb(100%,100%,100%);fill-opacity:1;stroke-width:1;stroke-linecap:butt;stroke-linejoin:bevel;stroke:rgb(50.048876%,50.048876%,50.048876%);stroke-opacity:1;stroke-miterlimit:10;" d="M -7.282099 0.00075218 C -7.282099 -4.003154 -4.004755 -7.280498 -0.00084908 -7.280498 C 4.003057 -7.280498 7.280401 -4.003154 7.280401 0.00075218 C 7.280401 4.004658 4.003057 7.282002 -0.00084908 7.282002 C -4.004755 7.282002 -7.282099 4.004658 -7.282099 0.00075218 " transform="matrix(1,0,0,1,1866.98913,709.495342)"/>
<path style="fill-rule:evenodd;fill:rgb(100%,100%,100%);fill-opacity:1;stroke-width:1;stroke-linecap:butt;stroke-linejoin:bevel;stroke:rgb(50.048876%,50.048876%,50.048876%);stroke-opacity:1;stroke-miterlimit:10;" d="M -57.087806 -0.000849146 C -57.087806 -31.39538 -31.396399 -57.086787 -0.0018681 -57.086787 C 31.392663 -57.086787 57.084069 -31.39538 57.084069 -0.000849146 C 57.084069 31.393682 31.392663 57.085088 -0.0018681 57.085088 C -31.396399 57.085088 -57.087806 31.393682 -57.087806 -0.000849146 " transform="matrix(1,0,0,1,1907.763587,659.692255)"/>
<path style="fill-rule:evenodd;fill:rgb(100%,100%,100%);fill-opacity:1;stroke-width:1;stroke-linecap:butt;stroke-linejoin:bevel;stroke:rgb(50.048876%,50.048876%,50.048876%);stroke-opacity:1;stroke-miterlimit:10;" d="M -11.791162 -0.00176149 C -11.791162 -6.490043 -6.486475 -11.79473 0.00180656 -11.79473 C 6.490088 -11.79473 11.794775 -6.490043 11.794775 -0.00176149 C 11.794775 6.48652 6.490088 11.791207 0.00180656 11.791207 C -6.486475 11.791207 -11.791162 6.48652 -11.791162 -0.00176149 " transform="matrix(1,0,0,1,1959.65835,704.98223)"/>
<path style="fill-rule:evenodd;fill:rgb(100%,100%,100%);fill-opacity:1;stroke-width:1;stroke-linecap:butt;stroke-linejoin:bevel;stroke:rgb(50.048876%,50.048876%,50.048876%);stroke-opacity:1;stroke-miterlimit:10;" d="M -39.642267 -0.00184929 C -39.642267 -21.806537 -21.806329 -39.642474 -0.00164163 -39.642474 C 21.803046 -39.642474 39.638983 -21.806537 39.638983 -0.00184929 C 39.638983 21.802838 21.803046 39.638776 -0.00164163 39.638776 C -21.806329 39.638776 -39.642267 21.802838 -39.642267 -0.00184929 " transform="matrix(1,0,0,1,2002.903985,677.134662)"/>
<path style="fill-rule:evenodd;fill:rgb(100%,100%,100%);fill-opacity:1;stroke-width:1;stroke-linecap:butt;stroke-linejoin:bevel;stroke:rgb(50.048876%,50.048876%,50.048876%);stroke-opacity:1;stroke-miterlimit:10;" d="M -29.123132 0.000461028 C -29.123132 -16.01907 -16.017663 -29.124539 0.00186834 -29.124539 C 16.0214 -29.124539 29.126868 -16.01907 29.126868 0.000461028 C 29.126868 16.019992 16.0214 29.125461 0.00186834 29.125461 C -16.017663 29.125461 -29.123132 16.019992 -29.123132 0.000461028 " transform="matrix(1,0,0,1,2070.861413,687.651883)"/>
</g>
</svg>
