<?xml version="1.0" encoding="UTF-8"?>
<svg xmlns="http://www.w3.org/2000/svg" xmlns:xlink="http://www.w3.org/1999/xlink" width="840.82118pt" height="476.083959pt" viewBox="0 0 840.82118 476.083959" version="1.1">
<g id="surface1489692">
<path style="fill-rule:evenodd;fill:rgb(100%,100%,100%);fill-opacity:1;stroke-width:1;stroke-linecap:butt;stroke-linejoin:bevel;stroke:rgb(50.048876%,50.048876%,50.048876%);stroke-opacity:1;stroke-miterlimit:10;" d="M -37.410205 0.00147195 C -37.410205 -20.572747 -20.574267 -37.408684 -0.0000485735 -37.408684 C 20.57417 -37.408684 37.410108 -20.572747 37.410108 0.00147195 C 37.410108 20.575691 20.57417 37.407722 -0.0000485735 37.407722 C -20.574267 37.407722 -37.410205 20.575691 -37.410205 0.00147195 " transform="matrix(1,0,0,1,41.734424,434.396966)"/>
<path style="fill-rule:evenodd;fill:rgb(100%,100%,100%);fill-opacity:1;stroke-width:1;stroke-linecap:butt;stroke-linejoin:bevel;stroke:rgb(50.048876%,50.048876%,50.048876%);stroke-opacity:1;stroke-miterlimit:10;" d="M -11.546013 0.00177831 C -11.546013 -6.349784 -6.3507 -11.545097 0.000862321 -11.545097 C 6.352425 -11.545097 11.547737 -6.349784 11.547737 0.00177831 C 11.547737 6.349435 6.352425 11.544747 0.000862321 11.544747 C -6.3507 11.544747 -11.546013 6.349435 -11.546013 0.00177831 " transform="matrix(1,0,0,1,83.299919,460.25994)"/>
<path style="fill-rule:evenodd;fill:rgb(100%,100%,100%);fill-opacity:1;stroke-width:1;stroke-linecap:butt;stroke-linejoin:bevel;stroke:rgb(50.048876%,50.048876%,50.048876%);stroke-opacity:1;stroke-miterlimit:10;" d="M -5.536648 0.00139385 C -5.536648 -3.041575 -3.04446 -5.533762 -0.00149166 -5.533762 C 3.041477 -5.533762 5.533665 -3.041575 5.533665 0.00139385 C 5.533665 3.044363 3.041477 5.53655 -0.00149166 5.53655 C -3.04446 5.53655 -5.536648 3.044363 -5.536648 0.00139385 " transform="matrix(1,0,0,1,99.286648,466.272044)"/>
<path style="fill-rule:evenodd;fill:rgb(50.048876%,50.048876%,50.048876%);fill-opacity:1;stroke-width:1;stroke-linecap:butt;stroke-linejoin:bevel;stroke:rgb(50.048876%,50.048876%,50.048876%);stroke-opacity:1;stroke-miterlimit:10;" d="M -3.234585 0.000469103 C -3.234585 -1.780781 -1.78146 -3.233906 -0.000210315 -3.233906 C 1.78104 -3.233906 3.234165 -1.780781 3.234165 0.000469103 C 3.234165 1.781719 1.78104 3.234844 -0.000210315 3.234844 C -1.78146 3.234844 -3.234585 1.781719 -3.234585 0.000469103 " transform="matrix(1,0,0,1,107.75021,468.569843)"/>
<path style="fill-rule:evenodd;fill:rgb(100%,100%,100%);fill-opacity:1;stroke-width:1;stroke-linecap:butt;stroke-linejoin:bevel;stroke:rgb(50.048876%,50.048876%,50.048876%);stroke-opacity:1;stroke-miterlimit:10;" d="M -58.452101 0.00103522 C -58.452101 -32.147402 -32.147413 -58.45209 0.00102438 -58.45209 C 32.149462 -58.45209 58.450243 -32.147402 58.450243 0.00103522 C 58.450243 32.149473 32.149462 58.450254 0.00102438 58.450254 C -32.147413 58.450254 -58.452101 32.149473 -58.452101 0.00103522 " transform="matrix(1,0,0,1,135.256788,413.354434)"/>
<path style="fill-rule:evenodd;fill:rgb(100%,100%,100%);fill-opacity:1;stroke-width:1;stroke-linecap:butt;stroke-linejoin:bevel;stroke:rgb(50.048876%,50.048876%,50.048876%);stroke-opacity:1;stroke-miterlimit:10;" d="M -103.912552 -0.00154799 C -103.912552 -57.153892 -57.150833 -103.91561 0.00151054 -103.91561 C 57.153854 -103.91561 103.915573 -57.153892 103.915573 -0.00154799 C 103.915573 57.150796 57.153854 103.912515 0.00151054 103.912515 C -57.150833 103.912515 -103.912552 57.150796 -103.912552 -0.00154799 " transform="matrix(1,0,0,1,291.127396,367.892173)"/>
<path style="fill-rule:evenodd;fill:rgb(100%,100%,100%);fill-opacity:1;stroke-width:1;stroke-linecap:butt;stroke-linejoin:bevel;stroke:rgb(50.048876%,50.048876%,50.048876%);stroke-opacity:1;stroke-miterlimit:10;" d="M -233.806111 0.000000000000028422 C -233.806111 -128.59375 -128.595173 -233.804687 -0.00142337 -233.804687 C 128.592327 -233.804687 233.803264 -128.59375 233.803264 0.000000000000028422 C 233.803264 128.59375 128.592327 233.804688 -0.00142337 233.804688 C -128.595173 233.804688 -233.806111 128.59375 -233.806111 0.000000000000028422 " transform="matrix(1,0,0,1,602.868611,238)"/>
</g>
</svg>
