<?xml version="1.0" encoding="UTF-8"?>
<svg xmlns="http://www.w3.org/2000/svg" xmlns:xlink="http://www.w3.org/1999/xlink" width="208.467686pt" height="208.471889pt" viewBox="0 0 208.467686 208.471889" version="1.1">
<g id="surface779965">
<path style="fill:none;stroke-width:1;stroke-linecap:butt;stroke-linejoin:bevel;stroke:rgb(50.048876%,50.048876%,50.048876%);stroke-opacity:1;stroke-miterlimit:10;" d="M 99.998319 0 L 99.978788 1.257812 L 99.928006 2.515625 L 99.838163 3.773438 L 99.713163 5.03125 L 99.553006 6.285156 L 99.357694 7.539062 L 99.127225 8.792969 L 98.8616 10.046875 L 98.560819 11.296875 L 98.224881 12.546875 L 97.853788 13.792969 L 97.447538 15.039062 L 97.006131 16.28125 L 96.529569 17.519531 L 96.01785 18.757812 L 95.474881 19.992188 L 94.896756 21.222656 L 94.287381 22.449219 L 93.638944 23.671875 L 92.963163 24.894531 L 92.252225 26.109375 L 91.506131 27.320312 L 90.728788 28.53125 L 89.920194 29.734375 L 89.076444 30.929688 L 88.20535 32.125 L 87.2991 33.3125 L 86.365506 34.496094 L 85.396756 35.675781 L 84.400663 36.847656 L 83.373319 38.015625 L 82.318631 39.175781 L 81.232694 40.328125 L 80.115506 41.476562 L 78.974881 42.617188 L 77.803006 43.753906 L 76.603788 44.878906 L 75.377225 46 L 74.123319 47.113281 L 72.842069 48.21875 L 71.537381 49.316406 L 70.20535 50.40625 L 68.849881 51.492188 L 67.470975 52.566406 L 66.064725 53.628906 L 64.638944 54.6875 L 63.185819 55.738281 L 61.713163 56.777344 L 60.217069 57.808594 L 58.701444 58.828125 L 57.162381 59.84375 L 55.603788 60.84375 L 54.025663 61.839844 L 52.428006 62.820312 L 50.814725 63.796875 L 49.178006 64.757812 L 47.525663 65.710938 L 45.857694 66.65625 L 44.1741 67.589844 L 42.474881 68.507812 L 40.760038 69.421875 L 39.029569 70.320312 L 37.283475 71.210938 L 35.525663 72.085938 L 33.756131 72.953125 L 31.974881 73.808594 L 30.181913 74.648438 L 28.377225 75.480469 L 26.564725 76.300781 L 24.740506 77.105469 L 22.908475 77.902344 L 21.064725 78.683594 L 19.217069 79.453125 L 17.3616 80.210938 L 15.502225 80.957031 L 13.635038 81.6875 L 11.763944 82.40625 L 9.888944 83.113281 L 8.010038 83.808594 L 6.127225 84.488281 L 4.240506 85.152344 L 2.357694 85.804688 L 0.470975 86.445312 L -1.415744 87.070312 L -3.302462 87.683594 L -5.189181 88.28125 L -7.071994 88.863281 L -8.9509 89.433594 L -10.829806 89.988281 L -12.704806 90.53125 L -14.571994 91.058594 L -16.435275 91.570312 L -18.29465 92.070312 L -20.146212 92.550781 L -21.989962 93.023438 L -23.8259 93.476562 L -25.654025 93.914062 L -27.474337 94.339844 L -29.282931 94.75 L -31.083712 95.144531 L -32.868869 95.523438 L -34.646212 95.886719 L -36.411837 96.238281 L -38.161837 96.570312 L -39.900119 96.890625 L -41.622775 97.195312 L -43.329806 97.484375 L -45.021212 97.753906 L -46.696994 98.011719 L -48.35715 98.253906 L -50.001681 98.480469 L -51.626681 98.691406 L -53.23215 98.886719 L -54.821994 99.066406 L -56.3884 99.230469 L -57.939181 99.378906 L -59.466525 99.507812 L -60.970431 99.625 L -62.454806 99.726562 L -63.91965 99.8125 L -65.35715 99.882812 L -66.775119 99.933594 L -68.165744 99.972656 L -69.536837 99.992188 L -70.880587 100 L -72.196994 99.988281 L -73.489962 99.964844 L -74.755587 99.921875 L -75.997775 99.867188 L -77.208712 99.792969 L -78.396212 99.703125 L -79.552462 99.597656 L -80.681369 99.476562 L -81.782931 99.34375 L -82.853244 99.191406 L -83.896212 99.023438 L -84.907931 98.839844 L -85.8884 98.640625 L -86.837619 98.425781 L -87.759494 98.195312 L -88.650119 97.949219 L -89.505587 97.6875 L -90.329806 97.414062 L -91.122775 97.121094 L -91.884494 96.8125 L -92.614962 96.488281 L -93.310275 96.152344 L -93.970431 95.800781 L -94.599337 95.429688 L -95.193087 95.046875 L -95.755587 94.648438 L -96.282931 94.234375 L -96.775119 93.808594 L -97.23215 93.363281 L -97.657931 92.90625 L -98.04465 92.433594 L -98.400119 91.945312 L -98.716525 91.445312 L -99.001681 90.925781 L -99.251681 90.398438 L -99.462619 89.851562 L -99.642306 89.292969 L -99.782931 88.71875 L -99.892306 88.132812 L -99.962619 87.53125 L -99.997775 86.914062 L -99.997775 86.285156 L -99.962619 85.644531 L -99.892306 84.988281 L -99.782931 84.316406 L -99.642306 83.636719 L -99.462619 82.9375 L -99.251681 82.230469 L -99.001681 81.507812 L -98.716525 80.773438 L -98.400119 80.023438 L -98.04465 79.261719 L -97.657931 78.492188 L -97.23215 77.703125 L -96.775119 76.90625 L -96.282931 76.097656 L -95.755587 75.273438 L -95.193087 74.441406 L -94.599337 73.59375 L -93.970431 72.738281 L -93.310275 71.867188 L -92.614962 70.988281 L -91.884494 70.097656 L -91.122775 69.195312 L -90.329806 68.28125 L -89.505587 67.355469 L -88.650119 66.421875 L -87.759494 65.476562 L -86.837619 64.519531 L -85.8884 63.554688 L -84.907931 62.578125 L -83.896212 61.589844 L -82.853244 60.59375 L -81.782931 59.589844 L -80.681369 58.574219 L -79.552462 57.550781 L -78.396212 56.515625 L -77.208712 55.476562 L -75.997775 54.425781 L -74.755587 53.363281 L -73.489962 52.296875 L -72.196994 51.21875 L -70.880587 50.136719 L -69.536837 49.042969 L -68.165744 47.945312 L -66.775119 46.835938 L -65.35715 45.722656 L -63.91965 44.597656 L -62.454806 43.46875 L -60.970431 42.332031 L -59.466525 41.191406 L -57.939181 40.039062 L -56.3884 38.886719 L -54.821994 37.722656 L -53.23215 36.554688 L -51.626681 35.382812 L -50.001681 34.203125 L -48.35715 33.015625 L -46.696994 31.828125 L -45.021212 30.632812 L -43.329806 29.433594 L -41.622775 28.226562 L -39.900119 27.019531 L -38.161837 25.804688 L -36.411837 24.589844 L -34.646212 23.367188 L -32.868869 22.144531 L -31.083712 20.914062 L -29.282931 19.683594 L -27.474337 18.449219 L -25.654025 17.210938 L -23.8259 15.96875 L -21.989962 14.726562 L -20.146212 13.480469 L -18.29465 12.234375 L -16.435275 10.984375 L -14.571994 9.734375 L -12.704806 8.480469 L -10.829806 7.226562 L -8.9509 5.972656 L -7.071994 4.714844 L -5.189181 3.457031 L -3.302462 2.199219 L -1.415744 0.945312 L 0.470975 -0.316406 L 2.357694 -1.574219 L 4.240506 -2.828125 L 6.127225 -4.085938 L 8.010038 -5.34375 L 9.888944 -6.597656 L 11.763944 -7.855469 L 13.635038 -9.105469 L 15.502225 -10.359375 L 17.3616 -11.609375 L 19.217069 -12.859375 L 21.064725 -14.105469 L 22.908475 -15.347656 L 24.740506 -16.589844 L 26.564725 -17.828125 L 28.377225 -19.066406 L 30.181913 -20.296875 L 31.974881 -21.527344 L 33.756131 -22.753906 L 35.525663 -23.980469 L 37.283475 -25.199219 L 39.029569 -26.414062 L 40.760038 -27.625 L 42.474881 -28.832031 L 44.1741 -30.03125 L 45.857694 -31.230469 L 47.525663 -32.421875 L 49.178006 -33.609375 L 50.814725 -34.792969 L 52.428006 -35.96875 L 54.025663 -37.140625 L 55.603788 -38.304688 L 57.162381 -39.464844 L 58.701444 -40.617188 L 60.217069 -41.761719 L 61.713163 -42.902344 L 63.185819 -44.035156 L 64.638944 -45.160156 L 66.064725 -46.28125 L 67.470975 -47.390625 L 68.849881 -48.496094 L 70.20535 -49.589844 L 71.537381 -50.679688 L 72.842069 -51.757812 L 74.123319 -52.832031 L 75.377225 -53.894531 L 76.603788 -54.949219 L 77.803006 -55.996094 L 78.974881 -57.035156 L 80.115506 -58.0625 L 81.232694 -59.082031 L 82.318631 -60.09375 L 83.373319 -61.09375 L 84.400663 -62.085938 L 85.396756 -63.066406 L 86.365506 -64.039062 L 87.2991 -65 L 88.20535 -65.949219 L 89.076444 -66.890625 L 89.920194 -67.820312 L 90.728788 -68.738281 L 91.506131 -69.648438 L 92.252225 -70.542969 L 92.963163 -71.429688 L 93.638944 -72.304688 L 94.287381 -73.167969 L 94.896756 -74.019531 L 95.474881 -74.859375 L 96.01785 -75.6875 L 96.529569 -76.503906 L 97.006131 -77.308594 L 97.447538 -78.097656 L 97.853788 -78.878906 L 98.224881 -79.644531 L 98.560819 -80.398438 L 98.8616 -81.140625 L 99.127225 -81.871094 L 99.357694 -82.585938 L 99.553006 -83.289062 L 99.713163 -83.976562 L 99.838163 -84.65625 L 99.928006 -85.316406 L 99.978788 -85.964844 L 99.998319 -86.601562 L 99.978788 -87.226562 L 99.928006 -87.832031 L 99.838163 -88.425781 L 99.713163 -89.007812 L 99.553006 -89.574219 L 99.357694 -90.125 L 99.127225 -90.664062 L 98.8616 -91.1875 L 98.560819 -91.695312 L 98.224881 -92.191406 L 97.853788 -92.671875 L 97.447538 -93.136719 L 97.006131 -93.585938 L 96.529569 -94.023438 L 96.01785 -94.445312 L 95.474881 -94.851562 L 94.896756 -95.242188 L 94.287381 -95.617188 L 93.638944 -95.976562 L 92.963163 -96.324219 L 92.252225 -96.652344 L 91.506131 -96.96875 L 90.728788 -97.269531 L 89.920194 -97.550781 L 89.076444 -97.820312 L 88.20535 -98.074219 L 87.2991 -98.3125 L 86.365506 -98.535156 L 85.396756 -98.742188 L 84.400663 -98.933594 L 83.373319 -99.109375 L 82.318631 -99.269531 L 81.232694 -99.410156 L 80.115506 -99.539062 L 78.974881 -99.652344 L 77.803006 -99.75 L 76.603788 -99.832031 L 75.377225 -99.894531 L 74.123319 -99.945312 L 72.842069 -99.980469 L 71.537381 -99.996094 L 70.20535 -100 L 68.849881 -99.984375 L 67.470975 -99.957031 L 66.064725 -99.910156 L 64.638944 -99.847656 L 63.185819 -99.773438 L 61.713163 -99.679688 L 60.217069 -99.570312 L 58.701444 -99.445312 L 57.162381 -99.304688 L 55.603788 -99.148438 L 54.025663 -98.976562 L 52.428006 -98.789062 L 50.814725 -98.589844 L 49.178006 -98.371094 L 47.525663 -98.136719 L 45.857694 -97.886719 L 44.1741 -97.621094 L 42.474881 -97.339844 L 40.760038 -97.042969 L 39.029569 -96.734375 L 37.283475 -96.40625 L 35.525663 -96.066406 L 33.756131 -95.707031 L 31.974881 -95.335938 L 30.181913 -94.949219 L 28.377225 -94.546875 L 26.564725 -94.128906 L 24.740506 -93.699219 L 22.908475 -93.25 L 21.064725 -92.789062 L 19.217069 -92.3125 L 17.3616 -91.820312 L 15.502225 -91.316406 L 13.635038 -90.796875 L 11.763944 -90.261719 L 9.888944 -89.714844 L 8.010038 -89.152344 L 6.127225 -88.574219 L 4.240506 -87.984375 L 2.357694 -87.378906 L 0.470975 -86.757812 L -1.415744 -86.128906 L -3.302462 -85.480469 L -5.189181 -84.820312 L -7.071994 -84.148438 L -8.9509 -83.460938 L -10.829806 -82.761719 L -12.704806 -82.050781 L -14.571994 -81.324219 L -16.435275 -80.585938 L -18.29465 -79.835938 L -20.146212 -79.070312 L -21.989962 -78.296875 L -23.8259 -77.507812 L -25.654025 -76.707031 L -27.474337 -75.890625 L -29.282931 -75.066406 L -31.083712 -74.230469 L -32.868869 -73.382812 L -34.646212 -72.519531 L -36.411837 -71.648438 L -38.161837 -70.765625 L -39.900119 -69.871094 L -41.622775 -68.964844 L -43.329806 -68.050781 L -45.021212 -67.125 L -46.696994 -66.183594 L -48.35715 -65.238281 L -50.001681 -64.277344 L -51.626681 -63.308594 L -53.23215 -62.332031 L -54.821994 -61.34375 L -56.3884 -60.34375 L -57.939181 -59.335938 L -59.466525 -58.320312 L -60.970431 -57.292969 L -62.454806 -56.257812 L -63.91965 -55.214844 L -65.35715 -54.160156 L -66.775119 -53.097656 L -68.165744 -52.027344 L -69.536837 -50.949219 L -70.880587 -49.863281 L -72.196994 -48.769531 L -73.489962 -47.667969 L -74.755587 -46.558594 L -75.997775 -45.441406 L -77.208712 -44.316406 L -78.396212 -43.1875 L -79.552462 -42.046875 L -80.681369 -40.902344 L -81.782931 -39.753906 L -82.853244 -38.59375 L -83.896212 -37.429688 L -84.907931 -36.261719 L -85.8884 -35.085938 L -86.837619 -33.90625 L -87.759494 -32.71875 L -88.650119 -31.527344 L -89.505587 -30.332031 L -90.329806 -29.132812 L -91.122775 -27.925781 L -91.884494 -26.714844 L -92.614962 -25.503906 L -93.310275 -24.285156 L -93.970431 -23.0625 L -94.599337 -21.835938 L -95.193087 -20.605469 L -95.755587 -19.375 L -96.282931 -18.136719 L -96.775119 -16.898438 L -97.23215 -15.660156 L -97.657931 -14.414062 L -98.04465 -13.167969 L -98.400119 -11.921875 L -98.716525 -10.671875 L -99.001681 -9.421875 L -99.251681 -8.167969 L -99.462619 -6.914062 L -99.642306 -5.65625 L -99.782931 -4.402344 L -99.892306 -3.144531 L -99.962619 -1.886719 L -99.997775 -0.628906 L -99.997775 0.628906 L -99.962619 1.886719 L -99.892306 3.144531 L -99.782931 4.402344 L -99.642306 5.65625 L -99.462619 6.914062 L -99.251681 8.167969 L -99.001681 9.421875 L -98.716525 10.671875 L -98.400119 11.921875 L -98.04465 13.167969 L -97.657931 14.414062 L -97.23215 15.660156 L -96.775119 16.898438 L -96.282931 18.136719 L -95.755587 19.375 L -95.193087 20.605469 L -94.599337 21.835938 L -93.970431 23.0625 L -93.310275 24.285156 L -92.614962 25.503906 L -91.884494 26.714844 L -91.122775 27.925781 L -90.329806 29.132812 L -89.505587 30.332031 L -88.650119 31.527344 L -87.759494 32.71875 L -86.837619 33.90625 L -85.8884 35.085938 L -84.907931 36.261719 L -83.896212 37.429688 L -82.853244 38.59375 L -81.782931 39.753906 L -80.681369 40.902344 L -79.552462 42.046875 L -78.396212 43.1875 L -77.208712 44.316406 L -75.997775 45.441406 L -74.755587 46.558594 L -73.489962 47.667969 L -72.196994 48.769531 L -70.880587 49.863281 L -69.536837 50.949219 L -68.165744 52.027344 L -66.775119 53.097656 L -65.35715 54.160156 L -63.91965 55.214844 L -62.454806 56.257812 L -60.970431 57.292969 L -59.466525 58.320312 L -57.939181 59.335938 L -56.3884 60.34375 L -54.821994 61.34375 L -53.23215 62.332031 L -51.626681 63.308594 L -50.001681 64.277344 L -48.35715 65.238281 L -46.696994 66.183594 L -45.021212 67.125 L -43.329806 68.050781 L -41.622775 68.964844 L -39.900119 69.871094 L -38.161837 70.765625 L -36.411837 71.648438 L -34.646212 72.519531 L -32.868869 73.382812 L -31.083712 74.230469 L -29.282931 75.066406 L -27.474337 75.890625 L -25.654025 76.707031 L -23.8259 77.507812 L -21.989962 78.296875 L -20.146212 79.070312 L -18.29465 79.835938 L -16.435275 80.585938 L -14.571994 81.324219 L -12.704806 82.050781 L -10.829806 82.761719 L -8.9509 83.460938 L -7.071994 84.148438 L -5.189181 84.820312 L -3.302462 85.480469 L -1.415744 86.128906 L 0.470975 86.757812 L 2.357694 87.378906 L 4.240506 87.984375 L 6.127225 88.574219 L 8.010038 89.152344 L 9.888944 89.714844 L 11.763944 90.261719 L 13.635038 90.796875 L 15.502225 91.316406 L 17.3616 91.820312 L 19.217069 92.3125 L 21.064725 92.789062 L 22.908475 93.25 L 24.740506 93.699219 L 26.564725 94.128906 L 28.377225 94.546875 L 30.181913 94.949219 L 31.974881 95.335938 L 33.756131 95.707031 L 35.525663 96.066406 L 37.283475 96.40625 L 39.029569 96.734375 L 40.760038 97.042969 L 42.474881 97.339844 L 44.1741 97.621094 L 45.857694 97.886719 L 47.525663 98.136719 L 49.178006 98.371094 L 50.814725 98.589844 L 52.428006 98.789062 L 54.025663 98.976562 L 55.603788 99.148438 L 57.162381 99.304688 L 58.701444 99.445312 L 60.217069 99.570312 L 61.713163 99.679688 L 63.185819 99.773438 L 64.638944 99.847656 L 66.064725 99.910156 L 67.470975 99.957031 L 68.849881 99.984375 L 70.20535 100 L 71.537381 99.996094 L 72.842069 99.980469 L 74.123319 99.945312 L 75.377225 99.894531 L 76.603788 99.832031 L 77.803006 99.75 L 78.974881 99.652344 L 80.115506 99.539062 L 81.232694 99.410156 L 82.318631 99.269531 L 83.373319 99.109375 L 84.400663 98.933594 L 85.396756 98.742188 L 86.365506 98.535156 L 87.2991 98.3125 L 88.20535 98.074219 L 89.076444 97.820312 L 89.920194 97.550781 L 90.728788 97.269531 L 91.506131 96.96875 L 92.252225 96.652344 L 92.963163 96.324219 L 93.638944 95.976562 L 94.287381 95.617188 L 94.896756 95.242188 L 95.474881 94.851562 L 96.01785 94.445312 L 96.529569 94.023438 L 97.006131 93.585938 L 97.447538 93.136719 L 97.853788 92.671875 L 98.224881 92.191406 L 98.560819 91.695312 L 98.8616 91.1875 L 99.127225 90.664062 L 99.357694 90.125 L 99.553006 89.574219 L 99.713163 89.007812 L 99.838163 88.425781 L 99.928006 87.832031 L 99.978788 87.226562 L 99.998319 86.601562 L 99.978788 85.964844 L 99.928006 85.316406 L 99.838163 84.65625 L 99.713163 83.976562 L 99.553006 83.289062 L 99.357694 82.585938 L 99.127225 81.871094 L 98.8616 81.140625 L 98.560819 80.398438 L 98.224881 79.644531 L 97.853788 78.878906 L 97.447538 78.097656 L 97.006131 77.308594 L 96.529569 76.503906 L 96.01785 75.6875 L 95.474881 74.859375 L 94.896756 74.019531 L 94.287381 73.167969 L 93.638944 72.304688 L 92.963163 71.429688 L 92.252225 70.542969 L 91.506131 69.648438 L 90.728788 68.738281 L 89.920194 67.820312 L 89.076444 66.890625 L 88.20535 65.949219 L 87.2991 65 L 86.365506 64.039062 L 85.396756 63.066406 L 84.400663 62.085938 L 83.373319 61.09375 L 82.318631 60.09375 L 81.232694 59.082031 L 80.115506 58.0625 L 78.974881 57.035156 L 77.803006 55.996094 L 76.603788 54.949219 L 75.377225 53.894531 L 74.123319 52.832031 L 72.842069 51.757812 L 71.537381 50.679688 L 70.20535 49.589844 L 68.849881 48.496094 L 67.470975 47.390625 L 66.064725 46.28125 L 64.638944 45.160156 L 63.185819 44.035156 L 61.713163 42.902344 L 60.217069 41.761719 L 58.701444 40.617188 L 57.162381 39.464844 L 55.603788 38.304688 L 54.025663 37.140625 L 52.428006 35.96875 L 50.814725 34.792969 L 49.178006 33.609375 L 47.525663 32.421875 L 45.857694 31.230469 L 44.1741 30.03125 L 42.474881 28.832031 L 40.760038 27.625 L 39.029569 26.414062 L 37.283475 25.199219 L 35.525663 23.980469 L 33.756131 22.753906 L 31.974881 21.527344 L 30.181913 20.296875 L 28.377225 19.066406 L 26.564725 17.828125 L 24.740506 16.589844 L 22.908475 15.347656 L 21.064725 14.105469 L 19.217069 12.859375 L 17.3616 11.609375 L 15.502225 10.359375 L 13.635038 9.105469 L 11.763944 7.855469 L 9.888944 6.597656 L 8.010038 5.34375 L 6.127225 4.085938 L 4.240506 2.828125 L 2.357694 1.574219 L 0.470975 0.316406 L -1.415744 -0.945312 L -3.302462 -2.199219 L -5.189181 -3.457031 L -7.071994 -4.714844 L -8.9509 -5.972656 L -10.829806 -7.226562 L -12.704806 -8.480469 L -14.571994 -9.734375 L -16.435275 -10.984375 L -18.29465 -12.234375 L -20.146212 -13.480469 L -21.989962 -14.726562 L -23.8259 -15.96875 L -25.654025 -17.210938 L -27.474337 -18.449219 L -29.282931 -19.683594 L -31.083712 -20.914062 L -32.868869 -22.144531 L -34.646212 -23.367188 L -36.411837 -24.589844 L -38.161837 -25.804688 L -39.900119 -27.019531 L -41.622775 -28.226562 L -43.329806 -29.433594 L -45.021212 -30.632812 L -46.696994 -31.828125 L -48.35715 -33.015625 L -50.001681 -34.203125 L -51.626681 -35.382812 L -53.23215 -36.554688 L -54.821994 -37.722656 L -56.3884 -38.886719 L -57.939181 -40.039062 L -59.466525 -41.191406 L -60.970431 -42.332031 L -62.454806 -43.46875 L -63.91965 -44.597656 L -65.35715 -45.722656 L -66.775119 -46.835938 L -68.165744 -47.945312 L -69.536837 -49.042969 L -70.880587 -50.136719 L -72.196994 -51.21875 L -73.489962 -52.296875 L -74.755587 -53.363281 L -75.997775 -54.425781 L -77.208712 -55.476562 L -78.396212 -56.515625 L -79.552462 -57.550781 L -80.681369 -58.574219 L -81.782931 -59.589844 L -82.853244 -60.59375 L -83.896212 -61.589844 L -84.907931 -62.578125 L -85.8884 -63.554688 L -86.837619 -64.519531 L -87.759494 -65.476562 L -88.650119 -66.421875 L -89.505587 -67.355469 L -90.329806 -68.28125 L -91.122775 -69.195312 L -91.884494 -70.097656 L -92.614962 -70.988281 L -93.310275 -71.867188 L -93.970431 -72.738281 L -94.599337 -73.59375 L -95.193087 -74.441406 L -95.755587 -75.273438 L -96.282931 -76.097656 L -96.775119 -76.90625 L -97.23215 -77.703125 L -97.657931 -78.492188 L -98.04465 -79.261719 L -98.400119 -80.023438 L -98.716525 -80.773438 L -99.001681 -81.507812 L -99.251681 -82.230469 L -99.462619 -82.9375 L -99.642306 -83.636719 L -99.782931 -84.316406 L -99.892306 -84.988281 L -99.962619 -85.644531 L -99.997775 -86.285156 L -99.997775 -86.914062 L -99.962619 -87.53125 L -99.892306 -88.132812 L -99.782931 -88.71875 L -99.642306 -89.292969 L -99.462619 -89.851562 L -99.251681 -90.398438 L -99.001681 -90.925781 L -98.716525 -91.445312 L -98.400119 -91.945312 L -98.04465 -92.433594 L -97.657931 -92.90625 L -97.23215 -93.363281 L -96.775119 -93.808594 L -96.282931 -94.234375 L -95.755587 -94.648438 L -95.193087 -95.046875 L -94.599337 -95.429688 L -93.970431 -95.800781 L -93.310275 -96.152344 L -92.614962 -96.488281 L -91.884494 -96.8125 L -91.122775 -97.121094 L -90.329806 -97.414062 L -89.505587 -97.6875 L -88.650119 -97.949219 L -87.759494 -98.195312 L -86.837619 -98.425781 L -85.8884 -98.640625 L -84.907931 -98.839844 L -83.896212 -99.023438 L -82.853244 -99.191406 L -81.782931 -99.34375 L -80.681369 -99.476562 L -79.552462 -99.597656 L -78.396212 -99.703125 L -77.208712 -99.792969 L -75.997775 -99.867188 L -74.755587 -99.921875 L -73.489962 -99.964844 L -72.196994 -99.988281 L -70.880587 -100 L -69.536837 -99.992188 L -68.165744 -99.972656 L -66.775119 -99.933594 L -65.35715 -99.882812 L -63.91965 -99.8125 L -62.454806 -99.726562 L -60.970431 -99.625 L -59.466525 -99.507812 L -57.939181 -99.378906 L -56.3884 -99.230469 L -54.821994 -99.066406 L -53.23215 -98.886719 L -51.626681 -98.691406 L -50.001681 -98.480469 L -48.35715 -98.253906 L -46.696994 -98.011719 L -45.021212 -97.753906 L -43.329806 -97.484375 L -41.622775 -97.195312 L -39.900119 -96.890625 L -38.161837 -96.570312 L -36.411837 -96.238281 L -34.646212 -95.886719 L -32.868869 -95.523438 L -31.083712 -95.144531 L -29.282931 -94.75 L -27.474337 -94.339844 L -25.654025 -93.914062 L -23.8259 -93.476562 L -21.989962 -93.023438 L -20.146212 -92.550781 L -18.29465 -92.070312 L -16.435275 -91.570312 L -14.571994 -91.058594 L -12.704806 -90.53125 L -10.829806 -89.988281 L -8.9509 -89.433594 L -7.071994 -88.863281 L -5.189181 -88.28125 L -3.302462 -87.683594 L -1.415744 -87.070312 L 0.470975 -86.445312 L 2.357694 -85.804688 L 4.240506 -85.152344 L 6.127225 -84.488281 L 8.010038 -83.808594 L 9.888944 -83.113281 L 11.763944 -82.40625 L 13.635038 -81.6875 L 15.502225 -80.957031 L 17.3616 -80.210938 L 19.217069 -79.453125 L 21.064725 -78.683594 L 22.908475 -77.902344 L 24.740506 -77.105469 L 26.564725 -76.300781 L 28.377225 -75.480469 L 30.181913 -74.648438 L 31.974881 -73.808594 L 33.756131 -72.953125 L 35.525663 -72.085938 L 37.283475 -71.210938 L 39.029569 -70.320312 L 40.760038 -69.421875 L 42.474881 -68.507812 L 44.1741 -67.589844 L 45.857694 -66.65625 L 47.525663 -65.710938 L 49.178006 -64.757812 L 50.814725 -63.796875 L 52.428006 -62.820312 L 54.025663 -61.839844 L 55.603788 -60.84375 L 57.162381 -59.84375 L 58.701444 -58.828125 L 60.217069 -57.808594 L 61.713163 -56.777344 L 63.185819 -55.738281 L 64.638944 -54.6875 L 66.064725 -53.628906 L 67.470975 -52.566406 L 68.849881 -51.492188 L 70.20535 -50.40625 L 71.537381 -49.316406 L 72.842069 -48.21875 L 74.123319 -47.113281 L 75.377225 -46 L 76.603788 -44.878906 L 77.803006 -43.753906 L 78.974881 -42.617188 L 80.115506 -41.476562 L 81.232694 -40.328125 L 82.318631 -39.175781 L 83.373319 -38.015625 L 84.400663 -36.847656 L 85.396756 -35.675781 L 86.365506 -34.496094 L 87.2991 -33.3125 L 88.20535 -32.125 L 89.076444 -30.929688 L 89.920194 -29.734375 L 90.728788 -28.53125 L 91.506131 -27.320312 L 92.252225 -26.109375 L 92.963163 -24.894531 L 93.638944 -23.671875 L 94.287381 -22.449219 L 94.896756 -21.222656 L 95.474881 -19.992188 L 96.01785 -18.757812 L 96.529569 -17.519531 L 97.006131 -16.28125 L 97.447538 -15.039062 L 97.853788 -13.792969 L 98.224881 -12.546875 L 98.560819 -11.296875 L 98.8616 -10.046875 L 99.127225 -8.792969 L 99.357694 -7.539062 L 99.553006 -6.285156 L 99.713163 -5.03125 L 99.838163 -3.773438 L 99.928006 -2.515625 L 99.978788 -1.257812 L 99.998319 0 " transform="matrix(1,0,0,1,103.997775,104)"/>
</g>
</svg>
