<?xml version="1.0" encoding="UTF-8"?>
<svg xmlns="http://www.w3.org/2000/svg" xmlns:xlink="http://www.w3.org/1999/xlink" width="208.42179pt" height="208.446961pt" viewBox="0 0 208.42179 208.446961" version="1.1">
<g id="surface514752">
<path style="fill:none;stroke-width:1;stroke-linecap:butt;stroke-linejoin:bevel;stroke:rgb(50.048876%,50.048876%,50.048876%);stroke-opacity:1;stroke-miterlimit:10;" d="M 100.001735 0 L 99.79861 6.34375 L 99.197048 12.660156 L 98.193142 18.925781 L 96.794704 25.113281 L 95.009548 31.203125 L 92.837673 37.167969 L 90.294704 42.980469 L 87.388454 48.621094 L 84.126735 54.0625 L 80.529079 59.289062 L 76.607204 64.277344 L 72.376735 69.007812 L 67.853298 73.460938 L 63.056423 77.613281 L 58.005642 81.457031 L 52.724392 84.972656 L 47.228298 88.144531 L 41.544704 90.964844 L 35.689235 93.414062 L 29.693142 95.488281 L 23.575954 97.179688 L 17.365017 98.480469 L 11.083767 99.382812 L 4.759548 99.886719 L -1.584202 99.988281 L -7.924046 99.683594 L -14.228733 98.980469 L -20.478733 97.878906 L -26.646702 96.382812 L -32.705296 94.5 L -38.631077 92.234375 L -44.404515 89.597656 L -49.998265 86.601562 L -55.38889 83.257812 L -60.560765 79.578125 L -65.48264 75.574219 L -70.146702 71.269531 L -74.525608 66.675781 L -78.603733 61.816406 L -82.365452 56.707031 L -85.79514 51.367188 L -88.881077 45.824219 L -91.60764 40.09375 L -93.967015 34.203125 L -95.947483 28.171875 L -97.541233 22.03125 L -98.740452 15.800781 L -99.54514 9.503906 L -99.947483 3.171875 L -99.947483 -3.171875 L -99.54514 -9.503906 L -98.740452 -15.800781 L -97.541233 -22.03125 L -95.947483 -28.171875 L -93.967015 -34.203125 L -91.60764 -40.09375 L -88.881077 -45.824219 L -85.79514 -51.367188 L -82.365452 -56.707031 L -78.603733 -61.816406 L -74.525608 -66.675781 L -70.146702 -71.269531 L -65.48264 -75.574219 L -60.560765 -79.578125 L -55.38889 -83.257812 L -49.998265 -86.601562 L -44.404515 -89.597656 L -38.631077 -92.234375 L -32.705296 -94.5 L -26.646702 -96.382812 L -20.478733 -97.878906 L -14.228733 -98.980469 L -7.924046 -99.683594 L -1.584202 -99.988281 L 4.759548 -99.886719 L 11.083767 -99.382812 L 17.365017 -98.480469 L 23.575954 -97.179688 L 29.693142 -95.488281 L 35.689235 -93.414062 L 41.544704 -90.964844 L 47.228298 -88.144531 L 52.724392 -84.972656 L 58.005642 -81.457031 L 63.056423 -77.613281 L 67.853298 -73.460938 L 72.376735 -69.007812 L 76.607204 -64.277344 L 80.529079 -59.289062 L 84.126735 -54.0625 L 87.388454 -48.621094 L 90.294704 -42.980469 L 92.837673 -37.167969 L 95.009548 -31.203125 L 96.794704 -25.113281 L 98.193142 -18.925781 L 99.197048 -12.660156 L 99.79861 -6.34375 L 100.001735 0 " transform="matrix(1,0,0,1,103.974827,104)"/>
</g>
</svg>
