<?xml version="1.0" encoding="UTF-8"?>
<svg xmlns="http://www.w3.org/2000/svg" xmlns:xlink="http://www.w3.org/1999/xlink" width="48.468055pt" height="128.472136pt" viewBox="0 0 48.468055 128.472136" version="1.1">
<g id="surface179674">
<path style="fill:none;stroke-width:1;stroke-linecap:butt;stroke-linejoin:bevel;stroke:rgb(50.048876%,50.048876%,50.048876%);stroke-opacity:1;stroke-miterlimit:10;" d="M 39.998134 -60 L 38.396572 -55.652344 L 36.830166 -51.496094 L 35.295009 -47.53125 L 33.795009 -43.746094 L 32.326259 -40.144531 L 30.888759 -36.71875 L 29.486416 -33.460938 L 28.115322 -30.375 L 26.775478 -27.453125 L 25.470791 -24.691406 L 24.197353 -22.085938 L 22.955166 -19.632812 L 21.748134 -17.328125 L 20.572353 -15.164062 L 19.427822 -13.144531 L 18.318447 -11.261719 L 17.240322 -9.511719 L 16.197353 -7.890625 L 15.185634 -6.390625 L 14.205166 -5.015625 L 13.259853 -3.753906 L 12.341884 -2.605469 L 11.462978 -1.566406 L 10.615322 -0.632812 L 9.798916 0.199219 L 9.013759 0.933594 L 8.263759 1.578125 L 7.545009 2.132812 L 6.857509 2.601562 L 6.205166 2.988281 L 5.584072 3.296875 L 4.998134 3.535156 L 4.443447 3.703125 L 3.920009 3.804688 L 3.431728 3.847656 L 2.974697 3.832031 L 2.548916 3.761719 L 2.158291 3.644531 L 1.798916 3.480469 L 1.470791 3.273438 L 1.177822 3.027344 L 0.916103 2.753906 L 0.689541 2.445312 L 0.490322 2.113281 L 0.330166 1.757812 L 0.197353 1.386719 L 0.0996969 1 L 0.0332906 0.605469 L 0.00204061 0.203125 L 0.00204061 -0.203125 L 0.0332906 -0.605469 L 0.0996969 -1 L 0.197353 -1.386719 L 0.330166 -1.757812 L 0.490322 -2.113281 L 0.689541 -2.445312 L 0.916103 -2.753906 L 1.177822 -3.027344 L 1.470791 -3.273438 L 1.798916 -3.480469 L 2.158291 -3.644531 L 2.548916 -3.761719 L 2.974697 -3.832031 L 3.431728 -3.847656 L 3.920009 -3.804688 L 4.443447 -3.703125 L 4.998134 -3.535156 L 5.584072 -3.296875 L 6.205166 -2.988281 L 6.857509 -2.601562 L 7.545009 -2.132812 L 8.263759 -1.578125 L 9.013759 -0.933594 L 9.798916 -0.199219 L 10.615322 0.632812 L 11.462978 1.566406 L 12.341884 2.605469 L 13.259853 3.753906 L 14.205166 5.015625 L 15.185634 6.390625 L 16.197353 7.890625 L 17.240322 9.511719 L 18.318447 11.261719 L 19.427822 13.144531 L 20.572353 15.164062 L 21.748134 17.328125 L 22.955166 19.632812 L 24.197353 22.085938 L 25.470791 24.691406 L 26.775478 27.453125 L 28.115322 30.375 L 29.486416 33.460938 L 30.888759 36.71875 L 32.326259 40.144531 L 33.795009 43.746094 L 35.295009 47.53125 L 36.830166 51.496094 L 38.396572 55.652344 L 39.998134 60 " transform="matrix(1,0,0,1,3.997959,64)"/>
</g>
</svg>
