<?xml version="1.0" encoding="UTF-8"?>
<svg xmlns="http://www.w3.org/2000/svg" xmlns:xlink="http://www.w3.org/1999/xlink" width="18.472136pt" height="12.321094pt" viewBox="0 0 18.472136 12.321094" version="1.1">
<g id="surface873102">
<path style="fill:none;stroke-width:1;stroke-linecap:butt;stroke-linejoin:bevel;stroke:rgb(50.048876%,50.048876%,50.048876%);stroke-opacity:1;stroke-miterlimit:10;" d="M 0 0.0013023 L 0 -0.10026 L 0.0078125 -0.303385 L 0.015625 -0.401041 L 0.0273438 -0.502604 L 0.0351562 -0.604166 L 0.0507812 -0.701823 L 0.0664062 -0.803385 L 0.0820312 -0.901041 L 0.101562 -0.998698 L 0.148438 -1.19401 L 0.171875 -1.28776 L 0.199219 -1.385416 L 0.292969 -1.666666 L 0.332031 -1.75651 L 0.367188 -1.846354 L 0.40625 -1.936198 L 0.449219 -2.026041 L 0.492188 -2.111979 L 0.539062 -2.197916 L 0.585938 -2.279948 L 0.636719 -2.361979 L 0.691406 -2.44401 L 0.742188 -2.522135 L 0.859375 -2.678385 L 0.917969 -2.752604 L 1.042969 -2.893229 L 1.109375 -2.963541 L 1.179688 -3.026041 L 1.25 -3.092448 L 1.324219 -3.154948 L 1.472656 -3.272135 L 1.550781 -3.326823 L 1.714844 -3.428385 L 1.800781 -3.479166 L 1.886719 -3.522135 L 1.976562 -3.565104 L 2.066406 -3.604166 L 2.160156 -3.643229 L 2.253906 -3.674479 L 2.449219 -3.736979 L 2.652344 -3.783854 L 2.757812 -3.803385 L 2.867188 -3.81901 L 2.976562 -3.830729 L 3.085938 -3.838541 L 3.199219 -3.846354 L 3.433594 -3.846354 L 3.550781 -3.842448 L 3.671875 -3.834635 L 3.796875 -3.822916 L 3.921875 -3.803385 L 4.050781 -3.783854 L 4.179688 -3.760416 L 4.3125 -3.733073 L 4.445312 -3.701823 L 4.582031 -3.666666 L 4.71875 -3.627604 L 4.859375 -3.584635 L 5 -3.533854 L 5.144531 -3.483073 L 5.289062 -3.424479 L 5.4375 -3.361979 L 5.585938 -3.295573 L 5.738281 -3.22526 L 5.894531 -3.151041 L 6.050781 -3.072916 L 6.207031 -2.986979 L 6.367188 -2.897135 L 6.53125 -2.803385 L 6.859375 -2.60026 L 7.027344 -2.490885 L 7.371094 -2.25651 L 7.546875 -2.13151 L 7.722656 -1.998698 L 7.902344 -1.865885 L 8.082031 -1.721354 L 8.265625 -1.576823 L 8.449219 -1.424479 L 8.636719 -1.268229 L 8.824219 -1.104166 L 9.207031 -0.760416 L 9.402344 -0.576823 L 9.601562 -0.389323 L 9.800781 -0.197916 L 10 0.0013023 " transform="matrix(1,0,0,1,4,7.924479)"/>
</g>
</svg>
