<?xml version="1.0" encoding="UTF-8"?>
<svg xmlns="http://www.w3.org/2000/svg" xmlns:xlink="http://www.w3.org/1999/xlink" width="164.694997pt" height="184.432536pt" viewBox="0 0 164.694997 184.432536" version="1.1">
<g id="surface218959">
<path style="fill:none;stroke-width:1;stroke-linecap:butt;stroke-linejoin:bevel;stroke:rgb(50.048876%,50.048876%,50.048876%);stroke-opacity:1;stroke-miterlimit:10;" d="M 100.001851 0 L 99.497944 3.160156 L 97.997944 6.226562 L 95.517476 9.121094 L 92.091694 11.753906 L 87.767476 14.042969 L 82.607319 15.921875 L 76.677632 17.316406 L 70.056538 18.175781 L 62.833882 18.449219 L 55.111226 18.101562 L 46.986226 17.101562 L 38.568257 15.4375 L 29.966694 13.113281 L 21.290913 10.132812 L 12.650288 6.519531 L 4.158101 2.3125 L -4.080181 -2.445312 L -11.970806 -7.695312 L -19.416118 -13.367188 L -26.334087 -19.390625 L -32.650493 -25.679688 L -38.298931 -32.140625 L -43.228618 -38.675781 L -47.392681 -45.191406 L -50.767681 -51.582031 L -53.334087 -57.742188 L -55.087993 -63.578125 L -56.045024 -68.988281 L -56.220806 -73.875 L -55.654399 -78.15625 L -54.388774 -81.753906 L -52.482524 -84.585938 L -49.998149 -86.601562 L -47.009868 -87.746094 L -43.603618 -87.980469 L -39.857524 -87.277344 L -35.865337 -85.628906 L -31.720806 -83.03125 L -27.513774 -79.5 L -23.337993 -75.058594 L -19.283306 -69.757812 L -15.435649 -63.640625 L -11.877056 -56.777344 L -8.681743 -49.242188 L -5.908306 -41.117188 L -3.623149 -32.503906 L -1.865337 -23.5 L -0.673931 -14.214844 L -0.0723682 -4.757812 L -0.0723682 4.757812 L -0.673931 14.214844 L -1.865337 23.5 L -3.623149 32.503906 L -5.908306 41.117188 L -8.681743 49.242188 L -11.877056 56.777344 L -15.435649 63.640625 L -19.283306 69.757812 L -23.337993 75.058594 L -27.513774 79.5 L -31.720806 83.03125 L -35.865337 85.628906 L -39.857524 87.277344 L -43.603618 87.980469 L -47.009868 87.746094 L -49.998149 86.601562 L -52.482524 84.585938 L -54.388774 81.753906 L -55.654399 78.15625 L -56.220806 73.875 L -56.045024 68.988281 L -55.087993 63.578125 L -53.334087 57.742188 L -50.767681 51.582031 L -47.392681 45.191406 L -43.228618 38.675781 L -38.298931 32.140625 L -32.650493 25.679688 L -26.334087 19.390625 L -19.416118 13.367188 L -11.970806 7.695312 L -4.080181 2.445312 L 4.158101 -2.3125 L 12.650288 -6.519531 L 21.290913 -10.132812 L 29.966694 -13.113281 L 38.568257 -15.4375 L 46.986226 -17.101562 L 55.111226 -18.101562 L 62.833882 -18.449219 L 70.056538 -18.175781 L 76.677632 -17.316406 L 82.607319 -15.921875 L 87.767476 -14.042969 L 92.091694 -11.753906 L 95.517476 -9.121094 L 97.997944 -6.226562 L 99.497944 -3.160156 L 100.001851 0 " transform="matrix(1,0,0,1,60.611431,92)"/>
</g>
</svg>
