<?xml version="1.0" encoding="UTF-8"?>
<svg xmlns="http://www.w3.org/2000/svg" xmlns:xlink="http://www.w3.org/1999/xlink" width="164.719504pt" height="110.227204pt" viewBox="0 0 164.719504 110.227204" version="1.1">
<g id="surface877937">
<path style="fill:none;stroke-width:1;stroke-linecap:butt;stroke-linejoin:bevel;stroke:rgb(50.048876%,50.048876%,50.048876%);stroke-opacity:1;stroke-miterlimit:10;" d="M 100.001316 -0.00168077 L 99.950535 1.006132 L 99.798191 2.013944 L 99.544285 3.013944 L 99.18491 4.006132 L 98.727878 4.990507 L 98.173191 5.95535 L 97.516941 6.904569 L 96.759128 7.834257 L 95.907566 8.740507 L 94.958347 9.623319 L 93.915378 10.474882 L 92.774753 11.2991 L 91.548191 12.088163 L 90.227878 12.842069 L 88.817722 13.560819 L 87.321628 14.2366 L 85.743503 14.869413 L 84.079441 15.45535 L 82.34116 15.998319 L 80.520847 16.490507 L 78.626316 16.931913 L 76.657566 17.318632 L 74.618503 17.654569 L 72.516941 17.931913 L 70.348972 18.150663 L 68.118503 18.310819 L 65.829441 18.408475 L 63.485691 18.447538 L 61.09116 18.4241 L 58.649753 18.334257 L 56.157566 18.181913 L 53.626316 17.963163 L 51.056003 17.678007 L 48.450535 17.326444 L 45.813816 16.904569 L 43.149753 16.420194 L 40.462253 15.865507 L 37.751316 15.244413 L 35.020847 14.553007 L 32.27866 13.7991 L 29.524753 12.974882 L 26.766941 12.088163 L 24.001316 11.131132 L 21.239597 10.1116 L 18.481785 9.029569 L 15.727878 7.881132 L 12.989597 6.6741 L 10.263035 5.404569 L 7.556003 4.076444 L 4.868503 2.689725 L 2.204441 1.248319 L -0.428372 -0.251681 L -3.029934 -1.798556 L -5.600247 -3.400118 L -8.131497 -5.048556 L -10.623684 -6.747775 L -13.068997 -8.486056 L -15.47134 -10.267306 L -17.822903 -12.091525 L -20.123684 -13.9509 L -22.369778 -15.845431 L -24.561184 -17.771212 L -26.69009 -19.724337 L -28.760403 -21.704806 L -30.764309 -23.708712 L -32.701809 -25.736056 L -34.572903 -27.779025 L -36.37759 -29.833712 L -38.108059 -31.904025 L -39.764309 -33.978243 L -41.34634 -36.060275 L -42.854153 -38.142306 L -44.28384 -40.224337 L -45.635403 -42.302462 L -46.90884 -44.372775 L -48.100247 -46.427462 L -49.213528 -48.470431 L -50.244778 -50.497775 L -51.193997 -52.501681 L -52.061184 -54.48215 L -52.84634 -56.431368 L -53.549465 -58.353243 L -54.166653 -60.239962 L -54.705715 -62.087618 L -55.162747 -63.896212 L -55.541653 -65.661837 L -55.834622 -67.376681 L -56.049465 -69.04465 L -56.186184 -70.661837 L -56.244778 -72.220431 L -56.229153 -73.720431 L -56.135403 -75.161837 L -55.967434 -76.536837 L -55.725247 -77.845431 L -55.412747 -79.087618 L -55.03384 -80.255587 L -54.580715 -81.349337 L -54.068997 -82.364962 L -53.486965 -83.306368 " transform="matrix(1,0,0,1,60.623684,87.427462)"/>
</g>
</svg>
