<?xml version="1.0" encoding="UTF-8"?>
<svg xmlns="http://www.w3.org/2000/svg" xmlns:xlink="http://www.w3.org/1999/xlink" width="54.441905pt" height="92.619234pt" viewBox="0 0 54.441905 92.619234" version="1.1">
<g id="surface877974">
<path style="fill:none;stroke-width:1;stroke-linecap:butt;stroke-linejoin:bevel;stroke:rgb(50.048876%,50.048876%,50.048876%);stroke-opacity:1;stroke-miterlimit:10;" d="M 99.99949 -0.00066951 L 99.995584 1.011049 L 99.979959 2.018862 L 99.952615 3.03058 L 99.917459 4.038393 L 99.870584 5.050112 L 99.815897 6.057924 L 99.74949 7.065737 L 99.675272 8.073549 L 99.585428 9.077455 L 99.491678 10.085268 L 99.382303 11.089174 L 99.265115 12.09308 L 99.140115 13.09308 L 99.003397 14.09308 L 98.854959 15.09308 L 98.698709 16.09308 L 98.53074 17.089174 L 98.351053 18.081362 L 98.163553 19.073549 L 97.96824 20.065737 L 97.757303 21.054018 L 97.542459 22.038393 L 97.31199 23.022768 L 97.077615 24.007143 L 96.827615 24.983705 L 96.569803 25.960268 L 96.304178 26.93683 L 96.026834 27.90558 L 95.741678 28.87433 L 95.444803 29.84308 L 95.136209 30.804018 L 94.819803 31.764955 L 94.495584 32.71808 L 94.159647 33.671205 L 93.815897 34.620424 L 93.460428 35.565737 L 93.097147 36.511049 L 92.722147 37.448549 L 92.339334 38.382143 L 91.948709 39.31183 L 91.546365 40.241518 L 91.136209 41.163393 L 90.714334 42.081362 L 90.284647 42.995424 L 89.847147 43.90558 L 89.397928 44.81183 L 88.940897 45.710268 L 88.476053 46.608705 L 87.99949 47.49933 L 87.515115 48.386049 L 87.022928 49.264955 L 86.519022 50.143862 L 86.007303 51.014955 L 85.487772 51.882143 L 84.960428 52.741518 L 84.425272 53.596987 L 83.878397 54.448549 L 83.323709 55.292299 L 82.761209 56.132143 L 82.190897 56.964174 L 81.608865 57.792299 L 81.022928 58.612612 L 80.425272 59.429018 L 79.823709 60.237612 L 79.210428 61.038393 L 78.589334 61.835268 L 77.960428 62.628237 L 77.323709 63.413393 L 76.679178 64.190737 L 76.026834 64.960268 L 75.366678 65.725893 L 74.698709 66.483705 L 74.022928 67.233705 L 73.339334 67.979799 L 72.651834 68.71808 L 71.952615 69.444643 L 71.245584 70.171205 L 70.534647 70.886049 L 69.815897 71.59308 L 69.089334 72.296205 L 68.354959 72.991518 L 67.612772 73.679018 L 66.866678 74.354799 L 66.112772 75.026674 L 65.351053 75.690737 L 64.581522 76.346987 L 63.808084 76.995424 L 63.026834 77.636049 L 62.241678 78.268862 L 61.444803 78.893862 L 60.647928 79.511049 L 59.839334 80.120424 L 59.026834 80.721987 L 58.210428 81.31183 L 57.386209 81.897768 L 56.554178 82.471987 L 55.71824 83.038393 L 54.878397 83.596987 L 54.03074 84.147768 " transform="matrix(1,0,0,1,-50.015115,4.426451)"/>
</g>
</svg>
