<?xml version="1.0" encoding="UTF-8"?>
<svg xmlns="http://www.w3.org/2000/svg" xmlns:xlink="http://www.w3.org/1999/xlink" width="207.471386pt" height="108.472106pt" viewBox="0 0 207.471386 108.472106" version="1.1">
<g id="surface875639">
<path style="fill:none;stroke-width:1;stroke-linecap:butt;stroke-linejoin:bevel;stroke:rgb(50.048876%,50.048876%,50.048876%);stroke-opacity:1;stroke-miterlimit:10;" d="M 100.000375 -0.0000150251 L 100.000375 0.402329 L 99.988656 0.999985 L 99.98475 1.20311 L 99.976938 1.402329 L 99.973031 1.601547 L 99.965219 1.800766 L 99.9535 1.999985 L 99.945688 2.20311 L 99.910531 2.800766 L 99.898813 3.003891 L 99.883188 3.20311 L 99.871469 3.402329 L 99.855844 3.601547 L 99.836313 3.804672 L 99.820688 4.003891 L 99.762094 4.601547 L 99.742563 4.804672 L 99.648813 5.601547 L 99.621469 5.800766 L 99.594125 6.003891 L 99.539438 6.402329 L 99.508188 6.601547 L 99.480844 6.800766 L 99.418344 7.199204 L 99.383188 7.402329 L 99.348031 7.601547 L 99.316781 7.800766 L 99.281625 7.999985 L 99.242563 8.199204 L 99.207406 8.398422 L 99.090219 8.996079 L 99.004281 9.394516 L 98.965219 9.593735 L 98.918344 9.792954 L 98.875375 9.992172 L 98.8285 10.191391 L 98.785531 10.39061 L 98.73475 10.589829 L 98.641 10.988266 L 98.488656 11.585922 L 98.433969 11.785141 L 98.383188 11.98436 L 98.3285 12.183579 L 98.273813 12.378891 L 98.215219 12.57811 L 98.160531 12.777329 L 97.98475 13.374985 L 97.92225 13.570297 L 97.73475 14.167954 L 97.67225 14.363266 L 97.539438 14.761704 L 97.473031 14.957016 L 97.340219 15.355454 L 97.269906 15.550766 L 97.129281 15.949204 L 97.055063 16.144516 L 96.98475 16.343735 L 96.910531 16.539047 L 96.836313 16.738266 L 96.762094 16.933579 L 96.683969 17.132797 L 96.605844 17.32811 L 96.527719 17.527329 L 96.449594 17.722641 L 96.371469 17.92186 L 96.289438 18.117172 L 96.207406 18.316391 L 96.043344 18.707016 L 95.957406 18.906235 L 95.875375 19.101547 L 95.789438 19.29686 L 95.699594 19.492172 L 95.613656 19.691391 L 95.344125 20.277329 L 95.254281 20.476547 L 95.164438 20.67186 L 94.883188 21.257797 L 94.785531 21.45311 L 94.691781 21.648422 L 94.398813 22.23436 L 94.195688 22.624985 L 94.098031 22.820297 L 93.992563 23.01561 L 93.891 23.210922 L 93.785531 23.406235 L 93.683969 23.597641 L 93.5785 23.792954 L 93.469125 23.988266 L 93.363656 24.183579 L 93.254281 24.374985 L 93.148813 24.570297 L 93.035531 24.76561 L 92.926156 24.957016 L 92.816781 25.152329 L 92.7035 25.347641 L 92.590219 25.539047 L 92.476938 25.73436 L 92.363656 25.925766 L 92.246469 26.121079 L 92.129281 26.312485 L 92.012094 26.507797 L 91.777719 26.89061 L 91.656625 27.085922 L 91.414438 27.468735 L 91.293344 27.664047 L 91.168344 27.855454 L 91.04725 28.04686 L 90.92225 28.238266 L 90.793344 28.429672 L 90.668344 28.621079 L 90.543344 28.816391 L 90.156625 29.39061 L 90.023813 29.582016 L 89.894906 29.773422 L 89.762094 29.964829 L 89.629281 30.152329 L 89.496469 30.343735 L 89.35975 30.535141 L 89.226938 30.726547 L 89.090219 30.917954 L 88.9535 31.105454 L 88.816781 31.29686 L 88.676156 31.488266 L 88.539438 31.675766 L 88.398813 31.867172 L 88.258188 32.054672 L 88.117563 32.246079 L 87.973031 32.437485 L 87.832406 32.624985 L 87.687875 32.812485 L 87.543344 33.003891 L 87.394906 33.191391 L 87.250375 33.378891 L 87.101938 33.570297 L 86.656625 34.132797 L 86.508188 34.324204 L 85.898813 35.074204 L 85.742563 35.261704 L 85.590219 35.449204 L 85.277719 35.824204 L 85.117563 36.007797 L 84.961313 36.195297 L 84.641 36.570297 L 84.480844 36.753891 L 84.160531 37.128891 L 83.996469 37.312485 L 83.832406 37.499985 L 83.668344 37.683579 L 83.504281 37.871079 L 83.340219 38.054672 L 83.17225 38.238266 L 83.004281 38.425766 L 82.668344 38.792954 L 82.500375 38.980454 L 82.3285 39.164047 L 82.160531 39.347641 L 81.816781 39.714829 L 81.641 39.898422 L 81.469125 40.082016 L 80.941781 40.632797 L 80.766 40.812485 L 80.590219 40.996079 L 80.230844 41.363266 L 80.051156 41.542954 L 79.871469 41.726547 L 79.508188 42.089829 L 79.324594 42.269516 L 79.144906 42.45311 L 78.957406 42.632797 L 78.773813 42.816391 L 78.590219 42.996079 L 78.215219 43.355454 L 78.027719 43.539047 L 77.652719 43.898422 L 77.461313 44.07811 L 77.273813 44.257797 L 76.891 44.617172 L 76.695688 44.792954 L 76.504281 44.972641 L 76.308969 45.152329 L 76.117563 45.332016 L 75.92225 45.507797 L 75.723031 45.687485 L 75.527719 45.863266 L 75.332406 46.042954 L 75.133188 46.218735 L 74.933969 46.398422 L 74.73475 46.574204 L 74.535531 46.753891 L 74.336313 46.929672 L 74.133188 47.105454 L 73.933969 47.281235 L 73.730844 47.457016 L 73.527719 47.636704 L 73.320688 47.812485 L 73.117563 47.988266 L 72.914438 48.160141 L 72.086313 48.863266 L 71.875375 49.035141 L 71.668344 49.210922 L 71.457406 49.386704 L 71.246469 49.558579 L 71.035531 49.73436 L 70.824594 49.906235 L 70.613656 50.082016 L 70.398813 50.253891 L 70.187875 50.425766 L 69.973031 50.597641 L 69.758188 50.773422 L 69.543344 50.945297 L 69.324594 51.117172 L 69.10975 51.289047 L 68.4535 51.804672 L 68.23475 51.972641 L 67.79725 52.316391 L 67.574594 52.48436 L 67.129281 52.82811 L 66.906625 52.996079 L 66.683969 53.167954 L 66.461313 53.335922 L 66.008188 53.67186 L 65.785531 53.843735 L 65.332406 54.179672 L 65.101938 54.347641 L 64.875375 54.51561 L 64.644906 54.683579 L 64.418344 54.851547 L 64.187875 55.019516 L 63.957406 55.183579 L 63.723031 55.351547 L 63.492563 55.519516 L 63.262094 55.683579 L 63.027719 55.851547 L 62.793344 56.01561 L 62.558969 56.183579 L 62.324594 56.347641 L 62.090219 56.51561 L 61.855844 56.679672 L 61.617563 56.843735 L 61.383188 57.007797 L 60.191781 57.82811 L 59.949594 57.992172 L 59.707406 58.152329 L 59.469125 58.316391 L 59.226938 58.480454 L 58.98475 58.64061 L 58.742563 58.804672 L 58.496469 58.964829 L 58.254281 59.128891 L 58.008188 59.289047 L 57.766 59.449204 L 56.781625 60.089829 L 56.531625 60.249985 L 56.285531 60.410141 L 55.785531 60.730454 L 55.539438 60.886704 L 55.289438 61.04686 L 55.035531 61.207016 L 54.785531 61.363266 L 54.535531 61.523422 L 54.281625 61.679672 L 54.031625 61.835922 L 53.777719 61.996079 L 52.762094 62.621079 L 52.504281 62.777329 L 52.250375 62.933579 L 51.992563 63.085922 L 51.738656 63.242172 L 51.480844 63.398422 L 51.223031 63.550766 L 50.965219 63.707016 L 50.7035 63.85936 L 50.445688 64.01561 L 50.187875 64.167954 L 49.926156 64.320297 L 49.664438 64.476547 L 49.406625 64.628891 L 48.621469 65.085922 L 48.355844 65.238266 L 48.094125 65.39061 L 47.832406 65.539047 L 47.301156 65.843735 L 47.039438 65.992172 L 46.773813 66.144516 L 46.242563 66.441391 L 45.973031 66.593735 L 45.441781 66.89061 L 44.902719 67.187485 L 44.637094 67.335922 L 44.098031 67.632797 L 43.8285 67.777329 L 43.558969 67.925766 L 43.285531 68.074204 L 42.746469 68.363266 L 42.473031 68.511704 L 42.199594 68.656235 L 41.930063 68.800766 L 41.656625 68.949204 L 40.836313 69.382797 L 40.562875 69.523422 L 40.285531 69.667954 L 40.012094 69.812485 L 39.73475 69.957016 L 39.461313 70.097641 L 39.183969 70.242172 L 38.906625 70.382797 L 38.629281 70.527329 L 37.242563 71.230454 L 36.961313 71.371079 L 36.683969 71.511704 L 36.402719 71.652329 L 36.125375 71.792954 L 35.844125 71.929672 L 35.562875 72.070297 L 35.281625 72.207016 L 35.000375 72.347641 L 34.437875 72.621079 L 34.156625 72.761704 L 33.875375 72.898422 L 33.590219 73.035141 L 33.308969 73.17186 L 33.023813 73.308579 L 32.742563 73.441391 L 32.17225 73.714829 L 31.887094 73.847641 L 31.601938 73.98436 L 31.320688 74.117172 L 31.031625 74.253891 L 29.891 74.785141 L 29.601938 74.917954 L 29.316781 75.050766 L 29.027719 75.183579 L 28.742563 75.316391 L 28.4535 75.449204 L 28.164438 75.57811 L 27.875375 75.710922 L 27.590219 75.839829 L 27.301156 75.972641 L 26.723031 76.230454 L 26.430063 76.35936 L 25.562875 76.746079 L 25.269906 76.874985 L 24.980844 77.003891 L 24.691781 77.128891 L 24.398813 77.257797 L 24.105844 77.382797 L 23.816781 77.511704 L 23.230844 77.761704 L 22.941781 77.89061 L 22.062875 78.26561 L 21.769906 78.386704 L 21.183969 78.636704 L 20.887094 78.761704 L 20.594125 78.882797 L 20.301156 79.007797 L 20.008188 79.128891 L 19.711313 79.249985 L 19.418344 79.371079 L 19.125375 79.496079 L 18.8285 79.617172 L 18.535531 79.738266 L 18.238656 79.85936 L 17.941781 79.976547 L 17.648813 80.097641 L 17.351938 80.218735 L 17.055063 80.335922 L 16.762094 80.457016 L 16.168344 80.691391 L 15.871469 80.812485 L 14.387094 81.398422 L 14.090219 81.511704 L 13.496469 81.746079 L 13.195688 81.85936 L 12.898813 81.972641 L 12.601938 82.089829 L 12.305063 82.20311 L 12.004281 82.316391 L 11.410531 82.542954 L 11.10975 82.656235 L 10.812875 82.769516 L 10.512094 82.882797 L 10.215219 82.992172 L 9.918344 83.105454 L 9.617563 83.214829 L 9.316781 83.32811 L 9.019906 83.437485 L 8.719125 83.54686 L 8.42225 83.656235 L 8.121469 83.76561 L 7.824594 83.874985 L 7.223031 84.093735 L 6.926156 84.199204 L 6.324594 84.417954 L 6.023813 84.523422 L 5.726938 84.628891 L 5.426156 84.738266 L 4.824594 84.949204 L 4.527719 85.054672 L 3.926156 85.26561 L 3.625375 85.367172 L 3.023813 85.57811 L 2.726938 85.679672 L 2.426156 85.781235 L 2.125375 85.886704 L 0.92225 86.292954 L 0.625375 86.394516 L 0.324594 86.496079 L 0.0238127 86.593735 L -0.276969 86.695297 L -0.57775 86.792954 L -0.878531 86.894516 L -1.480094 87.089829 L -1.776969 87.191391 L -2.378531 87.386704 L -2.679312 87.480454 L -3.280875 87.675766 L -3.581656 87.769516 L -3.878531 87.867172 L -4.179312 87.960922 L -4.480094 88.058579 L -5.081656 88.246079 L -5.378531 88.339829 L -6.280875 88.621079 L -6.57775 88.714829 L -6.878531 88.804672 L -7.179312 88.898422 L -7.476187 88.988266 L -7.776969 89.07811 L -8.07775 89.17186 L -8.374625 89.261704 L -8.675406 89.351547 L -8.972281 89.441391 L -9.573844 89.621079 L -9.870719 89.707016 L -10.1715 89.79686 L -10.468375 89.882797 L -10.76525 89.972641 L -11.066031 90.058579 L -11.362906 90.144516 L -11.663687 90.230454 L -12.257437 90.402329 L -12.558219 90.488266 L -13.151969 90.660141 L -13.448844 90.742172 L -13.745719 90.82811 L -14.0465 90.910141 L -14.343375 90.996079 L -15.82775 91.406235 L -16.120719 91.48436 L -16.714469 91.648422 L -17.308219 91.804672 L -17.601187 91.886704 L -18.194937 92.042954 L -18.487906 92.121079 L -18.784781 92.199204 L -19.07775 92.277329 L -19.374625 92.351547 L -19.667594 92.429672 L -19.960562 92.503891 L -20.257437 92.582016 L -20.843375 92.730454 L -21.136344 92.808579 L -21.429312 92.882797 L -21.726187 92.957016 L -22.019156 93.027329 L -22.312125 93.101547 L -22.601187 93.175766 L -22.894156 93.246079 L -23.187125 93.320297 L -23.773062 93.460922 L -24.062125 93.535141 L -24.355094 93.605454 L -24.644156 93.675766 L -24.937125 93.746079 L -25.226187 93.812485 L -25.519156 93.882797 L -25.808219 93.95311 L -26.097281 94.019516 L -26.386344 94.089829 L -28.409781 94.554672 L -28.698844 94.617172 L -28.984 94.683579 L -29.273062 94.746079 L -29.558219 94.812485 L -29.847281 94.874985 L -30.987906 95.124985 L -31.276969 95.187485 L -31.562125 95.246079 L -31.843375 95.308579 L -32.128531 95.367172 L -32.413687 95.429672 L -32.698844 95.488266 L -32.980094 95.54686 L -33.26525 95.605454 L -33.5465 95.664047 L -33.831656 95.722641 L -34.394156 95.839829 L -34.675406 95.894516 L -34.956656 95.95311 L -35.519156 96.062485 L -35.800406 96.121079 L -36.362906 96.230454 L -36.64025 96.281235 L -36.9215 96.335922 L -37.476187 96.445297 L -37.757437 96.496079 L -38.034781 96.54686 L -38.312125 96.601547 L -38.866812 96.70311 L -39.14025 96.753891 L -39.694937 96.855454 L -39.968375 96.902329 L -40.245719 96.95311 L -40.519156 97.003891 L -41.066031 97.097641 L -41.339469 97.148422 L -42.159781 97.289047 L -42.433219 97.332016 L -42.70275 97.378891 L -42.976187 97.425766 L -43.245719 97.468735 L -43.51525 97.51561 L -43.784781 97.558579 L -44.058219 97.601547 L -44.323844 97.644516 L -45.132437 97.773422 L -45.398062 97.816391 L -45.667594 97.855454 L -45.933219 97.898422 L -46.464469 97.976547 L -46.730094 98.019516 L -47.526969 98.136704 L -47.788687 98.17186 L -48.054312 98.210922 L -48.316031 98.249985 L -48.581656 98.285141 L -48.843375 98.324204 L -49.366812 98.394516 L -49.624625 98.429672 L -50.148062 98.499985 L -50.663687 98.570297 L -50.925406 98.601547 L -51.183219 98.636704 L -51.698844 98.699204 L -51.95275 98.73436 L -52.468375 98.79686 L -52.722281 98.824204 L -53.484 98.917954 L -53.991812 98.972641 L -54.245719 99.003891 L -54.495719 99.031235 L -54.749625 99.058579 L -55.249625 99.113266 L -55.499625 99.136704 L -55.999625 99.191391 L -56.245719 99.214829 L -56.495719 99.238266 L -56.741812 99.26561 L -57.726187 99.35936 L -57.972281 99.378891 L -58.218375 99.402329 L -58.460562 99.425766 L -58.944937 99.464829 L -59.191031 99.488266 L -59.429312 99.507797 L -59.913687 99.54686 L -60.151969 99.566391 L -60.394156 99.582016 L -60.632437 99.601547 L -60.870719 99.617172 L -61.109 99.636704 L -61.347281 99.652329 L -61.581656 99.667954 L -61.819937 99.687485 L -62.054312 99.70311 L -62.288687 99.714829 L -62.991812 99.761704 L -63.226187 99.773422 L -63.456656 99.785141 L -63.691031 99.800766 L -64.382437 99.835922 L -64.609 99.847641 L -64.839469 99.85936 L -65.066031 99.867172 L -65.2965 99.878891 L -65.523062 99.886704 L -65.749625 99.898422 L -65.976187 99.906235 L -66.198844 99.914047 L -66.425406 99.92186 L -66.648062 99.929672 L -66.874625 99.937485 L -67.097281 99.945297 L -67.319937 99.949204 L -67.538687 99.957016 L -67.761344 99.960922 L -67.980094 99.968735 L -68.20275 99.972641 L -68.859 99.98436 L -69.073844 99.988266 L -69.292594 99.992172 L -69.507437 99.992172 L -69.722281 99.996079 L -69.937125 99.996079 L -70.151969 99.999985 L -71.214469 99.999985 L -71.425406 99.996079 L -71.843375 99.996079 L -72.054312 99.992172 L -72.882437 99.976547 L -73.085562 99.972641 L -73.292594 99.968735 L -73.495719 99.964829 L -73.698844 99.957016 L -73.901969 99.95311 L -74.101187 99.945297 L -74.304312 99.937485 L -74.503531 99.933579 L -74.706656 99.925766 L -74.905875 99.917954 L -75.101187 99.910141 L -75.300406 99.898422 L -75.499625 99.89061 L -75.694937 99.878891 L -75.89025 99.871079 L -76.085562 99.85936 L -76.280875 99.851547 L -76.472281 99.839829 L -76.667594 99.82811 L -76.859 99.816391 L -77.050406 99.800766 L -77.433219 99.777329 L -77.620719 99.761704 L -77.812125 99.749985 L -78.562125 99.687485 L -79.112906 99.64061 L -79.2965 99.621079 L -79.480094 99.605454 L -79.663687 99.585922 L -79.843375 99.570297 L -80.562125 99.492172 L -80.737906 99.472641 L -80.913687 99.449204 L -81.093375 99.429672 L -81.26525 99.406235 L -81.441031 99.386704 L -81.616812 99.363266 L -82.304312 99.269516 L -82.472281 99.246079 L -82.644156 99.222641 L -82.812125 99.195297 L -82.980094 99.17186 L -83.148062 99.144516 L -83.312125 99.117172 L -83.480094 99.089829 L -84.136344 98.980454 L -84.2965 98.95311 L -84.456656 98.92186 L -84.616812 98.894516 L -84.937125 98.832016 L -85.093375 98.800766 L -85.253531 98.769516 L -85.566031 98.707016 L -85.718375 98.675766 L -85.874625 98.644516 L -86.026969 98.60936 L -86.179312 98.57811 L -86.484 98.507797 L -86.632437 98.472641 L -86.784781 98.437485 L -87.081656 98.367172 L -87.226187 98.332016 L -87.374625 98.292954 L -87.519156 98.257797 L -87.663687 98.218735 L -87.808219 98.183579 L -87.95275 98.144516 L -88.234 98.066391 L -88.378531 98.027329 L -88.51525 97.988266 L -88.655875 97.945297 L -88.7965 97.906235 L -88.933219 97.867172 L -89.206656 97.781235 L -89.339469 97.742172 L -89.476187 97.699204 L -89.741812 97.613266 L -89.874625 97.566391 L -90.003531 97.523422 L -90.136344 97.480454 L -90.26525 97.433579 L -90.394156 97.39061 L -90.523062 97.343735 L -90.648062 97.29686 L -90.776969 97.249985 L -91.026969 97.156235 L -91.148062 97.10936 L -91.273062 97.062485 L -91.394156 97.011704 L -91.51525 96.964829 L -91.636344 96.914047 L -91.757437 96.867172 L -91.874625 96.816391 L -91.995719 96.76561 L -92.112906 96.714829 L -92.226187 96.664047 L -92.343375 96.613266 L -92.456656 96.558579 L -92.573844 96.507797 L -92.687125 96.457016 L -92.7965 96.402329 L -92.909781 96.347641 L -93.019156 96.29686 L -93.347281 96.132797 L -93.45275 96.07811 L -93.562125 96.019516 L -93.667594 95.964829 L -93.769156 95.906235 L -93.874625 95.851547 L -93.976187 95.792954 L -94.081656 95.73436 L -94.183219 95.679672 L -94.280875 95.621079 L -94.382437 95.562485 L -94.480094 95.499985 L -94.675406 95.382797 L -94.773062 95.320297 L -94.866812 95.261704 L -94.960562 95.199204 L -95.054312 95.14061 L -95.241812 95.01561 L -95.4215 94.89061 L -95.511344 94.824204 L -95.601187 94.761704 L -95.687125 94.699204 L -95.859 94.566391 L -95.944937 94.503891 L -96.030875 94.437485 L -96.359 94.17186 L -96.437125 94.101547 L -96.593375 93.968735 L -96.749625 93.82811 L -96.823844 93.761704 L -97.0465 93.550766 L -97.116812 93.480454 L -97.187125 93.406235 L -97.257437 93.335922 L -97.32775 93.261704 L -97.398062 93.191391 L -97.464469 93.117172 L -97.530875 93.04686 L -97.597281 92.972641 L -97.659781 92.898422 L -97.726187 92.824204 L -97.851187 92.675766 L -97.913687 92.597641 L -97.972281 92.523422 L -98.034781 92.445297 L -98.093375 92.371079 L -98.148062 92.292954 L -98.206656 92.214829 L -98.261344 92.136704 L -98.319937 92.058579 L -98.370719 91.980454 L -98.480094 91.824204 L -98.530875 91.746079 L -98.581656 91.664047 L -98.632437 91.585922 L -98.679312 91.503891 L -98.730094 91.42186 L -98.776969 91.339829 L -98.823844 91.261704 L -98.866812 91.179672 L -98.913687 91.093735 L -98.999625 90.929672 " transform="matrix(1,0,0,1,102.999625,4.000015)"/>
</g>
</svg>
