<?xml version="1.0" encoding="UTF-8"?>
<svg xmlns="http://www.w3.org/2000/svg" xmlns:xlink="http://www.w3.org/1999/xlink" width="18.472136pt" height="18.472136pt" viewBox="0 0 18.472136 18.472136" version="1.1">
<g id="surface2020932">
<path style="fill:none;stroke-width:1;stroke-linecap:butt;stroke-linejoin:bevel;stroke:rgb(50.048876%,50.048876%,50.048876%);stroke-opacity:1;stroke-miterlimit:10;" d="M 0 0 L 0.0273438 0 L 0.0351562 0.00390625 L 0.0664062 0.00390625 L 0.0820312 0.0078125 L 0.101562 0.0117188 L 0.171875 0.0234375 L 0.199219 0.0273438 L 0.292969 0.0507812 L 0.332031 0.0585938 L 0.367188 0.0703125 L 0.40625 0.0820312 L 0.449219 0.09375 L 0.492188 0.109375 L 0.585938 0.140625 L 0.636719 0.160156 L 0.691406 0.179688 L 0.742188 0.203125 L 0.859375 0.25 L 0.917969 0.277344 L 0.980469 0.308594 L 1.042969 0.335938 L 1.109375 0.371094 L 1.25 0.441406 L 1.324219 0.480469 L 1.472656 0.566406 L 1.550781 0.613281 L 1.632812 0.660156 L 1.714844 0.710938 L 1.800781 0.761719 L 1.886719 0.820312 L 2.066406 0.9375 L 2.253906 1.070312 L 2.449219 1.210938 L 2.652344 1.367188 L 2.757812 1.449219 L 2.976562 1.621094 L 3.085938 1.714844 L 3.199219 1.808594 L 3.433594 2.011719 L 3.550781 2.117188 L 3.671875 2.226562 L 3.796875 2.339844 L 3.921875 2.457031 L 4.050781 2.578125 L 4.179688 2.703125 L 4.3125 2.832031 L 4.582031 3.101562 L 4.71875 3.242188 L 4.859375 3.386719 L 5 3.535156 L 5.144531 3.6875 L 5.289062 3.847656 L 5.4375 4.007812 L 5.585938 4.175781 L 5.738281 4.347656 L 5.894531 4.523438 L 6.050781 4.703125 L 6.207031 4.890625 L 6.367188 5.082031 L 6.53125 5.277344 L 6.695312 5.476562 L 6.859375 5.683594 L 7.027344 5.894531 L 7.199219 6.109375 L 7.371094 6.328125 L 7.546875 6.554688 L 7.722656 6.785156 L 7.902344 7.023438 L 8.082031 7.265625 L 8.265625 7.511719 L 8.449219 7.765625 L 8.636719 8.023438 L 8.824219 8.289062 L 9.015625 8.558594 L 9.207031 8.835938 L 9.402344 9.117188 L 9.601562 9.40625 L 9.800781 9.699219 L 10 10 " transform="matrix(1,0,0,1,4,4)"/>
</g>
</svg>
