<?xml version="1.0" encoding="UTF-8"?>
<svg xmlns="http://www.w3.org/2000/svg" xmlns:xlink="http://www.w3.org/1999/xlink" width="48.468055pt" height="168.472136pt" viewBox="0 0 48.468055 168.472136" version="1.1">
<g id="surface178984">
<path style="fill:none;stroke-width:1;stroke-linecap:butt;stroke-linejoin:bevel;stroke:rgb(50.048876%,50.048876%,50.048876%);stroke-opacity:1;stroke-miterlimit:10;" d="M 39.998134 -80 L 38.396572 -75.25 L 36.830166 -70.691406 L 35.295009 -66.316406 L 33.795009 -62.132812 L 32.326259 -58.125 L 30.888759 -54.292969 L 29.486416 -50.632812 L 28.115322 -47.144531 L 26.775478 -43.816406 L 25.470791 -40.652344 L 24.197353 -37.640625 L 22.955166 -34.78125 L 21.748134 -32.074219 L 20.572353 -29.507812 L 19.427822 -27.085938 L 18.318447 -24.796875 L 17.240322 -22.640625 L 16.197353 -20.617188 L 15.185634 -18.714844 L 14.205166 -16.933594 L 13.259853 -15.269531 L 12.341884 -13.71875 L 11.462978 -12.273438 L 10.615322 -10.9375 L 9.798916 -9.699219 L 9.013759 -8.558594 L 8.263759 -7.511719 L 7.545009 -6.554688 L 6.857509 -5.683594 L 6.205166 -4.890625 L 5.584072 -4.175781 L 4.998134 -3.535156 L 4.443447 -2.964844 L 3.920009 -2.457031 L 3.431728 -2.011719 L 2.974697 -1.621094 L 2.548916 -1.289062 L 2.158291 -1.003906 L 1.798916 -0.761719 L 1.470791 -0.566406 L 1.177822 -0.40625 L 0.916103 -0.277344 L 0.689541 -0.179688 L 0.490322 -0.109375 L 0.330166 -0.0585938 L 0.197353 -0.0273438 L 0.0996969 -0.0117188 L 0.0332906 -0.00390625 L 0.00204061 0 L 0.0332906 0.00390625 L 0.0996969 0.0117188 L 0.197353 0.0273438 L 0.330166 0.0585938 L 0.490322 0.109375 L 0.689541 0.179688 L 0.916103 0.277344 L 1.177822 0.40625 L 1.470791 0.566406 L 1.798916 0.761719 L 2.158291 1.003906 L 2.548916 1.289062 L 2.974697 1.621094 L 3.431728 2.011719 L 3.920009 2.457031 L 4.443447 2.964844 L 4.998134 3.535156 L 5.584072 4.175781 L 6.205166 4.890625 L 6.857509 5.683594 L 7.545009 6.554688 L 8.263759 7.511719 L 9.013759 8.558594 L 9.798916 9.699219 L 10.615322 10.9375 L 11.462978 12.273438 L 12.341884 13.71875 L 13.259853 15.269531 L 14.205166 16.933594 L 15.185634 18.714844 L 16.197353 20.617188 L 17.240322 22.640625 L 18.318447 24.796875 L 19.427822 27.085938 L 20.572353 29.507812 L 21.748134 32.074219 L 22.955166 34.78125 L 24.197353 37.640625 L 25.470791 40.652344 L 26.775478 43.816406 L 28.115322 47.144531 L 29.486416 50.632812 L 30.888759 54.292969 L 32.326259 58.125 L 33.795009 62.132812 L 35.295009 66.316406 L 36.830166 70.691406 L 38.396572 75.25 L 39.998134 80 " transform="matrix(1,0,0,1,3.997959,84)"/>
</g>
</svg>
